<?xml version="1.0" encoding="UTF-8"?>
<svg width="270px" height="59px" viewBox="0 0 270 59" version="1.1" xmlns="http://www.w3.org/2000/svg" xmlns:xlink="http://www.w3.org/1999/xlink">
    <title>Group 5</title>
    <defs>
        <linearGradient x1="100%" y1="23.6749535%" x2="7.84045515%" y2="72.1875667%" id="linearGradient-1">
            <stop stop-color="#F7941E" offset="0%"></stop>
            <stop stop-color="#EF4123" offset="100%"></stop>
        </linearGradient>
    </defs>
    <g id="Page-1" stroke="none" stroke-width="1" fill="none" fill-rule="evenodd">
        <g id="1.-Login-" transform="translate(-585.000000, -235.000000)" fill-rule="nonzero">
            <g id="Group-5" transform="translate(585.000000, 235.000000)">
                <g id="horus_white_orange" transform="translate(67.000000, 5.000000)" fill="#FFFFFF">
                    <path d="M136.183557,11.3297387 L136.39258,11.330991 C138.267765,11.3535329 139.980518,11.6803811 141.529923,12.3110729 L141.529923,12.3110729 L141.707352,12.3846747 C143.235501,13.0298668 144.514962,13.8651341 145.546645,14.8913986 L145.546645,14.8913986 L143.995182,17.3873224 L143.948837,17.4602598 C143.778187,17.7209134 143.599646,17.9069409 143.413606,18.0181432 L143.413606,18.0181432 L143.356757,18.0498528 C143.162725,18.1504982 142.923331,18.200627 142.638002,18.200627 L142.638002,18.200627 L142.560865,18.1989683 C142.250674,18.1856979 141.920746,18.0927966 141.571483,17.9200614 L141.571483,17.9200614 L141.456036,17.8633023 C141.104343,17.6909294 140.704448,17.4996777 140.255607,17.2889825 L140.255607,17.2889825 L140.103858,17.2196722 C139.642434,17.0138088 139.125372,16.8265526 138.551929,16.6579035 L138.551929,16.6579035 L138.431106,16.6240026 C137.820208,16.4599442 137.107615,16.3775961 136.293957,16.3775961 L136.293957,16.3775961 L136.160087,16.3785631 C134.875241,16.3972586 133.858173,16.6870269 133.108422,17.2471687 L133.108422,17.2471687 L133.032153,17.3057071 C132.307378,17.877309 131.94476,18.6150743 131.94476,19.5185367 L131.94476,19.5185367 L131.946248,19.6103353 C131.965094,20.1870796 132.162985,20.6755148 132.540359,21.0751981 L132.540359,21.0751981 L132.621482,21.1586087 C133.008114,21.5446773 133.507544,21.8861971 134.119359,22.1827482 L134.119359,22.1827482 L134.28507,22.261553 C134.899397,22.5479666 135.587619,22.8064924 136.34954,23.0381247 L136.34954,23.0381247 L136.706779,23.1476643 C137.423516,23.3696645 138.153819,23.6091379 138.898172,23.8651092 L138.898172,23.8651092 L139.222702,23.9794323 C139.977978,24.2507335 140.719516,24.5538757 141.446805,24.8890316 L141.446805,24.8890316 L141.611822,24.96706 C142.376444,25.3375855 143.064678,25.7976131 143.67673,26.3473531 L143.67673,26.3473531 L143.791065,26.4524689 C144.393683,27.0195849 144.881621,27.6906639 145.25573,28.4646295 L145.25573,28.4646295 L145.306385,28.5728806 C145.669607,29.3737296 145.851329,30.328756 145.851329,31.4372824 L145.851329,31.4372824 L145.85003,31.6096878 C145.830117,32.9271638 145.581204,34.1457706 145.103516,35.2650538 L145.103516,35.2650538 L145.039974,35.4103147 C144.543595,36.5176222 143.835085,37.4786806 142.914894,38.2937166 L142.914894,38.2937166 L142.798556,38.3949644 C141.85917,39.1977322 140.711566,39.8273753 139.35507,40.2850353 L139.35507,40.2850353 L139.191137,40.3389841 C137.817342,40.779738 136.251427,41 134.493393,41 L134.493393,41 L134.249115,40.9981501 C133.355219,40.9845852 132.481016,40.8964119 131.626309,40.7336305 L131.626309,40.7336305 L131.3728,40.6834129 C130.530845,40.5102949 129.719656,40.2798731 128.93923,39.9907899 L128.93923,39.9907899 L128.725889,39.9101894 C127.948549,39.6103734 127.225269,39.2634573 126.556835,38.8690438 L126.556835,38.8690438 L126.390006,38.7691418 C125.728951,38.3668596 125.143014,37.9325015 124.631593,37.466474 L124.631593,37.466474 L126.210592,34.8303965 L126.266872,34.7456557 C126.457561,34.4693327 126.679149,34.2544827 126.930869,34.1014939 L126.930869,34.1014939 L126.991331,34.0666725 C127.258224,33.9213925 127.588698,33.8490623 127.983366,33.8490623 L127.983366,33.8490623 L128.068011,33.8506832 C128.46158,33.8658108 128.834967,33.9868241 129.188586,34.2135136 L129.188586,34.2135136 L129.316879,34.2952488 C129.665003,34.5150468 130.061162,34.7495508 130.504462,34.9989424 L130.504462,34.9989424 L130.630904,35.068637 C131.101226,35.3227809 131.645283,35.5614717 132.263467,35.784113 L132.263467,35.784113 L132.3659,35.8196702 C133.023204,36.0390805 133.843193,36.1485643 134.825868,36.1485643 L134.825868,36.1485643 L134.97683,36.147415 C135.724902,36.1359211 136.371881,36.0382223 136.917347,35.8543189 L136.917347,35.8543189 L137.040468,35.8113036 C137.567246,35.6208953 138.006322,35.3783458 138.357901,35.0828281 L138.357901,35.0828281 L138.437427,35.0139522 C138.77531,34.7120676 139.025728,34.3656878 139.189087,33.97502 L139.189087,33.97502 L139.231061,33.8696092 C139.378298,33.482019 139.452212,33.0825187 139.452212,32.6713064 L139.452212,32.6713064 L139.450861,32.5759706 C139.432846,31.945923 139.23469,31.4263435 138.856613,31.0165631 L138.856613,31.0165631 L138.775442,30.9313143 C138.388604,30.5369994 137.88919,30.19185 137.277613,29.894817 L137.277613,29.894817 L137.124647,29.8221221 C136.506247,29.5336189 135.809386,29.2724542 135.033664,29.0394405 L135.033664,29.0394405 L134.67229,28.9298317 C133.947325,28.7077639 133.20906,28.468575 132.457496,28.2119398 L132.457496,28.2119398 L132.165664,28.1104742 C131.389308,27.8347773 130.627837,27.5181114 129.881072,27.1606577 L129.881072,27.1606577 L129.714226,27.0788441 C128.941344,26.6903354 128.2487,26.2078878 127.637123,25.6321303 L127.637123,25.6321303 L127.529027,25.5280141 C126.923279,24.9306446 126.43305,24.2078648 126.058123,23.3607622 L126.058123,23.3607622 L126.009475,23.2475795 C125.644467,22.3724123 125.462525,21.3262638 125.462525,20.1075437 L125.462525,20.1075437 L125.463953,19.9472543 C125.483956,18.8276691 125.714013,17.7593528 126.15501,16.7423055 L126.15501,16.7423055 L126.216436,16.6040663 C126.675927,15.595958 127.334169,14.7120458 128.191162,13.9518782 L128.191162,13.9518782 L128.304249,13.8533972 C129.180111,13.1047146 130.259908,12.501827 131.54319,12.0449615 C132.882013,11.5679742 134.428377,11.3297387 136.183557,11.3297387 L136.183557,11.3297387 Z M101.88793,11.778592 L101.88793,30.0628466 L101.88886,30.2084034 C101.910563,31.8958239 102.312071,33.2073077 103.09315,34.1435658 L103.09315,34.1435658 L103.155742,34.216693 C103.958603,35.1309305 105.142711,35.5876913 106.708302,35.5876913 L106.708302,35.5876913 L106.855639,35.586304 C107.982278,35.565031 109.041245,35.2991135 110.032539,34.7883246 L110.032539,34.7883246 L110.195364,34.7025756 C111.169557,34.1780431 112.094094,33.4728195 112.968973,32.5869044 L112.968973,32.5869044 L112.968973,11.778592 L119.811475,11.778592 L119.811475,40.5514048 L115.628261,40.5514048 L115.550851,40.5503135 C114.70804,40.5263077 114.152019,40.106203 113.883024,39.2897631 L113.883024,39.2897631 L113.412358,36.990003 L113.21459,37.1876097 C112.685398,37.7094606 112.141724,38.1905012 111.583747,38.6305502 L111.583747,38.6305502 L111.42594,38.7528835 C110.844106,39.1957197 110.226992,39.5756414 109.575386,39.89245 L109.575386,39.89245 L109.396454,39.9774167 C108.736127,40.2832249 108.02915,40.5259379 107.27611,40.7057546 L107.27611,40.7057546 L107.099056,40.7462884 C106.327876,40.9154295 105.505394,41 104.630591,41 L104.630591,41 L104.452404,40.9988179 C102.974171,40.9791161 101.662364,40.7131404 100.516982,40.2008914 L100.516982,40.2008914 L100.369038,40.1331551 C99.2423778,39.6050713 98.2899133,38.8752493 97.5111965,37.9434613 L97.5111965,37.9434613 L97.406303,37.8156383 C96.6453547,36.8706805 96.0663417,35.7587622 95.6688178,34.4798832 L95.6688178,34.4798832 L95.6134656,34.2967926 C95.2349954,33.0092668 95.0454278,31.5980264 95.0454278,30.0628466 L95.0454278,30.0628466 L95.0454278,11.778592 L101.88793,11.778592 Z M53.6311708,11.3297387 L53.8501474,11.3309733 C55.8873329,11.35402 57.7398212,11.6997082 59.4071531,12.3673409 L59.4071531,12.3673409 L59.5848899,12.4399345 C61.2353117,13.1271333 62.6489832,14.0847515 63.8254455,15.3118598 L63.8254455,15.3118598 L63.95056,15.4444139 C65.1090766,16.6909014 66.0094514,18.1982417 66.6512252,19.9671319 L66.6512252,19.9671319 L66.7188269,20.1574743 C67.3387083,21.9411459 67.6486491,23.924786 67.6486491,26.1088595 L67.6486491,26.1088595 L67.647463,26.3440413 C67.6253244,28.5315871 67.2932452,30.5095729 66.6512252,32.2784629 L66.6512252,32.2784629 L66.5814741,32.4670709 C65.9212294,34.2183627 65.0024002,35.7163191 63.8254455,36.961869 L63.8254455,36.961869 L63.6984884,37.0942546 C62.5050831,38.3199011 61.0744849,39.2668891 59.4071531,39.9345219 L59.4071531,39.9345219 L59.2278019,40.004822 C57.5472452,40.6494577 55.6815484,40.9721241 53.6311708,40.9721241 L53.6311708,40.9721241 L53.4121524,40.9708896 C51.374432,40.9478427 49.5173683,40.6021547 47.8414204,39.9345219 L47.8414204,39.9345219 L47.6627349,39.861921 C46.0034669,39.174335 44.5811538,38.2074188 43.3953368,36.961869 L43.3953368,36.961869 L43.2692481,36.8274512 C42.101656,35.5638711 41.1926483,34.0478514 40.5417659,32.2784629 L40.5417659,32.2784629 L40.4754775,32.0945087 C39.8455581,30.3090575 39.5308288,28.3139965 39.5308288,26.1088595 L39.5308288,26.1088595 L39.5320302,25.8756186 C39.5544582,23.7058613 39.8908836,21.7365204 40.5417659,19.9671319 L40.5417659,19.9671319 L40.612491,19.7786089 C41.2818114,18.0283998 42.2092737,16.5397158 43.3953368,15.3118598 L43.3953368,15.3118598 L43.5232936,15.1814152 C44.7260036,13.9735573 46.1652262,13.0352228 47.8414204,12.3673409 C49.5772237,11.6758642 51.5073105,11.3297387 53.6311708,11.3297387 L53.6311708,11.3297387 Z M163.082134,11.3297387 L163.288141,11.3310261 C164.999595,11.3524833 166.579266,11.6421411 168.02693,12.1993113 L168.02693,12.1993113 L168.193276,12.2647926 C169.627544,12.8418062 170.869367,13.6660453 171.918974,14.7370489 L171.918974,14.7370489 L172.034785,14.8572072 C173.068834,15.9473342 173.880002,17.2723897 174.467606,18.8314479 L174.467606,18.8314479 L174.529558,18.9995725 C175.097641,20.5763482 175.381912,22.3663266 175.381912,24.3699724 L175.381912,24.3699724 L175.381424,24.4990485 C175.377846,24.9655434 175.35463,25.3573936 175.312561,25.6742022 L175.312561,25.6742022 L175.298995,25.7667323 C175.250741,26.068942 175.172145,26.3089417 175.063205,26.4875068 L175.063205,26.4875068 L175.025863,26.5446829 C174.910119,26.7111901 174.760918,26.8324967 174.578261,26.9082262 L174.578261,26.9082262 L174.515577,26.9321372 C174.322587,27.0001056 174.085133,27.0341838 173.802657,27.0341838 L173.802657,27.0341838 L156.239632,27.0341838 L156.251506,27.1975047 C156.471841,30.0685617 157.252425,32.182771 158.593981,33.5406208 L158.593981,33.5406208 L158.681814,33.6280037 C160.037806,34.95346 161.818282,35.6158253 164.023721,35.6158253 L164.023721,35.6158253 L164.197415,35.6147399 C165.231994,35.6017136 166.129948,35.4714331 166.89106,35.22324 L166.89106,35.22324 L167.074653,35.1623469 C167.801803,34.9167932 168.442288,34.6474363 168.996307,34.3536674 L168.996307,34.3536674 L169.158099,34.267716 C169.691315,33.9835526 170.163654,33.722776 170.575307,33.484611 L170.575307,33.484611 L170.665585,33.4340077 C171.086027,33.2059874 171.494491,33.0917675 171.891183,33.0917675 L171.891183,33.0917675 L171.973204,33.0934551 C172.215904,33.1035787 172.428369,33.1592375 172.611714,33.2600553 L172.611714,33.2600553 L172.678269,33.2992111 C172.853053,33.4082391 173.006259,33.5541572 173.137708,33.7367845 L173.137708,33.7367845 L175.132301,36.2608422 L174.997671,36.4176719 C174.274563,37.2461062 173.470122,37.946665 172.583923,38.5182723 L172.583923,38.5182723 L172.394953,38.6382178 C171.510522,39.1903838 170.590095,39.6364392 169.633466,39.9765938 L169.633466,39.9765938 L169.396606,40.0587877 C168.447849,40.3799235 167.483265,40.6094001 166.503257,40.7478265 L166.503257,40.7478265 L166.21438,40.7867348 C165.254149,40.9102632 164.320871,40.9721241 163.414354,40.9721241 L163.414354,40.9721241 L163.20312,40.9708529 C161.306805,40.9479741 159.539902,40.6162457 157.901496,39.9765938 L157.901496,39.9765938 L157.726518,39.906837 C156.100773,39.2451767 154.681583,38.2868367 153.46918,37.0318168 L153.46918,37.0318168 L153.344454,36.900882 C152.147431,35.6252383 151.201468,34.0613493 150.504954,32.2085151 L150.504954,32.2085151 L150.438484,32.0279798 C149.762528,30.1532435 149.424667,27.9931673 149.424667,25.5479864 L149.424667,25.5479864 L149.425958,25.330337 C149.448346,23.4482205 149.761787,21.6747399 150.366508,20.0092038 L150.366508,20.0092038 L150.434807,19.8248026 C151.058886,18.1729082 151.936411,16.7293447 153.06761,15.4943436 L153.06761,15.4943436 L153.194234,15.3581672 C154.342766,14.1417445 155.731923,13.1727732 157.361479,12.4514848 C159.051134,11.7039982 160.957764,11.3297387 163.082134,11.3297387 L163.082134,11.3297387 Z M192.833262,11.3297387 L193.037976,11.3308192 C195.076894,11.3524287 196.869394,11.6981699 198.41547,12.3673409 L198.41547,12.3673409 L198.592263,12.4454314 C200.118737,13.1328849 201.495988,14.0977391 202.723108,15.3399938 L202.723108,15.3399938 L200.922288,17.8637935 L200.854733,17.9490367 C200.675056,18.1707946 200.499189,18.3480938 200.326945,18.4809345 L200.326945,18.4809345 L200.284024,18.5119121 C200.092221,18.6411364 199.824808,18.7052321 199.48199,18.7052321 L199.48199,18.7052321 L199.40114,18.7033259 C199.078433,18.6880763 198.763929,18.5813194 198.45703,18.3828527 L198.45703,18.3828527 L198.355275,18.3175769 C198.044213,18.1191959 197.680941,17.8978382 197.265832,17.6536919 L197.265832,17.6536919 L197.14851,17.586573 C196.711652,17.3425636 196.201309,17.1215981 195.617482,16.924273 L195.617482,16.924273 L195.509879,16.8895121 C194.892144,16.6981289 194.138612,16.6018936 193.248855,16.6018936 L193.248855,16.6018936 L193.093089,16.6031421 C191.956959,16.6214524 190.956141,16.8411504 190.090856,17.2611066 L190.090856,17.2611066 L189.968374,17.3222003 C189.117621,17.7581763 188.405802,18.3688796 187.833138,19.1540854 L187.833138,19.1540854 L187.748431,19.2728108 C187.190609,20.0721439 186.770674,21.0280993 186.489727,22.1406762 L186.489727,22.1406762 L186.446474,22.3171401 C186.179573,23.4420643 186.046342,24.7060445 186.046342,26.1088595 L186.046342,26.1088595 L186.04744,26.326773 C186.062081,27.7718738 186.223142,29.0638871 186.531286,30.2032585 L186.531286,30.2032585 L186.576194,30.3652424 C186.896784,31.4908082 187.348357,32.441647 187.930025,33.2179833 L187.930025,33.2179833 L188.017957,33.3328353 C188.610032,34.0896172 189.319367,34.6684508 190.146183,35.0688902 L190.146183,35.0688902 L190.265221,35.1249556 C191.103297,35.5082755 192.042441,35.699711 193.082872,35.699711 L193.082872,35.699711 L193.230117,35.6988727 C194.251829,35.6871346 195.084663,35.5521307 195.728392,35.2931878 L195.728392,35.2931878 L195.87117,35.23473 C196.482839,34.9795157 197.003055,34.6996455 197.431814,34.3957393 L197.431814,34.3957393 L197.568471,34.2985379 C197.973067,34.0094209 198.329317,33.7426952 198.637035,33.4985489 L198.637035,33.4985489 L198.705868,33.4461492 C199.029681,33.2100346 199.389743,33.0917675 199.786673,33.0917675 L199.786673,33.0917675 L199.858155,33.0929869 C200.376589,33.11087 200.768356,33.3254694 201.033453,33.7367845 L201.033453,33.7367845 L203,36.260326 L203,36.2611003 L202.857219,36.4276295 C202.139556,37.2518042 201.365594,37.9488976 200.534486,38.5182723 L200.534486,38.5182723 L200.356753,38.6382178 C199.525311,39.1903838 198.665675,39.6364392 197.778057,39.9765938 L197.778057,39.9765938 L197.57372,40.0530434 C196.686133,40.3771886 195.770843,40.6085762 194.827855,40.7478265 L194.827855,40.7478265 L194.551057,40.7867348 C193.629174,40.9102632 192.715049,40.9721241 191.808301,40.9721241 L191.808301,40.9721241 L191.620693,40.9708529 C189.935729,40.9479741 188.345792,40.6162457 186.849738,39.9765938 L186.849738,39.9765938 L186.684295,39.9043568 C185.202133,39.2437452 183.904206,38.3001786 182.791201,37.0738887 L182.791201,37.0738887 L182.668452,36.9366248 C181.571973,35.6914193 180.698601,34.1807706 180.048795,32.4046787 L180.048795,32.4046787 L179.982482,32.2196853 C179.352332,30.4231236 179.037603,28.3861039 179.037603,26.1088595 L179.037603,26.1088595 L179.038838,25.8747854 C179.060244,23.8516405 179.359926,21.9713752 179.937885,20.2337595 L179.937885,20.2337595 L180.003244,20.0413829 C180.60119,18.3183591 181.461557,16.821195 182.583659,15.5503535 L182.583659,15.5503535 L182.705,15.4150096 C183.846727,14.1613036 185.246604,13.1736944 186.90532,12.4514848 C188.622511,11.7039982 190.598491,11.3297387 192.833262,11.3297387 L192.833262,11.3297387 Z M7.50719617,0 L7.50719617,17.4433323 L26.2892097,17.4433323 L26.2892097,0 L33.7966608,0 L33.7966608,40.5514048 L26.2892097,40.5514048 L26.2892097,22.8277651 L7.50719617,22.8277651 L7.50719617,40.5514048 L0,40.5514048 L0,0 L7.50719617,0 Z M87.6218602,11.2455948 L87.7613695,11.2466857 C89.1022447,11.2677771 90.2193865,11.5946886 91.1123342,12.2271872 L91.1123342,12.2271872 L90.2258201,17.4151983 L90.2129693,17.4858201 C90.1529742,17.7853412 90.0369819,18.0002599 89.8658092,18.130163 L89.8658092,18.130163 L89.8182528,18.1638033 C89.6389521,18.2817883 89.4054483,18.3407808 89.1177412,18.3407808 L89.1177412,18.3407808 L89.0567994,18.339781 C88.7859873,18.3311161 88.4276778,18.2661132 87.9818711,18.144359 L87.9818711,18.144359 L87.8954726,18.1219866 C87.425986,18.0062693 86.8174148,17.9481954 86.0703968,17.9481954 L86.0703968,17.9481954 L85.9333994,17.9494355 C84.5697681,17.9742369 83.396453,18.371063 82.4136855,19.1401474 L82.4136855,19.1401474 L82.3091648,19.2236757 C81.3388686,20.0155528 80.5149857,21.1512872 79.8375168,22.6313434 L79.8375168,22.6313434 L79.8375168,40.5514048 L72.995015,40.5514048 L72.995015,11.778592 L77.0117372,11.778592 L77.1020571,11.7793341 C77.7555893,11.7902186 78.2152284,11.920833 78.4800819,12.1711773 L78.4800819,12.1711773 L78.5230329,12.2140936 C78.7761249,12.4808964 78.9461987,12.9151862 79.0341214,13.5169629 L79.0341214,13.5169629 L79.4497147,16.994479 L79.5518283,16.8181442 C80.5445945,15.1256102 81.7017461,13.7820935 83.0230524,12.7880602 C84.389666,11.7600081 85.9225169,11.2455948 87.6218602,11.2455948 L87.6218602,11.2455948 Z M53.6311708,16.6300276 L53.5008298,16.6308391 C51.1659064,16.6600509 49.4365757,17.4779753 48.3125962,19.0838795 L48.3125962,19.0838795 L48.2458718,19.1809443 C47.1448205,20.8126146 46.5948954,23.1404326 46.5948954,26.1651274 L46.5948954,26.1651274 L46.5955303,26.3422756 C46.6171128,29.3399564 47.1890674,31.6320215 48.3125962,33.2179833 C49.45739,34.8353006 51.2301633,35.6437012 53.6311708,35.6437012 L53.6311708,35.6437012 L53.7618606,35.6428744 C56.0595606,35.6136659 57.7660646,34.8104217 58.8806499,33.2319213 L58.8806499,33.2319213 L58.9455508,33.1383358 C60.0381584,31.5332808 60.5845825,29.2089591 60.5845825,26.1651274 L60.5845825,26.1651274 L60.5839522,25.9868978 C60.5625239,22.9709219 59.9946764,20.6652699 58.8806499,19.0699415 L58.8806499,19.0699415 L58.8180977,18.9820241 C57.6811925,17.4140264 55.9519755,16.6300276 53.6311708,16.6300276 L53.6311708,16.6300276 Z M163.220325,16.2934522 L163.085019,16.2943361 C161.155262,16.3196749 159.639495,16.8897919 158.538909,18.0042053 C157.412217,19.1447934 156.691685,20.7621107 156.377823,22.855641 L156.377823,22.855641 L169.231895,22.855641 L169.230291,22.6768427 C169.215318,21.8456761 169.095557,21.0596426 168.871629,20.3179034 L168.871629,20.3179034 L168.827906,20.1787196 C168.58757,19.4418236 168.232926,18.7916078 167.763551,18.2285029 L167.763551,18.2285029 L167.674241,18.1242764 C167.190738,17.5753881 166.59233,17.1382766 165.879867,16.8125114 L165.879867,16.8125114 L165.765275,16.7619264 C165.033392,16.4497578 164.185075,16.2934522 163.220325,16.2934522 L163.220325,16.2934522 Z" id="Combined-Shape"></path>
                </g>
                <g id="horus_principal">
                    <path d="M45.9255433,18.3137367 C45.5467261,18.7255575 45.2691667,19.0897822 45.0568852,19.4165918 C45.0784731,22.7849701 45.13013,29.3453411 45.1527459,30.2799554 C45.2915256,35.9645074 43.2116292,40.8305083 38.7925238,45.1561535 C38.1803511,45.7558134 37.5453055,46.3096589 36.8909849,46.8650316 C37.4969896,46.3506374 35.4828849,48.1819418 32.1827551,50.2871146 C29.93401,51.6623109 27.4786373,52.8583219 24.7845122,53.8868557 C19.3016861,51.787537 14.754595,48.9261716 10.9042293,45.1561535 C10.2067328,44.4732641 9.57143022,43.7766303 8.99035448,43.0659977 L8.96542553,43.0349457 C8.17900724,42.0702975 7.49513172,41.0791788 6.92022397,40.0580262 C6.92382196,40.05599 6.92767696,40.0536993 6.93127495,40.0516631 L6.06775682,38.7854033 C3.55301728,38.2455567 1.39345097,36.7507338 0,34.702829 C0.178100613,35.8298639 0.430731065,36.9301736 0.767657333,38.0024857 C1.40295995,39.9284732 1.61626949,40.3135689 2.72213809,42.4704102 C3.94134344,44.607144 5.52857199,46.6339233 7.50129971,48.5650012 C12.0483908,53.0176543 17.4291882,56.3320733 23.95132,58.6981338 L24.7842552,59 L25.6166764,58.6981338 C32.2770739,56.281932 37.7000191,52.9672584 42.1957104,48.5652558 C47.6145436,43.2604545 50.1644921,37.2414572 49.9917884,30.1649103 C49.9758545,29.5006011 49.9614625,20.1552221 49.9522105,12 C49.7036921,12.626385 49.4400106,13.25277 49.1380363,13.8608292 C48.3991629,15.349798 47.2598844,16.8634557 45.9255433,18.3137367 Z" id="Fill-1" fill="url(#linearGradient-1)"></path>
                    <path d="M49.9920733,0 L49.9923147,0.310325111 C49.9923242,0.322242967 49.9923339,0.334489133 49.9923438,0.347061 L49.9925522,0.607965478 C49.9925655,0.624351637 49.9925791,0.641047815 49.9925926,0.658051399 L49.9928189,0.935833784 C49.9928353,0.955846075 49.9928519,0.976152703 49.9928691,0.996751056 L49.9930851,1.25776678 C49.993104,1.28065711 49.9931235,1.30382872 49.9931429,1.32727897 L49.9933265,1.54578448 C49.9933475,1.57088316 49.9933689,1.59625266 49.9933907,1.62189036 L49.9935929,1.8598006 C49.9936162,1.88702401 49.9936397,1.91450777 49.9936633,1.94224929 L49.993809,2.11177047 C49.9938338,2.14053254 49.9938589,2.16954712 49.9938842,2.19881162 L49.9940391,2.3773766 C49.9940655,2.40763029 49.9940921,2.43812865 49.9941189,2.46886908 L49.9943675,2.75199831 C49.9943958,2.78416764 49.9944245,2.81657122 49.9944534,2.84920638 L49.9946298,3.04777595 C49.9947193,3.14842952 49.9948113,3.2511206 49.9949057,3.3557786 L49.995097,3.56769632 C49.9951294,3.60344607 49.9951622,3.63940914 49.9951951,3.67558293 L49.9953956,3.89513322 C49.9955651,4.08016404 49.9957408,4.27033191 49.9959226,4.46531018 L49.9961438,4.70157217 C49.9972274,5.85446315 49.9985169,7.1647798 50,8.5687843 L50,8.5687843 L49.97446,8.6477596 C49.6938284,9.5155395 49.4254958,10.3453399 49.3766045,10.4753547 L49.3766045,10.4753547 L49.2715412,10.7542845 C48.9198553,11.6863581 48.551648,12.6385792 48.1137045,13.5230765 L48.1137045,13.5230765 L48.0261803,13.6962829 C47.312493,15.0816705 46.2777715,16.4585099 45.1238097,17.6665372 L45.1238097,17.6665372 L45.123554,17.6671398 L45.1232983,17.667552 L44.991452,17.8129139 C44.9032262,17.9095837 44.8142427,18.0056522 44.7238956,18.1003676 L44.7238956,18.1003676 L44.5751486,18.2552258 C43.2330292,19.6449363 41.7969943,20.923536 40.0872958,21.8680957 L40.0872958,21.8680957 L39.8018566,22.0265791 C39.1363612,22.3977105 38.4732883,22.7753974 37.7857442,23.1008336 L37.7857442,23.1008336 L37.7332241,23.1256301 C37.0663484,23.4398064 37.0141957,23.4436395 37.0106944,24.1464726 L37.0104632,24.2602516 L37.0104177,24.3609913 L37.0104177,24.3609913 L37.0102443,24.8051187 C37.0102305,24.8448079 37.010217,24.8851535 37.0102034,24.9261456 L37.0099746,25.7316906 C37.0099626,25.7800848 37.0099508,25.829066 37.0099393,25.8786244 L37.0097145,27.0008033 C37.0097048,27.0579573 37.0096951,27.1156194 37.0096854,27.1737794 L37.0094553,28.8578901 C37.0094478,28.9242116 37.0094404,28.9909421 37.009433,29.0580716 L37.0091985,31.8566341 C37.0091937,31.9324628 37.0091888,32.0085617 37.0091842,32.0849209 L37.008929,45.3989541 L36.9276736,45.4687125 C35.8774476,46.3680513 34.0376085,47.856962 32.324002,49 L32.324002,49 L32.3240058,47.5780976 C32.3240035,47.5253639 32.324001,47.4713626 32.3239982,47.4161269 L32.3237678,44.2091137 C32.3237604,44.1243016 32.3237527,44.0387523 32.3237448,43.9524987 L32.3234934,41.4767139 C32.3234827,41.3804708 32.3234717,41.283822 32.3234604,41.1868008 L32.3232428,39.407328 C32.3232295,39.3070282 32.3232165,39.2065544 32.3232029,39.10594 L32.3229892,37.5903203 C32.3229741,37.4891285 32.3229588,37.3879615 32.3229434,37.2868529 L32.3227501,36.0784671 C32.3227332,35.9783548 32.3227163,35.8784335 32.3226992,35.7787362 L32.3224857,34.5952406 C32.3224673,34.4978655 32.3224486,34.400847 32.32243,34.304218 L32.3222561,33.4459767 C32.3222361,33.3519847 32.3222162,33.2584816 32.322196,33.1655011 L32.3220098,32.3436731 C32.3219886,32.2541247 32.3219671,32.1651981 32.3219457,32.0769263 L32.321747,31.3010584 C32.3217245,31.2170143 32.3217017,31.1337247 32.3216787,31.0512226 L32.3214678,30.3308607 C32.3214437,30.2533819 32.3214197,30.17679 32.3213951,30.1011184 L32.3212471,29.6583934 C32.3212223,29.5865346 32.321197,29.5156622 32.3211717,29.4458092 L32.3209385,28.8455544 C32.3209121,28.7821167 32.3208855,28.7197981 32.3208587,28.6586318 L32.3206961,28.3057235 C32.3206684,28.2492981 32.3206408,28.1940911 32.320613,28.1401358 L32.3204439,27.8316869 C32.3204153,27.7828704 32.3203867,27.7353715 32.3203578,27.6892236 L32.3201821,27.428814 C32.3201524,27.3882029 32.3201228,27.349009 32.3200929,27.3112655 L32.3199108,27.1024749 L32.3192713,27.0257115 C32.314467,26.718121 32.2836015,26.4008524 32.2590543,25.9577716 L32.2590543,25.9577716 L32.1661234,25.9982637 C31.8327784,26.1417372 31.579128,26.2330172 31.3482525,26.3639484 L31.3482525,26.3639484 L29.6299516,27.3444972 C28.4854972,28.0001006 27.342293,28.6579217 26.194884,29.3084136 L26.194884,29.3084136 L24.4337494,30.3026201 C22.6712324,31.2946624 20.9058028,32.2822447 19.1485717,33.2836699 L19.1485717,33.2836699 L19.1319128,33.2931563 C18.6786884,33.5514272 16.2567639,34.9445007 13.2562314,36.6710987 L13.2562314,36.6710987 L13.2516288,36.6530858 L13.0926343,36.7533425 C12.6120731,37.0489066 12.0995745,37.2975142 11.5622219,37.4963912 L11.5622219,37.4963912 L11.5456015,37.5047634 L11.5399761,37.5037486 L11.3816484,37.5600615 C10.5334683,37.8524378 9.62547839,38.0169281 8.67920958,38.0281506 L8.67920958,38.0281506 L8.59425341,38.0286263 L8.59425341,38.0286263 L8.50891369,38.0289117 L8.32518674,38.0255978 C7.83649965,38.0117665 7.35798164,37.9580443 6.89340397,37.866035 L6.89340397,37.866035 L6.8932122,37.8660033 L6.89263688,37.8657813 L6.7794259,37.8412991 L6.7794259,37.8412991 L6.66659848,37.8152946 L6.47588214,37.768449 C6.15938292,37.6871822 5.84980892,37.5901765 5.54893578,37.4806617 L5.54893578,37.4806617 L5.43476593,37.4384837 L5.43476593,37.4384837 L5.32136319,37.394403 L5.32392018,37.3979549 L5.32366448,37.3979549 L5.21955828,37.3567653 C2.07341781,36.0883523 0,33.0957264 0,29.5217769 L0,29.5217769 L0.00148684549,29.3696402 C0.00343773829,29.2684413 0.00724482037,29.1676935 0.0125292776,29.0673967 L0.0125292776,29.0673967 L0.0135520758,28.9230403 L0.0235243579,28.9230403 L0.0329216166,28.8013922 C0.292710208,25.7257078 2.19973335,23.1150475 4.87772448,21.8429792 L4.87772448,21.8429792 L5.01451274,21.7794837 C6.06825089,21.3016602 7.23687239,21.0309743 8.46749036,21.015657 L8.46749036,21.015657 L8.52157081,21.0140714 L8.52157081,21.0140714 L8.57565127,21.0128663 L8.70721551,21.0138479 C11.5088542,21.0556799 13.9831262,22.4313453 15.5176382,24.5279072 L15.5176382,24.5279072 L15.5818073,24.5999179 C15.7281907,24.7707872 15.8509105,24.9614205 15.9446564,25.1687584 L15.9446564,25.1687584 L16.0154532,25.2889497 L16.0154532,25.2889497 L16.084524,25.4102827 L16.0459134,25.4288029 L16.0712157,25.514418 C16.1266186,25.7156962 16.1563756,25.9273908 16.1563756,26.1462721 L16.1563756,26.1462721 L16.1554167,26.2144129 C16.1190568,27.5046851 15.0533363,28.5394429 13.7443618,28.5394429 L13.7443618,28.5394429 L13.6631761,28.5381122 C12.8546347,28.5115681 12.1476666,28.0900058 11.7302165,27.4619706 L11.7302165,27.4619706 L11.7064365,27.4731335 L11.6522842,27.3940191 C11.1008226,26.6102152 10.252999,26.0483432 9.26987553,25.8656777 L9.26987553,25.8656777 L9.15681726,25.8463259 C8.9674753,25.8165511 8.77360534,25.7994615 8.57565127,25.7994615 L8.57565127,25.7994615 L8.48976811,25.800419 C6.66262706,25.8411986 5.16221579,27.1799438 4.87746878,28.9230403 L4.87746878,28.9230403 L4.85956981,29.0443943 C4.84900091,29.1256918 4.84115944,29.2077784 4.83604545,29.2906544 L4.83604545,29.2906544 L4.83374416,29.7069794 L4.8386416,29.7876675 C4.97680281,31.7186217 6.59464532,33.2438387 8.57565127,33.2438387 L8.57565127,33.2438387 L8.70128719,33.2417022 C9.07651809,33.2289362 9.43646378,33.159432 9.77590492,33.0459511 L9.77590492,33.0459511 L9.77564922,33.0484881 L9.789457,33.0408771 L9.80610838,33.0343382 C10.484279,32.7459201 23.8164793,25.3138937 24.6123595,24.8635549 L24.6123595,24.8635549 L24.5958773,24.8562055 C24.1597558,24.6687857 20.4800667,23.5302171 18.9780201,22.7641711 L18.9780201,22.7641711 L18.7631333,22.653223 C16.6928597,21.5715764 14.8249737,20.223684 13.1943521,18.5265869 L13.1943521,18.5265869 L13.0235727,18.347071 C11.6659987,16.9056679 10.5165438,15.3370152 9.59307975,13.5948742 L9.59307975,13.5948742 L9.56476074,13.5433087 C9.35404417,13.1740646 9.07446549,13.0004174 8.60070982,13.0052708 L8.60070982,13.0052708 L8.55936978,13.0056525 C8.25805525,13.0082889 7.709455,13.0101829 7.12358007,13.0115314 L6.9553544,13.0119019 C6.9272082,13.0119613 6.89902284,13.0120194 6.87082097,13.0120764 L6.70159337,13.0124044 C6.41982224,13.012928 6.14093727,13.0133386 5.88761535,13.0136573 L5.73887119,13.0138376 C5.71465225,13.0138659 5.69073427,13.0138933 5.66713995,13.0139199 L5.46414228,13.0141363 C5.44269402,13.0141579 5.42163747,13.0141787 5.40099528,13.0141987 L5.17463005,13.0144037 C5.15766567,13.0144179 5.14120634,13.0144315 5.12527475,13.0144443 L4.82129054,13.0146565 L4.82129054,13.0146565 L4.81891358,13.0146578 L4.81891358,16.5832298 L4.81793745,16.6514176 C4.78157687,17.9198526 3.73401182,18.9370812 2.44704462,18.9373304 L2.44704462,18.9373304 L2.37596015,18.9373304 L2.30723521,18.9363746 C1.02880439,18.9005213 0.00332409406,17.8606415 0.00332409406,16.5832298 L0.00332409406,16.5832298 L0.00332409406,0 L49.9920733,0 Z M45.1759724,4.77847675 L4.81891358,4.77847675 L4.81891358,8.35998757 L4.88897526,8.35998757 L4.88897526,8.36861344 L8.23531518,8.36848659 L8.23531518,8.36848659 L11.5816551,8.36912084 L11.691828,8.36929377 C12.3906258,8.37190063 12.3920522,8.41444894 12.6801403,9.14849332 L12.6801403,9.14849332 L12.7490378,9.32206909 C14.0468371,12.5532223 16.0023189,15.2832386 18.9163965,17.3136378 L18.9163965,17.3136378 L19.1092353,17.4459265 C20.3990085,18.3170636 21.7725847,18.9739964 23.2407871,19.5094284 L23.2407871,19.5094284 L23.4343361,19.5784551 C25.5004247,20.2987766 27.6166044,20.5102443 29.777746,20.4034742 L29.777746,20.4034742 L29.9922022,20.3913866 C31.4201946,20.3012467 32.8139832,20.0198043 34.1806364,19.5363208 L34.1806364,19.5363208 L34.420579,19.4500454 C35.5364873,19.0420609 36.5991449,18.5578599 37.620818,17.9514445 L37.620818,17.9514445 L37.8108992,17.8364953 C39.070279,17.0611376 40.174124,16.1063667 41.1845026,15.0427514 L41.1845026,15.0427514 L41.3238376,14.8944465 C42.3391402,13.8018442 43.2105545,12.598046 43.860654,11.2521901 L43.860654,11.2521901 L43.9917913,10.9810142 C44.3844545,10.1695778 44.7708421,9.37301957 45.1634431,8.48480895 L45.1634431,8.48480895 L45.1631874,8.42518898 L45.1759724,4.77847675 Z M28.7012509,8.52945951 L28.846523,8.52945951 L28.846523,8.52945951 L29.2820218,8.52968256 C33.9231088,8.53325293 38.3880599,8.57972393 38.7719774,8.6717873 L38.7719774,8.6717873 L38.7254306,8.83108046 C38.3108869,10.2054889 37.6074649,11.4206107 36.6685929,12.4882262 L36.6685929,12.4882262 L36.5672994,12.6020614 C34.6332496,14.74842 32.1599707,15.9533009 29.2814331,16.1565031 L29.2814331,16.1565031 L29.1249801,16.1663226 C23.9670998,16.4500922 19.3222505,12.7587384 18.5180166,8.6712799 C18.8064866,8.58867454 22.6631639,8.5414332 26.9373968,8.531457 L27.2294318,8.53083457 C27.2781998,8.53074047 27.3270126,8.53065119 27.3758653,8.53056671 L27.6694252,8.53011779 C27.8164085,8.52992226 27.9636692,8.52977016 28.111082,8.52966158 L28.5536534,8.52945951 L28.5536534,8.52945951 L28.7012509,8.52945951 Z" id="Combined-Shape" fill="#FFFFFF"></path>
                </g>
            </g>
        </g>
    </g>
</svg>