<?xml version="1.0" encoding="UTF-8"?>
<svg width="20px" height="23px" viewBox="0 0 20 23" version="1.1" xmlns="http://www.w3.org/2000/svg" xmlns:xlink="http://www.w3.org/1999/xlink">
    <title>2A701105-13DB-4233-A70D-C3679562FFBD</title>
    <defs>
        <path d="M10,-2.85993451e-13 C12.843,-2.85993451e-13 15.314,2.02 15.881,4.806 C15.99,5.347 15.641,5.875 15.1,5.985 C14.555,6.098 14.03,5.745 13.92,5.204 C13.543,3.347 11.895,2 10,2 L10,2 C8.928,2.001 7.923,2.418 7.168,3.174 C6.414,3.931 5.999,4.936 6,6.004 L6,6.004 L6,9.005 L17,9.005 C18.654,9.005 20,10.351 20,12.005 L20,12.005 L20,19.005 C20,20.659 18.654,22.005 17,22.005 L17,22.005 L3,22.005 C1.346,22.005 0,20.659 0,19.005 L0,19.005 L0,12.005 C0,10.351 1.346,9.005 3,9.005 L3,9.005 L4,9.005 L4,6.005 C3.999,4.403 4.621,2.896 5.753,1.762 C6.885,0.627 8.392,0.002 9.994,-2.85993451e-13 L9.994,-2.85993451e-13 Z M17,11.005 L3,11.005 C2.449,11.005 2,11.454 2,12.005 L2,12.005 L2,19.005 C2,19.557 2.449,20.005 3,20.005 L3,20.005 L17,20.005 C17.552,20.005 18,19.557 18,19.005 L18,19.005 L18,12.005 C18,11.454 17.552,11.005 17,11.005 L17,11.005 Z" id="path-1"></path>
    </defs>
    <g id="DS---Website" stroke="none" stroke-width="1" fill="none" fill-rule="evenodd">
        <g id="Website-/-Desktop-/-Design-tokens-/-Icons-/-Specs-" transform="translate(-648.000000, -7728.000000)">
            <g id="Icons" transform="translate(590.000000, 784.000000)">
                <g id="Icons/Security/Lock/Unlocked" transform="translate(58.000000, 6944.000000)">
                    <mask id="mask-2" fill="white">
                        <use xlink:href="#path-1"></use>
                    </mask>
                    <use id="Icon-Unlock" fill="#F2F2F9" xlink:href="#path-1"></use>
                </g>
            </g>
        </g>
    </g>
</svg>