<?xml version="1.0" encoding="UTF-8"?>
<svg width="15px" height="13px" viewBox="0 0 15 13" version="1.1" xmlns="http://www.w3.org/2000/svg" xmlns:xlink="http://www.w3.org/1999/xlink">
    <title>C167FFFC-E912-40E6-8EEC-5C1BBBFF0F42</title>
    <defs>
        <path d="M12.5,7.125 C13.1903559,7.125 13.75,7.68464406 13.75,8.375 L13.75,12.125 C13.75,12.8153559 13.1903559,13.375 12.5,13.375 L2.5,13.375 C1.80964406,13.375 1.25,12.8153559 1.25,12.125 L1.25,8.375 C1.25,7.68464406 1.80964406,7.125 2.5,7.125 L12.5,7.125 Z M12.1875,8.375 L2.8125,8.375 C2.63991102,8.375 2.5,8.51491102 2.5,8.6875 L2.5,8.6875 L2.5,11.8125 C2.5,11.985089 2.63991102,12.125 2.8125,12.125 L2.8125,12.125 L12.1875,12.125 C12.360089,12.125 12.5,11.985089 12.5,11.8125 L12.5,11.8125 L12.5,8.6875 C12.5,8.51491102 12.360089,8.375 12.1875,8.375 L12.1875,8.375 Z M8.75,-0.375 C9.44035594,-0.375 10,0.184644063 10,0.875 L10,4.625 C10,5.31535594 9.44035594,5.875 8.75,5.875 L2.5,5.875 C1.80964406,5.875 1.25,5.31535594 1.25,4.625 L1.25,0.875 C1.25,0.184644063 1.80964406,-0.375 2.5,-0.375 L8.75,-0.375 Z M8.4375,0.875 L2.8125,0.875 C2.63991102,0.875 2.5,1.01491102 2.5,1.1875 L2.5,1.1875 L2.5,4.3125 C2.5,4.48508898 2.63991102,4.625 2.8125,4.625 L2.8125,4.625 L8.4375,4.625 C8.61008898,4.625 8.75,4.48508898 8.75,4.3125 L8.75,4.3125 L8.75,1.1875 C8.75,1.01491102 8.61008898,0.875 8.4375,0.875 L8.4375,0.875 Z" id="path-1"></path>
    </defs>
    <g id="1.0-Dash-" stroke="none" stroke-width="1" fill="none" fill-rule="evenodd">
        <g id="4.0-dash" transform="translate(-23.000000, -139.000000)">
            <g id="Hypotheses" transform="translate(0.000000, 122.000000)">
                <g id="Icon/Layout/Kanban-Copy" transform="translate(23.000000, 17.000000)">
                    <mask id="mask-2" fill="white">
                        <use xlink:href="#path-1"></use>
                    </mask>
                    <use id="Icon-Kanban" fill="#98989E" transform="translate(7.500000, 6.500000) rotate(90.000000) translate(-7.500000, -6.500000) " xlink:href="#path-1"></use>
                </g>
            </g>
        </g>
    </g>
</svg>