<?xml version="1.0" encoding="UTF-8"?>
<svg width="17px" height="24px" viewBox="0 0 24 24" version="1.1" xmlns="http://www.w3.org/2000/svg" xmlns:xlink="http://www.w3.org/1999/xlink">
    <defs>
        <path d="M12.0004,0 C13.6544,0 15.0004,1.346 15.0004,3 C15.0014,3.345 15.1564,3.579 15.3944,3.681 C15.6474,3.792 15.9294,3.742 16.1214,3.555 C16.7384,2.937 17.4914,2.624 18.2934,2.624 L18.2954,2.624 C19.0894,2.624 19.8374,2.931 20.4034,3.49 L20.4174,3.503 L20.4174,3.503 L20.4174,3.502 C21.5874,4.671 21.5884,6.575 20.4204,7.745 C20.1784,7.99 20.1274,8.271 20.2354,8.516 C20.2634,8.58 20.2854,8.647 20.2984,8.715 C20.4184,8.891 20.6174,8.999 20.8344,9 L21.0004,9 C22.6544,9 24.0004,10.346 24.0004,12 C24.0004,13.654 22.6544,15 21.0004,15 C20.6554,15.001 20.4214,15.155 20.3194,15.394 C20.3184,15.397 20.3164,15.4 20.3154,15.404 C20.2074,15.648 20.2584,15.93 20.4454,16.121 C21.6674,17.341 21.6684,19.244 20.5004,20.415 C19.3274,21.587 17.4254,21.587 16.2544,20.42 C16.0094,20.178 15.7264,20.125 15.4844,20.235 C15.2354,20.342 15.0814,20.575 15.0804,20.835 L15.0804,21 C15.0804,22.654 13.7344,24 12.0804,24 C10.4254,24 9.0804,22.654 9.0804,21 C9.0734,20.665 8.9074,20.432 8.6554,20.339 C8.3514,20.207 8.0694,20.259 7.8794,20.445 C6.6574,21.665 4.7544,21.667 3.5854,20.5 L3.5634,20.478 L3.5634,20.478 C3.0084,19.914 2.7034,19.169 2.7034,18.377 C2.7034,17.575 3.0144,16.822 3.5814,16.255 C3.8214,16.01 3.8734,15.729 3.7654,15.483 C3.6584,15.236 3.4254,15.081 3.1654,15.08 L3.0004,15.08 C1.3454,15.08 0.0004,13.734 0.0004,12.08 C0.0004,10.426 1.3454,9.08 3.0004,9.08 C3.3354,9.074 3.5684,8.907 3.6614,8.655 C3.7934,8.352 3.7424,8.07 3.5554,7.88 C2.3334,6.658 2.3324,4.755 3.5014,3.585 C4.6714,2.413 6.5744,2.411 7.7454,3.581 C7.9904,3.823 8.2724,3.874 8.5164,3.765 C8.5804,3.737 8.6474,3.716 8.7144,3.701 C8.8904,3.583 8.9994,3.383 9.0004,3.166 L9.0004,3 C9.0004,1.346 10.3454,0 12.0004,0 Z M12.0004,2 C11.4484,2 11.0004,2.449 11.0004,3 L11.0004,3.17 C10.9964,4.23 10.3654,5.183 9.3944,5.599 C9.3094,5.635 9.2204,5.66 9.1294,5.672 C8.1814,6.006 7.1294,5.778 6.4004,5.065 C5.9424,4.607 5.3074,4.606 4.9174,4.997 C4.5264,5.388 4.5264,6.023 4.9174,6.413 C5.7474,7.259 5.9554,8.407 5.5154,9.404 C5.1604,10.373 4.2084,11.054 3.1134,11.08 L3.0004,11.08 L3.0004,11.08 C2.4484,11.08 2.0004,11.529 2.0004,12.08 C2.0004,12.631 2.4484,13.08 3.0004,13.08 L3.1704,13.08 C4.2314,13.085 5.1824,13.715 5.5994,14.686 C6.0344,15.674 5.8264,16.821 5.0654,17.6 C4.8074,17.857 4.7034,18.108 4.7034,18.376 C4.7034,18.5985 4.77562222,18.8098889 4.9090713,18.9829676 L4.9964,19.082 C4.9994,19.085 5.0024,19.088 5.0044,19.091 C5.3954,19.474 6.0254,19.47 6.4124,19.083 C6.9704,18.537 7.6574,18.261 8.3464,18.261 C8.7044,18.261 9.0634,18.335 9.4034,18.485 C10.3724,18.839 11.0534,19.791 11.0794,20.887 L11.0801037,20.9180741 L11.0801037,20.9180741 L11.0804,21 L11.0804,21 C11.0804,21.552 11.5284,22 12.0804,22 C12.6314,22 13.0804,21.552 13.0804,21 L13.0804,20.83 C13.0854,19.769 13.7154,18.816 14.6864,18.401 C15.6714,17.965 16.8194,18.173 17.5994,18.936 C17.8205429,19.1554286 18.0365429,19.2639184 18.261884,19.2904373 L18.3764,19.297 C18.6424,19.296 18.8934,19.192 19.0824,19.003 C19.2734,18.813 19.3774,18.562 19.3774,18.294 C19.3764,18.027 19.2724,17.776 19.0834,17.588 C18.2544,16.742 18.0464,15.598 18.4834,14.602 C18.8994,13.634 19.8504,13.005 20.9054,13 C21.5514,13 22.0004,12.551 22.0004,12 C22.0004,11.449 21.5514,11 21.0004,11 L20.8304,11 C19.7694,10.996 18.8174,10.366 18.4014,9.394 C18.3654,9.31 18.3404,9.221 18.3294,9.13 C17.9944,8.181 18.2224,7.129 18.9354,6.4 C19.3884,5.947 19.3934,5.32 19.0154,4.93 C19.0104,4.925 19.0054,4.92 19.0014,4.916 C18.8124,4.727 18.5614,4.624 18.2954,4.624 L18.2944,4.624 C18.0274,4.624 17.7764,4.728 17.5884,4.917 C16.7404,5.748 15.5914,5.955 14.5954,5.515 C13.6344,5.103 13.0044,4.151 13.0004,3.094 C13.0004,2.449 12.5514,2 12.0004,2 Z M12,8 C14.206,8 16,9.794 16,12 C16,14.206 14.206,16 12,16 C9.794,16 8,14.206 8,12 C8,9.794 9.794,8 12,8 Z M12,10 C10.897,10 10,10.897 10,12 C10,13.103 10.897,14 12,14 C13.103,14 14,13.103 14,12 C14,10.897 13.103,10 12,10 Z" id="path-1"></path>
    </defs>
    <g stroke="none" stroke-width="1" fill="none" fill-rule="evenodd">
        <g transform="translate(-1038.000000, -6831.000000)">
            <g transform="translate(590.000000, 784.000000)">
                <g transform="translate(448.000000, 6047.000000)">
                    <mask  fill="white">
                        <use xlink:href="#path-1"></use>
                    </mask>
                    <use fill="#98989E" xlink:href="#path-1"></use>
                </g>
            </g>
        </g>
    </g>
</svg>
