<?xml version="1.0" encoding="UTF-8"?>
<svg width="21px" height="21px" viewBox="0 0 21 21" version="1.1" xmlns="http://www.w3.org/2000/svg" xmlns:xlink="http://www.w3.org/1999/xlink">
    <defs>
        <path d="M17.5,7 C18.94725,7 20.125,8.17775 20.125,9.625 L20.125,9.625 L20.125,17.5 C20.125,18.94725 18.94725,20.125 17.5,20.125 L17.5,20.125 L9.625,20.125 C8.17775,20.125 7,18.94725 7,17.5 L7,17.5 L7,9.625 C7,8.17775 8.17775,7 9.625,7 L9.625,7 Z M17.5,8.75 L9.625,8.75 C9.142875,8.75 8.75,9.142875 8.75,9.625 L8.75,9.625 L8.75,17.5 C8.75,17.983 9.142875,18.375 9.625,18.375 L9.625,18.375 L17.5,18.375 C17.983,18.375 18.375,17.983 18.375,17.5 L18.375,17.5 L18.375,9.625 C18.375,9.142875 17.983,8.75 17.5,8.75 L17.5,8.75 Z M11.375,0.875 C12.82225,0.875 14,2.05275 14,3.5 L14,3.5 L14,4.375 C14,4.858 13.608875,5.25 13.125,5.25 C12.641125,5.25 12.25,4.858 12.25,4.375 L12.25,4.375 L12.25,3.5 C12.25,3.017875 11.858,2.625 11.375,2.625 L11.375,2.625 L3.5,2.625 C3.017875,2.625 2.625,3.017875 2.625,3.5 L2.625,3.5 L2.625,11.375 C2.625,11.858 3.017875,12.25 3.5,12.25 L3.5,12.25 L4.375,12.25 C4.858,12.25 5.25,12.641125 5.25,13.125 C5.25,13.608875 4.858,14 4.375,14 L4.375,14 L3.5,14 C2.05275,14 0.875,12.82225 0.875,11.375 L0.875,11.375 L0.875,3.5 C0.875,2.05275 2.05275,0.875 3.5,0.875 L3.5,0.875 Z" id="path-1"></path>
    </defs>
    <g id="Page-1" stroke="none" stroke-width="1" fill="none" fill-rule="evenodd">
        <g id="1.0-Dash-Copy-20" transform="translate(-942.000000, -491.000000)">
            <g id="Group-15-Copy" transform="translate(573.000000, 379.000000)">
                <g id="Icon/Miscellaneous/Settings-Copy-3" transform="translate(369.000000, 112.000000)">
                    <mask id="mask-2" fill="white">
                        <use xlink:href="#path-1"></use>
                    </mask>
                    <use id="Icon-Copy" fill="#98989E" xlink:href="#path-1"></use>
                </g>
            </g>
        </g>
    </g>
</svg>
