<?xml version="1.0" encoding="UTF-8"?>
<svg width="15px" height="16px" viewBox="0 0 15 16" version="1.1" xmlns="http://www.w3.org/2000/svg" xmlns:xlink="http://www.w3.org/1999/xlink">
    <defs>
        <path d="M7.5,0.625 C11.290625,0.625 14.375,3.709375 14.375,7.5 C14.375,11.290625 11.290625,14.375 7.5,14.375 C3.709375,14.375 0.625,11.290625 0.625,7.5 C0.625,3.709375 3.709375,0.625 7.5,0.625 Z M7.5,1.875 C4.39875,1.875 1.875,4.39875 1.875,7.5 C1.875,10.601875 4.39875,13.125 7.5,13.125 C10.601875,13.125 13.125,10.601875 13.125,7.5 C13.125,4.39875 10.601875,1.875 7.5,1.875 Z M7.05625,10.1825 C7.29375,9.95125 7.7125,9.95125 7.94375,10.1825 C8,10.23875 8.04375,10.3075 8.075,10.38875 C8.10625,10.46375 8.125,10.545 8.125,10.62625 C8.125,10.794375 8.0625,10.950625 7.94375,11.06375 C7.825,11.1825 7.66875,11.25125 7.5,11.25125 C7.33125,11.25125 7.175,11.1825 7.05625,11.06375 C7,11.006875 6.95625,10.93875 6.925,10.86375 C6.89375,10.78875 6.875,10.7075 6.875,10.62625 C6.875,10.545 6.89375,10.46375 6.925,10.38875 C6.95625,10.3075 7,10.23875 7.05625,10.1825 Z M5.0913125,5.417625 C5.5494375,4.117 6.9800625,3.43325 8.2794375,3.888875 C9.2806875,4.24075 9.9519375,5.190125 9.95006642,6.25075 C9.95006642,7.902625 7.8831875,8.6395 7.6475625,8.717625 C7.5819375,8.7395 7.5150625,8.750125 7.4500625,8.750125 C7.1881875,8.750125 6.9444375,8.5845 6.8569375,8.322625 C6.7475625,7.995125 6.9250625,7.641375 7.2519375,7.532 C7.6269375,7.405125 8.7000625,6.896375 8.7000625,6.250125 C8.7006875,5.718875 8.3656875,5.243875 7.8650625,5.06825 C7.2150625,4.8395 6.5000625,5.182625 6.2706875,5.832625 C6.1569375,6.157625 5.8000625,6.328875 5.4738125,6.2145 C5.1481875,6.100125 4.9769375,5.74325 5.0913125,5.417625 Z" id="path-1"></path>
    </defs>
    <g id="1.0-Dash-" stroke="none" stroke-width="1" fill="none" fill-rule="evenodd">
        <g id="4.0-dash" transform="translate(-16.000000, -1691.000000)">
            <g transform="translate(16.000000, 1691.000000)">
                <g id="Icon/Miscellaneous/Settings" transform="translate(0.000000, 0.551724)">
                    <mask id="mask-2" fill="white">
                        <use xlink:href="#path-1"></use>
                    </mask>
                    <use id="Icon-Help" fill="#98989E" xlink:href="#path-1"></use>
                </g>
            </g>
        </g>
    </g>
</svg>
