<?xml version="1.0" encoding="UTF-8"?>
<svg width="18px" height="12px" viewBox="0 0 24 12" version="1.1" xmlns="http://www.w3.org/2000/svg" xmlns:xlink="http://www.w3.org/1999/xlink">
    <defs>
        <path d="M9,0 C9.552,0 10,0.448 10,1 C10,1.552 9.552,2 9,2 L9,2 L6,2 C3.794,2 2,3.794 2,6 C2,8.206 3.794,10 6,10 L6,10 L9,10 C9.552,10 10,10.447 10,11 C10,11.553 9.552,12 9,12 L9,12 L6,12 C2.691,12 0,9.309 0,6 C0,2.691 2.691,0 6,0 L6,0 Z M18,0 C21.309,0 24,2.691 24,6 C24,9.309 21.309,12 18,12 L18,12 L15,12 C14.447,12 14,11.553 14,11 C14,10.447 14.447,10 15,10 L15,10 L18,10 C20.206,10 22,8.206 22,6 C22,3.794 20.206,2 18,2 L18,2 L15,2 C14.447,2 14,1.552 14,1 C14,0.448 14.447,0 15,0 L15,0 Z M16,5 C16.553,5 17,5.448 17,6 C17,6.552 16.553,7 16,7 L16,7 L8,7 C7.448,7 7,6.552 7,6 C7,5.448 7.448,5 8,5 L8,5 Z" id="path-1"></path>
    </defs>
    <g id="DS---Website" stroke="none" stroke-width="1" fill="none" fill-rule="evenodd">
        <g id="Website-/-Desktop-/-Design-tokens-/-Icons-/-Specs-" transform="translate(-646.000000, -5269.000000)">
            <g id="Icons" transform="translate(590.000000, 784.000000)">
                <g id="Icons/Link/Link-1" transform="translate(56.000000, 4485.000000)">
                    <mask id="mask-2" fill="white">
                        <use xlink:href="#path-1"></use>
                    </mask>
                    <use id="Icon-Link-1" fill="#98989E" xlink:href="#path-1"></use>
                </g>
            </g>
        </g>
    </g>
</svg>
