<?xml version="1.0" encoding="UTF-8"?>
<svg width="15px" height="15px" viewBox="0 0 15 15" version="1.1" xmlns="http://www.w3.org/2000/svg" xmlns:xlink="http://www.w3.org/1999/xlink">
    <title>7C274133-7A73-44F0-A7F9-095490C9AF0A</title>
    <g id="1.0-Dash-" stroke="none" stroke-width="1" fill="none" fill-rule="evenodd">
        <g id="4.0-dash" transform="translate(-20.000000, -85.000000)" fill="#F2F2F9">
            <g id="Group" transform="translate(20.000000, 85.000000)">
                <g id="Group" transform="translate(1.250000, 3.125000)">
                    <path d="M3.359375,7.5 C3.57511123,7.5 3.75,7.67488877 3.75,7.890625 L3.75,8.359375 C3.75,8.57511123 3.57511123,8.75 3.359375,8.75 L0.390625,8.75 C0.17488877,8.75 2.64200684e-17,8.57511123 0,8.359375 L0,7.890625 C-2.64200684e-17,7.67488877 0.17488877,7.5 0.390625,7.5 L3.359375,7.5 Z M3.359375,3.75 C3.57511123,3.75 3.75,3.92488877 3.75,4.140625 L3.75,4.609375 C3.75,4.82511123 3.57511123,5 3.359375,5 L0.390625,5 C0.17488877,5 2.64200684e-17,4.82511123 0,4.609375 L0,4.140625 C-2.64200684e-17,3.92488877 0.17488877,3.75 0.390625,3.75 L3.359375,3.75 Z M3.359375,0 C3.57511123,-3.96301026e-17 3.75,0.17488877 3.75,0.390625 L3.75,0.859375 C3.75,1.07511123 3.57511123,1.25 3.359375,1.25 L0.390625,1.25 C0.17488877,1.25 2.64200684e-17,1.07511123 0,0.859375 L0,0.390625 C-2.64200684e-17,0.17488877 0.17488877,3.96301026e-17 0.390625,0 L3.359375,0 Z" id="Combined-Shape"></path>
                    <path d="M12.109375,7.5 C12.3251112,7.5 12.5,7.67488877 12.5,7.890625 L12.5,8.359375 C12.5,8.57511123 12.3251112,8.75 12.109375,8.75 L5.390625,8.75 C5.17488877,8.75 5,8.57511123 5,8.359375 L5,7.890625 C5,7.67488877 5.17488877,7.5 5.390625,7.5 L12.109375,7.5 Z M12.109375,3.75 C12.3251112,3.75 12.5,3.92488877 12.5,4.140625 L12.5,4.609375 C12.5,4.82511123 12.3251112,5 12.109375,5 L5.390625,5 C5.17488877,5 5,4.82511123 5,4.609375 L5,4.140625 C5,3.92488877 5.17488877,3.75 5.390625,3.75 L12.109375,3.75 Z M12.109375,0 C12.3251112,-4.22854631e-16 12.5,0.17488877 12.5,0.390625 L12.5,0.859375 C12.5,1.07511123 12.3251112,1.25 12.109375,1.25 L5.390625,1.25 C5.17488877,1.25 5,1.07511123 5,0.859375 L5,0.390625 C5,0.17488877 5.17488877,3.96301026e-17 5.390625,0 L12.109375,0 Z" id="Combined-Shape"></path>
                </g>
            </g>
        </g>
    </g>
</svg>