<?xml version="1.0" encoding="UTF-8"?>
<svg width="20px" height="22px" viewBox="0 0 20 22" version="1.1" xmlns="http://www.w3.org/2000/svg" xmlns:xlink="http://www.w3.org/1999/xlink">
    <defs>
        <path d="M10,0 C13.309,0 16,2.691 16,6 L16,9 L17,9 C18.654,9 20,10.346 20,12 L20,19 C20,20.654 18.654,22 17,22 L3,22 C1.346,22 0,20.654 0,19 L0,12 C0,10.346 1.346,9 3,9 L4,9 L4,6 C4,2.691 6.691,0 10,0 Z M17,11 L3,11 C2.449,11 2,11.449 2,12 L2,19 C2,19.552 2.449,20 3,20 L17,20 C17.552,20 18,19.552 18,19 L18,12 C18,11.449 17.552,11 17,11 Z M10,2 C7.794,2 6,3.794 6,6 L6,9 L14,9 L14,6 C14,3.794 12.206,2 10,2 Z" id="path-1"></path>
    </defs>
    <g id="Page-1" stroke="none" stroke-width="1" fill="none" fill-rule="evenodd">
        <g id="1.0-Dash-Copy-20" transform="translate(-649.000000, -418.000000)">
            <g id="Group-15-Copy" transform="translate(573.000000, 379.000000)">
                <g id="Icon/Miscellaneous/Settings" transform="translate(76.000000, 39.000000)">
                    <mask id="mask-2" fill="white">
                        <use xlink:href="#path-1"></use>
                    </mask>
                    <use id="Icon-Lock" fill="#98989E" xlink:href="#path-1"></use>
                </g>
            </g>
        </g>
    </g>
</svg>
