<?xml version="1.0" encoding="UTF-8"?>
<svg width="13px" height="16px" viewBox="0 0 13 16" version="1.1" xmlns="http://www.w3.org/2000/svg" xmlns:xlink="http://www.w3.org/1999/xlink">
    <defs>
        <path d="M5.25,0.625 C5.595,0.625 5.875,0.905 5.875,1.25 C5.875,1.595 5.595,1.875 5.25,1.875 L2.125,1.875 C1.780625,1.875 1.5,2.155625 1.5,2.5 L1.5,12.5 C1.5,12.845 1.780625,13.125 2.125,13.125 L5.25,13.125 C5.595,13.125 5.875,13.404375 5.875,13.75 C5.875,14.095625 5.595,14.375 5.25,14.375 L2.125,14.375 C1.09125,14.375 0.25,13.53375 0.25,12.5 L0.25,2.5 C0.25,1.46625 1.09125,0.625 2.125,0.625 L5.25,0.625 Z M10.066875,4.558125 L12.566875,7.058125 L12.5769427,7.06818793 C12.5939372,7.08597319 12.6098911,7.10476003 12.6247076,7.12445068 L12.566875,7.058125 C12.5960077,7.08725767 12.6216673,7.11853098 12.643854,7.15143454 C12.6808898,7.20635945 12.7094197,7.26764822 12.7275249,7.33325648 C12.7299724,7.34198766 12.7321712,7.35067317 12.7341804,7.35939318 C12.7397648,7.38385022 12.7440051,7.40923215 12.746671,7.43507993 C12.7477057,7.44397967 12.748398,7.45232675 12.7489228,7.4606823 C12.7495729,7.4731199 12.75,7.48651026 12.75,7.5 L12.7489228,7.5393177 C12.748398,7.54767325 12.7477057,7.55602033 12.746846,7.56435354 L12.75,7.5 C12.75,7.54847107 12.7444854,7.59565911 12.7340472,7.64096785 C12.7321712,7.64932683 12.7299724,7.65801234 12.7275842,7.66665686 C12.7094197,7.73235178 12.6808898,7.79364055 12.6438209,7.84870779 C12.6377776,7.85757698 12.6314407,7.86646621 12.6248433,7.87522268 C12.6098911,7.89523997 12.5939372,7.91402681 12.5769427,7.93181207 C12.5737717,7.93489852 12.570348,7.93840197 12.566875,7.941875 L10.066875,10.441875 C9.945,10.56375 9.785,10.625 9.625,10.625 C9.465,10.625 9.305,10.56375 9.183125,10.441875 C8.93875,10.1975 8.93875,9.8025 9.183125,9.558125 L10.615,8.125 L4.625,8.125 C4.28,8.125 4,7.845 4,7.5 C4,7.155 4.28,6.875 4.625,6.875 L10.617,6.875 L9.183125,5.441875 C8.93875,5.1975 8.93875,4.8025 9.183125,4.558125 C9.4275,4.31375 9.8225,4.31375 10.066875,4.558125 Z" id="path-1"></path>
    </defs>
    <g id="ADICIONAR-EMPRESA" stroke="none" stroke-width="1" fill="none" fill-rule="evenodd">
        <g id="1.0-Add-Empresa" transform="translate(-40.000000, -914.000000)">
            <g id="Group-2" transform="translate(39.000000, 914.000000)">
                <g id="Icon/Miscellaneous/Logout" transform="translate(1.000000, 0.551724)">
                    <mask id="mask-2" fill="white">
                        <use xlink:href="#path-1"></use>
                    </mask>
                    <use id="Icon-Logout" fill="#98989E" xlink:href="#path-1"></use>
                </g>
            </g>
        </g>
    </g>
</svg>
