<?xml version="1.0" encoding="UTF-8"?>
<svg width="21.65px" height="15px" viewBox="0 0 13 13" version="1.1" xmlns="http://www.w3.org/2000/svg" xmlns:xlink="http://www.w3.org/1999/xlink">
    <!-- Generator: Sketch 62 (91390) - https://sketch.com -->
    <path d="M11.9421563,1.69102635 C12.1952592,1.88457564 12.2592928,2.23369465 12.1027287,2.50192166 L12.0589736,2.56715632 L3.93397365,13.1921563 C3.72429525,13.4663511 3.33203851,13.518652 3.05784368,13.3089736 C2.80474077,13.1154244 2.74070723,12.7663054 2.89727131,12.4980783 L2.94102635,12.4328437 L4.10150283,10.9165165 C3.66247902,10.6446971 3.25205087,10.3205577 2.8702296,9.95126975 C2.43442525,9.52977072 2.0650414,9.07598544 1.75845208,8.61661094 C1.56462663,8.32619486 1.42958269,8.08622788 1.34796457,7.91807701 C1.21734514,7.64897289 1.21734514,7.35102711 1.34796457,7.08192299 C1.42958269,6.91377212 1.56462663,6.67380514 1.75845208,6.38338906 C2.0650414,5.92401456 2.43442525,5.47022928 2.8702296,5.04873025 C4.11135453,3.84834536 5.65473983,3.125 7.5,3.125 C8.30994077,3.125 9.06172236,3.26435964 9.75531218,3.52225024 L11.0660264,1.80784368 C11.2757047,1.53364886 11.6679615,1.48134796 11.9421563,1.69102635 Z M11.5114265,4.51066442 C11.7252633,4.67715993 11.9313785,4.85685054 12.1297704,5.04873025 C12.5655747,5.47022928 12.9349586,5.92401456 13.2415479,6.38338906 C13.4353734,6.67380514 13.5704173,6.91377212 13.6520354,7.08192299 C13.7639949,7.31258366 13.7799892,7.56443413 13.7093289,7.78047056 L13.6668206,7.88524037 L13.6257747,7.97776906 C13.3985085,8.46266904 12.844374,9.27156391 12.1289996,9.96108651 C10.8898577,11.1554492 9.34563219,11.875 7.5,11.875 C6.97854561,11.875 6.48119829,11.8172352 6.00796674,11.7072641 L6.8629307,10.5884247 C7.07004482,10.6126258 7.28237202,10.625 7.5,10.625 C8.99577729,10.625 10.2409319,10.0448049 11.2615275,9.06109091 C11.7561065,8.58438464 12.1588594,8.03822358 12.3821299,7.65518804 L12.4572719,7.51965047 L12.464375,7.504375 L12.4145827,7.4126483 C12.2322292,7.08822874 11.9595262,6.69496911 11.5939362,6.29141079 L11.4033889,6.08904443 L11.2607567,5.94723749 C11.0967479,5.78861229 10.927045,5.64042967 10.751531,5.50341975 L11.5114265,4.51066442 Z M9.85942145,6.67142447 C9.95047937,6.93072792 10,7.20958088 10,7.5 C10,8.88071187 8.88071187,10 7.5,10 C7.43893995,10 7.37839117,9.99781098 7.31842786,9.99350713 L9.85942145,6.67142447 Z M7.5,4.375 C6.00608921,4.375 4.76195973,4.95809178 3.73924326,5.94723749 C3.26938162,6.40167588 2.91755164,6.86404312 2.68016042,7.25144856 L2.5854173,7.4126483 L2.5375,7.5 L2.5854173,7.5873517 C2.76777078,7.91177126 3.04047377,8.30503089 3.40606377,8.70858921 L3.59661109,8.91095557 L3.73924326,9.05276251 C4.08853607,9.39058975 4.46365576,9.68105255 4.86573249,9.91709796 L5.53283695,9.04298607 C5.19905883,8.61804309 5,8.08226788 5,7.5 C5,6.11928813 6.11928813,5 7.5,5 C7.8459225,5 8.17543546,5.07025762 8.47504782,5.19728179 L8.9512681,4.5739564 C8.49617884,4.44370567 8.01280528,4.375 7.5,4.375 Z M7.5,6.25 C6.80964406,6.25 6.25,6.80964406 6.25,7.5 C6.25,7.67009828 6.28397548,7.83226117 6.34551038,7.98007258 L7.66045459,6.26020244 C7.60791999,6.25347064 7.5543653,6.25 7.5,6.25 Z" id="path-no-view"></path>
    <g id="Permissions" stroke="none" stroke-width="1" fill="currentColor" fill-rule="evenodd">
        <g id="Permissions---1.0---Create-user" transform="translate(-1053.000000, -370.000000)">
            <g id="Icon/Miscellaneous/no-view" transform="translate(1052.000000, 369.000000)">
                <mask id="mask-no-view" fill="currentColor">
                    <use xlink:href="#path-no-view"></use>
                </mask>
                <use id="icon-card-git" fill="currentColor" fill-rule="evenodd" xlink:href="#path-no-view"></use>
            </g>
        </g>
    </g>
</svg>
