<?xml version="1.0" encoding="UTF-8"?>
<svg width="7px" height="11px" viewBox="0 0 7 11" version="1.1" xmlns="http://www.w3.org/2000/svg" xmlns:xlink="http://www.w3.org/1999/xlink">
    <defs>
        <path d="M2.66666667,7.33333333 C2.496,7.33333333 2.32533333,7.268 2.19533333,7.138 L-1.80466667,3.138 C-2.06533333,2.87733333 -2.06533333,2.456 -1.80466667,2.19533333 C-1.544,1.93466667 -1.12266667,1.93466667 -0.862,2.19533333 L2.66666667,5.724 L6.19533333,2.19533333 C6.456,1.93466667 6.87733333,1.93466667 7.138,2.19533333 C7.39866667,2.456 7.39866667,2.87733333 7.138,3.138 L3.138,7.138 C3.008,7.268 2.83733333,7.33333333 2.66666667,7.33333333" id="path-1"></path>
    </defs>
    <g id="1.0-Dash-" stroke="none" stroke-width="1" fill="none" fill-rule="evenodd">
        <g id="7.0-Dash" transform="translate(-1455.000000, -1815.000000)">
            <g id="Group-11" transform="translate(473.000000, 1337.000000)">
                <g id="Pagination-/-1---Table-bar-/-1---Advanced" transform="translate(615.000000, 473.000000)">
                    <g id="Icons/Chevron/Left" transform="translate(367.000000, 5.000000)">
                        <g transform="translate(0.666667, 0.333333)">
                            <mask id="mask-2" fill="white">
                                <use xlink:href="#path-1"></use>
                            </mask>
                            <use id="Icon-Chevron-Left" fill="#B9B9BE" transform="translate(2.666667, 4.666583) rotate(90.000000) translate(-2.666667, -4.666583) " xlink:href="#path-1"></use>
                        </g>
                    </g>
                </g>
            </g>
        </g>
    </g>
</svg>
