<?xml version="1.0" encoding="UTF-8"?>
<svg width="15px" height="15px" viewBox="0 0 22 22" version="1.1" xmlns="http://www.w3.org/2000/svg" xmlns:xlink="http://www.w3.org/1999/xlink">
    <defs>
        <path d="M6.59997095,0.9137 C7.10797095,0.6927 7.69597095,0.9247 7.91697095,1.4297 C8.13797095,1.9367 7.90697095,2.5257 7.39997095,2.7467 C5.27797095,3.6727 3.61297095,5.3567 2.70997095,7.4897 C0.77797095,12.0607 2.92397095,17.3517 7.49497095,19.2847 C12.0649709,21.2137 17.3559709,19.0717 19.2889709,14.4997 C19.5039709,13.9907 20.0919709,13.7537 20.5999709,13.9687 C21.1089709,14.1837 21.3459709,14.7707 21.1309709,15.2797 C19.3589709,19.4717 15.2739709,21.9947 10.9839709,21.9947 C9.55797095,21.9947 8.10997095,21.7167 6.71597095,21.1267 C1.12897095,18.7647 -1.49402905,12.2977 0.86897095,6.7107 C1.97097095,4.1037 4.00697095,2.0447 6.59997095,0.9137 Z M11.0003709,0 C17.0653709,0 22.0003709,4.935 22.0003709,11 C22.0003709,11.552 21.5533709,12 21.0003709,12 L21.0003709,12 L11.0003709,12 C10.4483709,12 10.0003709,11.552 10.0003709,11 L10.0003709,11 L10.0003709,1 C10.0003709,0.448 10.4483709,0 11.0003709,0 Z M12.0003709,2.055 L12.0003709,10 L19.9443709,10 C19.4823709,5.835 16.1653709,2.518 12.0003709,2.055 L12.0003709,2.055 Z" id="path-1"></path>
    </defs>
    <g id="DS---Website" stroke="none" stroke-width="1" fill="none" fill-rule="evenodd">
        <g id="Website-/-Desktop-/-Design-tokens-/-Icons-/-Specs-" transform="translate(-987.000000, -2282.000000)">
            <g id="Icons" transform="translate(874.000000, 938.000000)">
                <g id="Icons/Charts/Pie" transform="translate(113.000000, 1344.000000)">
                    <mask id="mask-2" fill="white">
                        <use xlink:href="#path-1"></use>
                    </mask>
                    <use id="Icon-Pie-Chart" fill="#B9B9BE" xlink:href="#path-1"></use>
                </g>
            </g>
        </g>
    </g>
</svg>
