<?xml version="1.0" encoding="UTF-8"?>
<svg width="15px" height="15px" viewBox="0 0 18 22" version="1.1" xmlns="http://www.w3.org/2000/svg" xmlns:xlink="http://www.w3.org/1999/xlink">
    <defs>
        <path d="M2,3.781 L2,11 C2,15.549 7.39,18.948 8.999,19.863 C10.607,18.947 16,15.536 16,11 L16,3.781 L9,2.031 L2,3.781 Z M9,22 C8.847,22 8.693,21.965 8.553,21.895 C8.204,21.72 0,17.543 0,11 L0,3 C0,2.541 0.313,2.141 0.757,2.03 L8.757,0.03 C8.917,-0.01 9.083,-0.01 9.243,0.03 L17.242,2.03 C17.688,2.141 18,2.541 18,3 L18,11 C18,17.543 9.796,21.72 9.447,21.895 C9.307,21.965 9.153,22 9,22 L9,22 Z" id="path-1"></path>
    </defs>
    <g id="DS---Website" stroke="none" stroke-width="1" fill="none" fill-rule="evenodd">
        <g id="Website-/-Desktop-/-Design-tokens-/-Icons-/-Specs-" transform="translate(-989.000000, -7882.000000)">
            <g id="Icons" transform="translate(874.000000, 938.000000)">
                <g id="Icons/Security/Shield" transform="translate(115.000000, 6944.000000)">
                    <mask id="mask-2" fill="white">
                        <use xlink:href="#path-1"></use>
                    </mask>
                    <use id="Icon-Shield" fill="#B9B9BE" xlink:href="#path-1"></use>
                </g>
            </g>
        </g>
    </g>
</svg>
