<?xml version="1.0" encoding="UTF-8"?>
<svg width="15px" height="15px" viewBox="0 0 24 20" version="1.1" xmlns="http://www.w3.org/2000/svg" xmlns:xlink="http://www.w3.org/1999/xlink">
    <defs>
        <path d="M13,12 C15.757,12 18,14.243 18,17 L18,19 C18,19.553 17.553,20 17,20 C16.447,20 16,19.553 16,19 L16,17 C16,15.346 14.654,14 13,14 L5,14 C3.346,14 2,15.346 2,17 L2,19 C2,19.553 1.552,20 1,20 C0.448,20 0,19.553 0,19 L0,17 C0,14.243 2.243,12 5,12 L13,12 Z M20.25,12.162 C22.457,12.732 23.999,14.722 23.9999955,16.999 L23.9999955,19 C23.9999955,19.553 23.553,20 22.9999955,20 C22.447,20 21.9999955,19.553 21.9999955,19 L21.9999955,17 C21.999,15.634 21.074,14.44 19.75,14.098 C19.215,13.96 18.894,13.414 19.032,12.88 C19.17,12.345 19.715,12.02 20.25,12.162 Z M9,0 C11.757,0 14,2.243 14,5 C14,7.757 11.757,10 9,10 C6.243,10 4,7.757 4,5 C4,2.243 6.243,0 9,0 Z M16.248,0.1609 C18.919,0.8449 20.535,3.5739 19.852,6.2449 C19.398,8.0149 18.018,9.3959 16.248,9.8489 C16.165,9.8699 16.081,9.8799 15.999,9.8799 C15.554,9.8799 15.146,9.5799 15.031,9.1279 C14.895,8.5929 15.217,8.0479 15.752,7.9109 C16.813,7.6389 17.643,6.8109 17.914,5.7489 C18.324,4.1469 17.354,2.5089 15.752,2.0989 C15.217,1.9619 14.895,1.4169 15.031,0.8819 C15.168,0.3469 15.715,0.0229 16.248,0.1609 Z M9,2 C7.346,2 6,3.346 6,5 C6,6.654 7.346,8 9,8 C10.654,8 12,6.654 12,5 C12,3.346 10.654,2 9,2 Z" id="path-1"></path>
    </defs>
    <g id="DS---Website" stroke="none" stroke-width="1" fill="none" fill-rule="evenodd">
        <g id="Website-/-Desktop-/-Design-tokens-/-Icons-/-Specs-" transform="translate(-930.000000, -8779.000000)">
            <g id="Icons" transform="translate(874.000000, 938.000000)">
                <g id="Icons/User/Group" transform="translate(56.000000, 7841.000000)">
                    <mask id="mask-2" fill="white">
                        <use xlink:href="#path-1"></use>
                    </mask>
                    <use id="Icon-User-Group" fill="#B9B9BE" xlink:href="#path-1"></use>
                </g>
            </g>
        </g>
    </g>
</svg>
