<?xml version="1.0" encoding="UTF-8"?>
<svg width="21.65px" height="15px" viewBox="0 0 13 13" version="1.1" xmlns="http://www.w3.org/2000/svg" xmlns:xlink="http://www.w3.org/1999/xlink">
    <defs>
        <path d="M7.5,3.125 C9.34526017,3.125 10.8886455,3.84834536 12.1297704,5.04873025 C12.5655747,5.47022928 12.9349586,5.92401456 13.2415479,6.38338906 C13.4353734,6.67380514 13.5704173,6.91377212 13.6520354,7.08192299 C13.7826549,7.35102711 13.7826549,7.64897289 13.6668206,7.88524037 L13.6668206,7.88524037 L13.6257747,7.97776906 C13.3985085,8.46266904 12.844374,9.27156391 12.1289996,9.96108651 C10.8898577,11.1554492 9.34563219,11.875 7.5,11.875 C5.65473983,11.875 4.11135453,11.1516546 2.8702296,9.95126975 C2.43442525,9.52977072 2.0650414,9.07598544 1.75845208,8.61661094 C1.56462663,8.32619486 1.42958269,8.08622788 1.34796457,7.91807701 C1.21734514,7.64897289 1.21734514,7.35102711 1.34796457,7.08192299 C1.42958269,6.91377212 1.56462663,6.67380514 1.75845208,6.38338906 C2.0650414,5.92401456 2.43442525,5.47022928 2.8702296,5.04873025 C4.11135453,3.84834536 5.65473983,3.125 7.5,3.125 Z M7.5,4.375 C6.00608921,4.375 4.76195973,4.95809178 3.73924326,5.94723749 C3.20225853,6.46659565 2.8194376,6.99630986 2.5854173,7.4126483 L2.5854173,7.4126483 L2.5375,7.5 L2.5854173,7.5873517 C2.79816303,7.96584119 3.13388448,8.43802966 3.59661109,8.91095557 L3.59661109,8.91095557 L3.73924326,9.05276251 C4.76195973,10.0419082 6.00608921,10.625 7.5,10.625 C8.99577729,10.625 10.2409319,10.0448049 11.2615275,9.06109091 C11.8179289,8.52479635 12.2581128,7.90059809 12.4572719,7.51965047 L12.4572719,7.51965047 L12.464375,7.504375 L12.4145827,7.4126483 C12.201837,7.03415881 11.8661155,6.56197034 11.4033889,6.08904443 L11.4033889,6.08904443 L11.2607567,5.94723749 C10.2380403,4.95809178 8.99391079,4.375 7.5,4.375 Z M7.5,5 C8.88071187,5 10,6.11928813 10,7.5 C10,8.88071187 8.88071187,10 7.5,10 C6.11928813,10 5,8.88071187 5,7.5 C5,6.11928813 6.11928813,5 7.5,5 Z M7.5,6.25 C6.80964406,6.25 6.25,6.80964406 6.25,7.5 C6.25,8.19035594 6.80964406,8.75 7.5,8.75 C8.19035594,8.75 8.75,8.19035594 8.75,7.5 C8.75,6.80964406 8.19035594,6.25 7.5,6.25 Z" id="path-view"></path>
    </defs>
    <g id="Permissions" stroke="none" stroke-width="1" fill="currentColor" fill-rule="evenodd">
        <g id="Permissions---1.0---Create-user" transform="translate(-1107.000000, -377.000000)">
            <g id="Icon/Miscellaneous/view" transform="translate(1106.000000, 374.000000)">
                <mask id="mask-view" fill="currentColor">
                    <use xlink:href="#path-view"></use>
                </mask>
                <use id="icon-card-view" fill="currentColor" fill-rule="evenodd" xlink:href="#path-view"></use>
            </g>
        </g>
    </g>
</svg>
