<?xml version="1.0" encoding="UTF-8"?>
<svg width="23px" height="21px" viewBox="0 0 23 21" version="1.1" xmlns="http://www.w3.org/2000/svg" xmlns:xlink="http://www.w3.org/1999/xlink">
    <defs>
        <path d="M14.0121,1.442 L22.4851,15.588 C22.7501,16.048 22.8901,16.555 22.8962936,17.068 C22.9051,17.871 22.6001,18.627 22.0391,19.2 C21.4791,19.772 20.7291,20.093 19.9281,20.102 L2.9771,20.102 C2.4511,20.096 1.9451,19.957 1.4991,19.7 C0.0671,18.872 -0.4259,17.033 0.4021,15.602 L8.8801,1.448 C8.8811,1.446 8.8821,1.444 8.8831,1.442 C9.1331,1.031 9.4821,0.682 9.8921,0.434 C11.3051,-0.423 13.1551,0.029 14.0121,1.442 Z M10.9291,2.144 C10.7931,2.226 10.6761,2.342 10.5931,2.479 L2.1251,16.615 C1.8581,17.079 2.0221,17.692 2.5001,17.968 C2.6471,18.054 2.8171,18.1 2.9891,18.102 L19.9171,18.102 C20.1741,18.099 20.4231,17.992 20.6111,17.801 C20.7971,17.61 20.8991,17.357 20.8961643,17.091 C20.8941,16.92 20.8471,16.751 20.7611,16.602 L12.3001,2.475 C12.0161,2.009 11.4011,1.858 10.9291,2.144 Z M12.1576,14.3936 C12.2476,14.4836 12.3176,14.5936 12.3676,14.7236 C12.4176,14.8436 12.4476,14.9736 12.4476,15.1036 C12.4476,15.3736 12.3476,15.6236 12.1576,15.8036 C11.9676,15.9936 11.7176,16.1036 11.4476,16.1036 C11.1776,16.1036 10.9276,15.9936 10.7376,15.8036 C10.6476,15.7126 10.5776,15.6036 10.5276,15.4836 C10.4776,15.3636 10.4476,15.2336 10.4476,15.1036 C10.4476,14.9736 10.4776,14.8436 10.5276,14.7236 C10.5776,14.5936 10.6476,14.4836 10.7376,14.3936 C11.1176,14.0236 11.7876,14.0236 12.1576,14.3936 Z M11.4476,6.1016 C11.9996,6.1016 12.4476,6.5496 12.4476,7.1016 L12.4476,11.1016 C12.4476,11.6546 11.9996,12.1016 11.4476,12.1016 C10.8956,12.1016 10.4476,11.6546 10.4476,11.1016 L10.4476,7.1016 C10.4476,6.5496 10.8956,6.1016 11.4476,6.1016 Z" id="path-1"></path>
    </defs>
    <g id="DS---Website" stroke="none" stroke-width="1" fill="none" fill-rule="evenodd">
        <g id="Website-/-Desktop-/-Design-tokens-/-Icons-/-Specs-" transform="translate(-703.000000, -785.000000)">
            <g id="Icons" transform="translate(590.000000, 784.000000)">
                <g id="Icons/Alert/Alert-Triangle" transform="translate(113.000000, 1.000000)">
                    <mask id="mask-2" fill="white">
                        <use xlink:href="#path-1"></use>
                    </mask>
                    <use id="Icon-Alert-Triangle" fill="#ffffff" xlink:href="#path-1"></use>
                </g>
            </g>
        </g>
    </g>
</svg>
