<?xml version="1.0" encoding="UTF-8"?>
<svg width="19px" height="17px" viewBox="0 0 19 17" version="1.1" xmlns="http://www.w3.org/2000/svg" xmlns:xlink="http://www.w3.org/1999/xlink">
    <g id="Webhock" stroke="none" stroke-width="1" fill="none" fill-rule="evenodd">
        <g id="1.0-Webhook" transform="translate(-149.000000, -12.000000)" fill="#98989E" fill-rule="nonzero" stroke="#98989E" stroke-width="0.6">
            <g id="ic_webhook" transform="translate(150.000000, 13.000000)">
                <path d="M1.26653196,9.84064238 L1.83044675,10.6142807 C1.31850529,10.9552258 0.983257933,11.5236305 0.983257933,12.1672305 C0.983257933,13.2102275 1.86369707,14.0557435 2.94977381,14.0557435 C3.91868116,14.0557435 4.72392723,13.3828205 4.88639529,12.4970869 L4.88639529,12.4970869 L4.88639529,11.6330287 L13.2498652,11.6330287 C13.4271107,11.385374 13.7241852,11.222974 14.0607569,11.222974 C14.6037952,11.222974 15.0440148,11.6457321 15.0440148,12.1672305 C15.0440148,12.688729 14.6037952,13.111487 14.0607569,13.111487 C13.6975557,13.111487 13.380349,12.9223722 13.2100845,12.6410864 L13.2100845,12.6410864 L5.85846046,12.6410864 L5.8283841,12.7885066 C5.53348046,14.0541572 4.35664613,15 2.94977381,15 C1.32065872,15 0,13.7317259 0,12.1672305 C0,11.2036132 0.50101558,10.3523727 1.26653196,9.84064238 L1.26653196,9.84064238 Z M8.02140165,2.02327375 C8.49003214,1.76226506 9.08707466,1.91349504 9.35493342,2.36105533 C9.53001098,2.65358932 9.5211216,3.00031521 9.36309818,3.27829898 L9.36309818,3.27829898 L13.0316254,9.40797375 L13.1853909,9.35541672 C14.473408,8.9534662 15.9153759,9.44909267 16.6130138,10.614763 C17.41659,11.957444 16.9283172,13.6806699 15.5224258,14.4636959 C14.65705,14.9456762 13.6457146,14.9590848 12.8085758,14.585017 L12.8085758,14.585017 L13.2256275,13.7330493 C13.784218,13.9836022 14.4596237,13.9751287 15.0374247,13.6533164 C15.9746856,13.131299 16.3002008,11.9824817 15.7644832,11.087361 C15.2287657,10.1922404 14.0346808,9.88978052 13.0974198,10.4117979 C13.0933326,10.4140743 13.0892569,10.4163627 13.0851929,10.4186629 L13.0851929,10.4186629 L13.0768434,10.4047119 L12.5844669,10.6789461 L8.4500065,3.7707522 C8.13131083,3.75544936 7.82810948,3.59069743 7.65787236,3.30625139 C7.3900136,2.85869108 7.55277124,2.28428242 8.02140165,2.02327375 Z M10.0051146,0.379882321 C10.8137506,0.830260678 11.3162745,1.59578807 11.4424033,2.42308223 L11.4625897,2.58928953 L10.4869099,2.67180847 C10.4332559,2.07829385 10.0903907,1.51878409 9.51522065,1.1984371 C8.5786107,0.676782309 7.3806724,0.986856449 6.83955051,1.8910071 C6.30961986,2.77645848 6.60614233,3.90329977 7.49832596,4.43948435 L8.03749342,4.73977939 L3.86123383,11.717815 C3.97990886,11.9569227 3.99270759,12.2405853 3.87958228,12.496527 C3.74155019,12.8569596 3.38197919,13.1139488 2.9601452,13.1139488 C2.41902332,13.1139488 1.98035735,12.6910641 1.98035735,12.1694093 C1.98035735,12.0283462 2.01243442,11.8945055 2.06994037,11.7742963 C2.08692854,11.7337793 2.10703387,11.6939128 2.13033481,11.6549797 C2.3109899,11.3531264 2.63805952,11.183702 2.97488523,11.182079 L6.66212316,5.02114081 C5.57561205,4.15621273 5.26337796,2.63552578 5.99160933,1.41873733 C6.80329218,0.062511363 8.60019968,-0.402599863 10.0051146,0.379882321 Z" id="Combined-Shape"></path>
            </g>
        </g>
    </g>
</svg>
