<?xml version="1.0" encoding="UTF-8"?>
<svg width="42px" height="20px" viewBox="0 0 42 20" version="1.1" xmlns="http://www.w3.org/2000/svg" xmlns:xlink="http://www.w3.org/1999/xlink">
    <g id="Login-temporário" stroke="none" stroke-width="1" fill="none" fill-rule="evenodd">
        <g id="Login---Temporário-0.0" transform="translate(-362.000000, -941.000000)" fill="#F2F2F9">
            <path d="M371.296473,953.275572 C372.054503,953.275572 372.668016,953.886509 372.668016,954.639558 C372.668016,954.819653 372.646492,955.274476 372.183323,955.716263 L367.529949,960.419964 C367.195276,960.732836 366.881642,961 366.350502,961 C365.530166,961 364.865837,960.339332 364.865837,959.523354 C364.865837,958.908554 365.326255,958.446489 365.326255,958.445845 C365.412189,958.358775 369.027237,954.877753 369.027237,954.877753 L370.230149,953.744397 C370.230149,953.744397 370.389393,953.59633 370.585374,953.473531 C370.781194,953.350893 371.036568,953.275572 371.296473,953.275572 Z M393.324426,945.714565 C393.654568,945.714565 393.948782,945.831409 394.178586,946.051256 C394.415026,946.278024 394.539314,946.579308 394.539314,946.92115 L394.539314,946.92115 L394.539314,952.446622 C394.539314,952.774075 394.501837,953.087861 394.427278,953.386575 C394.330126,953.776883 394.169853,954.14094 393.946775,954.476218 C393.689937,954.864747 393.364152,955.199599 392.974626,955.475598 C392.777099,955.615551 392.563428,955.740484 392.334002,955.849748 C391.844365,956.083863 391.299531,956.232763 390.708268,956.295103 C390.495698,956.31745 390.277676,956.328664 390.05402,956.328664 L390.05402,956.328664 C389.228408,956.328713 388.477822,956.166322 387.827896,955.846529 C387.160817,955.519816 386.629839,955.057751 386.250501,954.470633 C385.86922,953.878204 385.675181,953.197901 385.675181,952.446622 L385.675181,952.446622 L385.675181,946.92115 C385.675181,946.587838 385.790892,946.291543 386.008882,946.066546 C386.233346,945.836398 386.532901,945.714565 386.876636,945.714565 C387.204997,945.714565 387.501154,945.831409 387.730796,946.051256 C387.967397,946.278024 388.091686,946.579308 388.091686,946.92115 L388.091686,946.92115 L388.091686,952.446622 C388.091686,952.756114 388.166615,953.01845 388.31971,953.248759 C388.479602,953.489046 388.697431,953.673486 388.98679,953.812218 C389.287801,953.95771 389.646911,954.030456 390.053761,954.030456 C390.479223,954.030456 390.856943,953.956101 391.176727,953.808838 C391.481461,953.666726 391.709323,953.482286 391.876174,953.241999 C392.034448,953.013461 392.111157,952.752896 392.111157,952.446622 L392.111157,952.446622 L392.111157,946.92115 C392.111157,946.825858 392.120585,946.733781 392.139222,946.645641 C392.186989,946.420379 392.294452,946.220811 392.458388,946.058933 C392.525137,945.992647 392.59809,945.935637 392.676482,945.888183 C392.864294,945.773563 393.084123,945.714565 393.324426,945.714565 Z M371.261808,945.72971 L371.344043,945.740055 C371.361365,945.742651 371.378591,945.745539 371.395715,945.748715 C371.413718,945.751827 371.431841,945.755535 371.449903,945.759576 C371.478309,945.766153 371.506196,945.773246 371.53376,945.781098 C371.555863,945.787161 371.577568,945.793871 371.599142,945.80108 C371.618135,945.807695 371.63731,945.814547 371.6563,945.821769 C371.680264,945.830568 371.703619,945.840115 371.726769,945.850267 C371.747441,945.859714 371.767768,945.869197 371.787842,945.879112 C371.810031,945.889639 371.832135,945.901226 371.853999,945.913396 C371.874892,945.925486 371.895689,945.937731 371.916157,945.950451 C371.932756,945.960295 371.949058,945.970868 371.965194,945.981786 C371.986154,945.996434 372.006635,946.011047 372.026724,946.026148 C372.081426,946.066837 372.134438,946.112628 372.18478,946.162693 C372.236125,946.213755 372.282998,946.267582 372.3254,946.323692 C372.337939,946.340762 372.35035,946.357936 372.362401,946.375375 C372.37619,946.394803 372.389483,946.41507 372.402234,946.435577 C372.413735,946.454608 372.424782,946.473263 372.435429,946.492172 C372.448031,946.514062 372.460047,946.536783 372.471438,946.559735 C372.480578,946.578526 372.489529,946.597509 372.498087,946.616703 C372.507444,946.637448 372.516132,946.658263 372.52433,946.679224 C372.533059,946.701628 372.541308,946.724252 372.549017,946.747121 C372.55525,946.765724 372.56107,946.784242 372.566522,946.802845 C372.575405,946.832802 372.583452,946.863787 372.590513,946.895142 C372.594437,946.913105 372.59808,946.930814 372.6014,946.948572 C372.604356,946.96376 372.606947,946.978921 372.609308,946.994157 C372.631412,947.137472 372.632768,947.283128 372.613301,947.426526 C372.610057,947.451622 372.606094,947.476209 372.601538,947.500588 C372.59852,947.51574 372.595396,947.53111 372.592029,947.546438 C372.584649,947.58084 372.576077,947.614168 372.566406,947.64703 C372.563655,947.655853 372.560687,947.665611 372.557616,947.675345 C372.547353,947.708209 372.536162,947.739762 372.52396,947.770812 C372.518933,947.783475 372.513743,947.7962 372.508371,947.808865 C372.495831,947.838405 372.482406,947.867338 372.4681,947.895757 C372.457959,947.916061 372.447478,947.935794 372.436524,947.955335 C372.425638,947.974528 372.414179,947.993917 372.402301,948.013022 C372.389483,948.033893 372.37619,948.054164 372.362354,948.074176 C372.35035,948.091303 372.337939,948.108478 372.325177,948.125376 C372.309157,948.146788 372.292257,948.167952 372.274702,948.188754 C372.250584,948.217203 372.225779,948.244514 372.200008,948.270887 C372.195078,948.27601 372.189951,948.281182 372.18478,948.286327 L367.175,953.267 L370.29218,953.26746 C370.249132,953.300132 370.208673,953.335056 370.169671,953.371429 L370.099435,953.442083 L370.035997,953.508069 L369.908795,953.641651 C369.908795,953.641651 367.481123,956.102621 367.318804,956.270162 L363.531241,956.270162 C363.436106,956.270162 363.343025,956.261409 363.252768,956.244671 C363.234389,956.241365 363.216267,956.237657 363.198206,956.233616 C363.169785,956.227145 363.141519,956.219945 363.113584,956.211963 C363.096308,956.207172 363.079605,956.20209 363.062978,956.196713 C363.036737,956.188032 363.010721,956.178797 362.985045,956.168884 C362.961228,956.159969 362.937166,956.149991 362.913325,956.139367 C362.896871,956.131684 362.881217,956.124356 362.865713,956.116771 C362.843087,956.106112 362.820019,956.094117 362.79721,956.081488 C362.77292,956.067576 362.749566,956.053778 362.726628,956.039383 C362.712782,956.031171 362.698772,956.022059 362.684885,956.012692 C362.65299,955.990707 362.621918,955.967977 362.591784,955.944126 C362.585452,955.93955 362.579181,955.934501 362.572943,955.929394 C362.498918,955.868447 362.430644,955.80089 362.369281,955.727421 L362.463412,955.8305 C362.414167,955.781527 362.369035,955.730014 362.328015,955.676386 C362.313592,955.65688 362.299259,955.63715 362.285405,955.617068 C362.2715,955.597659 362.258437,955.577727 362.245898,955.557564 C362.234304,955.538111 362.222845,955.518724 362.211818,955.499065 C362.200641,955.479979 362.190157,955.460248 362.180145,955.440341 C362.168666,955.416686 362.157539,955.393067 362.147022,955.369123 C362.138827,955.351258 362.131307,955.333131 362.124158,955.314893 C362.114738,955.290129 362.105603,955.264909 362.097138,955.239386 C362.090063,955.218744 362.083882,955.198619 362.078136,955.178398 C362.068449,955.143647 362.059616,955.107647 362.052114,955.071165 C362.050071,955.062238 362.048431,955.053896 362.046863,955.045544 C362.030296,954.956074 362.021492,954.863503 362.021492,954.768892 C362.021492,954.675008 362.030161,954.583132 362.046747,954.494014 C362.050876,954.470186 362.056067,954.44566 362.061879,954.421251 C362.068159,954.396211 362.074695,954.371652 362.081833,954.347347 C362.086184,954.331329 362.091082,954.315588 362.096246,954.299915 C362.104803,954.275186 362.113568,954.250835 362.122938,954.226784 C362.131316,954.203997 362.140951,954.180902 362.15119,954.15801 C362.159844,954.139946 362.168169,954.12233 362.176825,954.104905 C362.189768,954.077543 362.204247,954.050449 362.219618,954.023725 C362.226445,954.013087 362.232806,954.002355 362.239295,953.99171 C362.255019,953.964696 362.272402,953.938086 362.290719,953.911925 C362.300816,953.898593 362.310315,953.885486 362.320019,953.872539 C362.362412,953.814949 362.410542,953.759444 362.463412,953.706865 L367.471,948.726 L364.411003,948.726086 C364.441428,948.702749 364.471043,948.677159 364.500012,948.651569 C364.601481,948.557579 364.676411,948.47067 364.762992,948.382152 L364.804182,948.34031 C365.125131,948.014281 367.217478,945.888722 367.378067,945.723223 L371.096094,945.722981 C371.151388,945.722222 371.206715,945.724464 371.261808,945.72971 Z M383.334284,945.715369 L383.356294,945.715553 C383.382296,945.716024 383.408303,945.717357 383.434268,945.719559 L383.334284,945.715369 C383.382388,945.715369 383.42981,945.718271 383.476384,945.723906 C383.502091,945.727015 383.527818,945.731005 383.553434,945.735863 C383.570299,945.739045 383.58695,945.742582 383.603464,945.746469 C383.622899,945.75107 383.642382,945.756191 383.66176,945.76183 C383.680984,945.767393 383.699935,945.773443 383.718668,945.779957 C383.737909,945.786688 383.756651,945.793759 383.775252,945.801336 C383.795186,945.809412 383.815158,945.818206 383.834825,945.827534 C383.84966,945.834617 383.864333,945.841963 383.87889,945.849644 C383.900548,945.861022 383.92125,945.872782 383.941541,945.885142 C383.956729,945.894459 383.972803,945.904778 383.988688,945.915539 C384.007732,945.92836 384.02532,945.941028 384.042528,945.954162 C384.048642,945.958923 384.055506,945.964271 384.062327,945.969707 L384.090376,945.992716 C384.104617,946.004821 384.11856,946.017262 384.132194,946.030026 L384.062327,945.969707 C384.107071,946.005354 384.14847,946.043614 384.18648,946.084092 C384.195437,946.093859 384.204466,946.103835 384.213322,946.113966 C384.228892,946.131473 384.243502,946.149216 384.257514,946.167302 C384.269557,946.183202 384.281811,946.199908 384.293619,946.216944 C384.304506,946.232279 384.314601,946.247642 384.324298,946.263198 C384.337081,946.28403 384.349438,946.305287 384.361121,946.326958 C384.36783,946.339181 384.374197,946.351559 384.38033,946.364031 C384.391732,946.38729 384.402561,946.411253 384.412578,946.435631 C384.418363,946.449841 384.423676,946.463578 384.428719,946.477397 C384.436423,946.498213 384.443641,946.519881 384.450224,946.541822 C384.456144,946.562004 384.461474,946.581717 384.466277,946.601544 C384.469742,946.615336 384.473004,946.630025 384.475982,946.644816 C384.481106,946.670718 384.485342,946.696085 384.488731,946.72156 C384.490904,946.737856 384.492778,946.75491 384.494275,946.772071 C384.496445,946.796072 384.497805,946.81972 384.498437,946.843399 C384.498549,946.853237 384.49868,946.863358 384.49868,946.873511 L384.498661,946.895255 C384.49819,946.921332 384.496835,946.947414 384.494593,946.973453 L384.49868,946.873511 C384.49868,946.921043 384.495801,946.967906 384.490207,947.013938 C384.487203,947.040143 384.483049,947.066617 384.477961,947.09297 C384.474699,947.109039 384.471335,947.124682 384.467657,947.140205 C384.463652,947.157736 384.459023,947.175389 384.453964,947.192958 C384.447026,947.216534 384.439622,947.239456 384.431533,947.262054 C384.426406,947.276789 384.420538,947.292163 384.414324,947.307443 C384.405429,947.328939 384.396482,947.349185 384.38698,947.369118 C384.37808,947.388061 384.368089,947.407595 384.357494,947.426915 C384.348359,947.44341 384.338946,947.459635 384.329154,947.475607 C384.319543,947.491361 384.309784,947.506451 384.299632,947.521375 C384.28631,947.540926 384.272273,947.560271 384.257664,947.579156 C384.252914,947.585329 384.248041,947.591501 384.243095,947.597638 L379.28,953.873 L383.305996,953.873762 C383.949124,953.873762 384.470553,954.392319 384.470553,955.032065 C384.470553,955.671488 383.949124,956.190045 383.305996,956.190045 L376.876655,956.190045 C376.812865,956.190045 376.750272,956.184943 376.689267,956.175128 C376.478762,956.147644 376.322575,956.082056 376.148483,955.943304 C375.9339,955.772363 375.796275,955.541219 375.740468,955.293592 C375.739633,955.2837 375.737453,955.273712 375.735404,955.263676 C375.728808,955.236707 375.724454,955.209683 375.721061,955.182543 C375.719684,955.166001 375.71787,955.149295 375.716417,955.132486 C375.714157,955.110979 375.713009,955.089338 375.712468,955.067672 C375.712276,955.055705 375.712097,955.043906 375.712097,955.032065 L375.712522,955.007827 C375.712898,954.993794 375.713529,954.979761 375.714417,954.965735 L375.712097,955.032065 C375.712097,954.727931 375.829941,954.451187 376.022682,954.244526 L380.937,948.031 L377.019522,948.031652 C376.376555,948.031652 375.855126,947.513095 375.855126,946.873511 C375.855126,946.233926 376.376555,945.715369 377.019522,945.715369 L383.334284,945.715369 Z M400.358411,945.714162 C401.056078,945.714162 401.687392,945.871564 402.235362,946.181217 C402.790129,946.49425 403.227566,946.936037 403.538935,947.491127 C403.845125,948.039457 404,948.672283 404,949.369485 L403.999118,949.467358 C403.98786,950.114411 403.831627,950.705977 403.535472,951.222672 C403.222323,951.768749 402.783105,952.198304 402.228824,952.502324 C401.683443,952.803126 401.053747,952.955216 400.358994,952.955216 L400.358994,952.955216 L398.348854,952.955216 L398.348757,954.930526 C398.348757,955.257078 398.231427,955.551603 398.00842,955.77998 C397.782014,956.015277 397.479061,956.13872 397.133707,956.13872 C396.801948,956.13872 396.504173,956.017048 396.272589,955.786739 C396.075752,955.590987 395.957627,955.345337 395.927893,955.070362 L395.920438,954.930526 L395.920438,946.920747 C395.920438,946.578906 396.044726,946.277622 396.281166,946.050854 C396.478141,945.862413 396.722556,945.749649 396.995151,945.721276 L397.133707,945.714162 L400.358411,945.714162 Z M400.358411,948.034307 L398.348757,948.034307 L398.348757,950.611638 L400.358411,950.611638 C400.620421,950.611638 400.840029,950.559171 401.02711,950.452627 C401.212733,950.347693 401.354014,950.20719 401.459368,950.02275 C401.566664,949.836701 401.61926,949.621682 401.61926,949.369485 C401.61926,949.090411 401.564884,948.856723 401.454351,948.655384 C401.347217,948.459034 401.202538,948.310162 401.015296,948.198468 C400.831452,948.088384 400.615404,948.034307 400.358411,948.034307 Z M368.317514,941 C369.138012,941 369.802341,941.660668 369.802341,942.476646 C369.802341,943.091446 369.341761,943.55335 369.341761,943.554155 C369.255827,943.641225 365.640779,947.122247 365.640779,947.122247 L364.437867,948.255603 C364.437867,948.255603 364.278623,948.403831 364.082804,948.526469 C363.886823,948.649107 363.63161,948.724428 363.371543,948.724428 C362.613675,948.724428 362,948.113491 362,947.360442 C362,947.180347 362.021686,946.725524 362.484855,946.283737 L367.138068,941.580036 C367.472902,941.267003 367.786536,941 368.317514,941 Z" id="Zup"></path>
        </g>
    </g>
</svg>