<svg width="18" height="15" viewBox="0 0 18 15" fill="none" xmlns="http://www.w3.org/2000/svg">
<path d="M5.65924 14.6286C12.4537 14.6286 16.1701 8.99945 16.1701 4.12125C16.1701 3.96316 16.1701 3.80507 16.1588 3.64133C16.8817 3.11625 17.503 2.4726 18 1.72732C17.3279 2.02656 16.6106 2.22417 15.8764 2.30886C16.6501 1.84589 17.2262 1.12319 17.503 0.264988C16.78 0.694089 15.9837 0.998977 15.1591 1.16271C13.7584 -0.322202 11.4201 -0.395601 9.93474 1.00462C8.97458 1.90799 8.56793 3.25176 8.86727 4.53341C5.89645 4.38661 3.12896 2.98074 1.25384 0.677151C0.271101 2.36532 0.773769 4.52212 2.39473 5.60616C1.80734 5.58923 1.23125 5.43114 0.717289 5.14319C0.717289 5.16012 0.717289 5.17142 0.717289 5.18835C0.717289 6.94428 1.95984 8.45743 3.68246 8.80748C3.14026 8.95428 2.56981 8.97686 2.01632 8.86959C2.50204 10.3714 3.88579 11.4047 5.46721 11.4329C4.15689 12.4605 2.54158 13.0194 0.881079 13.0194C0.587386 13.0194 0.293693 13.0025 0 12.9686C1.68309 14.0527 3.64857 14.6286 5.65924 14.6286Z" fill="#0E1E33"/>
</svg>
