<svg width="21" height="20" viewBox="0 0 21 20" fill="none" xmlns="http://www.w3.org/2000/svg">
<path fill-rule="evenodd" clip-rule="evenodd" d="M0.140625 10C0.140625 4.48 4.60596 0 10.1202 0C15.6444 0 20.1198 4.48 20.1198 10C20.1198 15.52 15.6444 20 10.1202 20C4.60596 20 0.140625 15.52 0.140625 10ZM14.0961 6H17.043C16.084 4.35 14.5556 3.07 12.7176 2.44C13.3169 3.55 13.7765 4.75 14.0961 6ZM10.1302 2.04C10.9593 3.24 11.6087 4.57 12.0382 6H8.22217C8.65172 4.57 9.30105 3.24 10.1302 2.04ZM2.13855 10C2.13855 10.69 2.23844 11.36 2.39828 12H5.77472C5.6948 11.34 5.63487 10.68 5.63487 10C5.63487 9.32 5.6948 8.66 5.77472 8H2.39828C2.23844 8.64 2.13855 9.31 2.13855 10ZM3.21741 14H6.16434C6.48401 15.25 6.94353 16.45 7.54291 17.56C5.70482 16.93 4.17641 15.66 3.21741 14ZM3.21741 6H6.16434C6.48401 4.75 6.94353 3.55 7.54291 2.44C5.70482 3.07 4.17641 4.34 3.21741 6ZM10.1302 17.96C9.30105 16.76 8.65172 15.43 8.22217 14H12.0382C11.6087 15.43 10.9593 16.76 10.1302 17.96ZM7.63281 10C7.63281 10.68 7.70274 11.34 7.79264 12H12.4677C12.5576 11.34 12.6276 10.68 12.6276 10C12.6276 9.32 12.5576 8.65 12.4677 8H7.79264C7.70274 8.65 7.63281 9.32 7.63281 10ZM12.7176 17.56C13.3169 16.45 13.7765 15.25 14.0961 14H17.043C16.084 15.65 14.5556 16.93 12.7176 17.56ZM14.6255 10C14.6255 10.68 14.5656 11.34 14.4857 12H17.8622C18.022 11.36 18.1219 10.69 18.1219 10C18.1219 9.31 18.022 8.64 17.8622 8H14.4857C14.5656 8.66 14.6255 9.32 14.6255 10Z" fill="#0E1E33"/>
</svg>
