<svg width="18" height="18" viewBox="0 0 18 18" fill="none" xmlns="http://www.w3.org/2000/svg">
<path d="M16.5637 3.17779L18 1.8013V1.5H13.0245L9.4785 10.342L5.44425 1.5H0.22725V1.8013L1.905 3.82471C2.0685 3.97423 2.154 4.19288 2.13225 4.41303V12.3647C2.184 12.651 2.091 12.9455 1.89 13.1536L0 15.4483V15.7458H5.35875V15.4445L3.46875 13.1536C3.264 12.9447 3.16725 12.6555 3.2085 12.3647V5.48672L7.9125 15.7496H8.45925L12.504 5.48672V13.6623C12.504 13.8779 12.504 13.9223 12.363 14.0635L10.908 15.4738V15.7759H17.967V15.4746L16.5645 14.0988C16.4415 14.0057 16.3777 13.8494 16.404 13.6976V3.57902C16.3777 3.42649 16.4408 3.27021 16.5637 3.17779Z" fill="#0E1E33"/>
</svg>
