<svg width="18" height="13" viewBox="0 0 18 13" fill="none" xmlns="http://www.w3.org/2000/svg">
<path fill-rule="evenodd" clip-rule="evenodd" d="M3.2473 12.4938C5.17059 12.5986 7.0975 12.6238 9.0244 12.613C9.28095 12.613 9.5379 12.6138 9.79498 12.6146C10.3095 12.6162 10.8246 12.6178 11.3381 12.613C12.6505 12.5949 13.9628 12.548 15.2715 12.4612C16.497 12.3781 17.3322 11.8542 17.6828 10.5172C17.8383 9.93543 17.878 9.34284 17.9178 8.75024L17.9178 8.75019C18.0335 6.99403 18.0299 5.23787 17.8889 3.48172C17.8383 2.8349 17.7443 2.20616 17.5021 1.59909C17.2526 0.966731 16.7899 0.576475 16.1681 0.345211C15.7549 0.192394 15.3213 0.171231 14.8883 0.150097C14.8401 0.147743 14.7918 0.14539 14.7437 0.142856C13.1855 0.0633592 11.6237 0.0236109 10.0656 0.00554343C8.04107 -0.0161375 6.01655 0.0272244 3.99565 0.110335C3.87924 0.115271 3.7627 0.119106 3.64616 0.122941C3.16547 0.13876 2.68472 0.15458 2.21335 0.247647C1.51561 0.38496 0.937179 0.713787 0.604579 1.37506C0.463586 1.65691 0.358745 1.95321 0.286441 2.25675C0.106718 2.99948 0.0756842 3.76203 0.0448721 4.51913C0.0434547 4.55396 0.0420377 4.58878 0.0406067 4.62358C-0.024467 6.11234 -0.0172366 7.60471 0.105681 9.09708C0.163524 9.81978 0.261135 10.528 0.572043 11.2001C0.756418 11.6048 1.04925 11.8903 1.42885 12.0963C1.99644 12.4034 2.62187 12.4576 3.2473 12.4938ZM9.36769 7.68947C8.62193 8.09778 7.87616 8.5061 7.12642 8.91641V3.18541C8.07001 3.70287 9.00833 4.21611 9.94935 4.73083C10.7497 5.16862 11.552 5.60747 12.3612 6.05091C11.3571 6.60024 10.3624 7.14486 9.36769 7.68947Z" fill="#0E1E33"/>
<path d="M7.13513 8.91901C7.13513 6.99946 7.13513 5.10526 7.13513 3.17847C8.87687 4.13462 10.6006 5.08353 12.3568 6.05055C10.6042 7.01394 8.88048 7.95923 7.13513 8.91901Z" fill="white"/>
</svg>
