<?xml version="1.0" encoding="UTF-8"?>
<svg width="25px" height="25px" viewBox="0 0 25 25" version="1.1" xmlns="http://www.w3.org/2000/svg" xmlns:xlink="http://www.w3.org/1999/xlink">
    <title>Path</title>
    <defs>
        <filter x="-8.3%" y="-11.2%" width="116.6%" height="122.5%" filterUnits="objectBoundingBox" id="filter-1">
            <feOffset dx="0" dy="2" in="SourceAlpha" result="shadowOffsetOuter1"></feOffset>
            <feGaussianBlur stdDeviation="2" in="shadowOffsetOuter1" result="shadowBlurOuter1"></feGaussianBlur>
            <feColorMatrix values="0 0 0 0 0   0 0 0 0 0   0 0 0 0 0  0 0 0 0.5 0" type="matrix" in="shadowBlurOuter1" result="shadowMatrixOuter1"></feColorMatrix>
            <feMerge>
                <feMergeNode in="shadowMatrixOuter1"></feMergeNode>
                <feMergeNode in="SourceGraphic"></feMergeNode>
            </feMerge>
        </filter>
        <path d="M18.3,5.71 C17.91,5.32 17.28,5.32 16.89,5.71 L12,10.59 L7.11,5.7 C6.72,5.31 6.09,5.31 5.7,5.7 C5.31,6.09 5.31,6.72 5.7,7.11 L10.59,12 L5.7,16.89 C5.31,17.28 5.31,17.91 5.7,18.3 C6.09,18.69 6.72,18.69 7.11,18.3 L12,13.41 L16.89,18.3 C17.28,18.69 17.91,18.69 18.3,18.3 C18.69,17.91 18.69,17.28 18.3,16.89 L13.41,12 L18.3,7.11 C18.68,6.73 18.68,6.09 18.3,5.71 Z" id="path-2"></path>
        <filter x="-53.1%" y="-37.9%" width="206.2%" height="206.2%" filterUnits="objectBoundingBox" id="filter-3">
            <feOffset dx="0" dy="2" in="SourceAlpha" result="shadowOffsetOuter1"></feOffset>
            <feGaussianBlur stdDeviation="2" in="shadowOffsetOuter1" result="shadowBlurOuter1"></feGaussianBlur>
            <feColorMatrix values="0 0 0 0 0   0 0 0 0 0   0 0 0 0 0  0 0 0 0.5 0" type="matrix" in="shadowBlurOuter1"></feColorMatrix>
        </filter>
    </defs>
    <g id="Page-1" stroke="none" stroke-width="1" fill="none" fill-rule="evenodd">
        <g id="337x1657-mobile" transform="translate(-288.000000, -27.000000)" fill-rule="nonzero">
            <g id="menu-respo" filter="url(#filter-1)">
                <g id="close-24px" transform="translate(289.000000, 24.000000)">
                    <g id="Path">
                        <use fill="black" fill-opacity="1" filter="url(#filter-3)" xlink:href="#path-2"></use>
                        <use fill="#000000" xlink:href="#path-2"></use>
                    </g>
                </g>
            </g>
        </g>
    </g>
</svg>