<svg width="18" height="18" viewBox="0 0 18 18" fill="none" xmlns="http://www.w3.org/2000/svg">
<rect x="18" y="18" width="18" height="18" rx="2.25" transform="rotate(180 18 18)" fill="#0E1E33"/>
<rect x="2.84766" y="6.75879" width="2.68897" height="8.327" fill="white"/>
<path d="M4.20947 5.55948C4.94685 5.55948 5.54509 4.967 5.54509 4.23681C5.54509 3.50578 4.94685 2.91406 4.20947 2.91406C3.4716 2.91406 2.87381 3.50578 2.87381 4.23681C2.87381 4.967 3.4716 5.55948 4.20947 5.55948Z" fill="white"/>
<path d="M15.1488 10.4852C15.1329 10.0481 15.2317 8.60416 14.1859 7.57142C13.6376 7.02969 13.3607 6.77466 12.0258 6.77466C10.9532 6.77466 9.94828 7.46864 9.54975 8.02057V6.80074H6.81085V15.0461H9.54975C9.54975 15.0461 9.54975 11.2547 9.54975 10.3458C9.54975 9.66881 9.90131 8.95056 10.858 8.95056C11.8158 8.95056 12.4128 9.722 12.4128 10.6072V15.0461H15.1524V10.4852H15.1488Z" fill="white"/>
</svg>
