<svg width="18" height="18" viewBox="0 0 18 18" fill="none" xmlns="http://www.w3.org/2000/svg">
<path d="M18 13.8902C18 16.1613 16.1613 18 13.8902 18H4.10977C1.83867 18 0 16.1613 0 13.8902V4.11328C0 1.84219 1.84219 0 4.11328 0H13.827C16.1332 0 18 1.8668 18 4.17305V13.8902Z" fill="#0E1E33"/>
<path fill-rule="evenodd" clip-rule="evenodd" d="M6.49687 2.48193H11.5031C13.7215 2.48193 15.518 4.27842 15.5145 6.50029V11.503C15.5145 13.7214 13.718 15.5179 11.4996 15.5179H6.49687C4.275 15.5179 2.47852 13.7214 2.47852 11.503V6.50029C2.47852 4.28193 4.27852 2.48193 6.49687 2.48193ZM11.0215 14.2663C12.8145 14.2663 14.2664 12.8144 14.2664 11.0214V6.97842C14.2664 5.18896 12.8145 3.7335 11.0215 3.7335H6.97852C5.18555 3.7335 3.73359 5.18545 3.73359 6.97842V11.0214C3.73359 12.8144 5.18555 14.2663 6.97852 14.2663H11.0215Z" fill="white"/>
<path fill-rule="evenodd" clip-rule="evenodd" d="M5.74103 9.02461C5.74103 7.12617 7.27736 5.58984 9.17579 5.58984C11.0707 5.58984 12.607 7.12617 12.6106 9.02461C12.6106 10.923 11.0707 12.4594 9.17579 12.4594C7.27736 12.4594 5.74103 10.9195 5.74103 9.02461ZM7.10861 9.02109C7.10861 10.1637 8.03322 11.0883 9.17579 11.0883C10.3149 11.0883 11.2395 10.1637 11.243 9.02109C11.243 7.87852 10.3149 6.95391 9.17579 6.95391C8.03322 6.95391 7.10861 7.87852 7.10861 9.02109Z" fill="white"/>
<path d="M13.2434 5.53701C13.2434 6.01865 12.8531 6.40889 12.3715 6.40889C11.8898 6.40889 11.4996 6.01865 11.4996 5.53701C11.4996 5.05537 11.8898 4.66162 12.3715 4.66162C12.8531 4.66162 13.2434 5.05186 13.2434 5.53701Z" fill="white"/>
</svg>
