<svg width="146" height="77" viewBox="0 0 146 77" fill="none" xmlns="http://www.w3.org/2000/svg">
<mask id="mask0" mask-type="alpha" maskUnits="userSpaceOnUse" x="0" y="48" width="29" height="12">
<path fill-rule="evenodd" clip-rule="evenodd" d="M5.56966 48.9155C2.71936 48.9155 0.407112 51.2266 0.407112 54.078C0.407112 56.9283 2.71936 59.24 5.56966 59.24H18.5211C19.0762 58.664 27.3784 50.2022 27.3784 50.2022L27.8136 49.7429L28.0293 49.5157L28.2691 49.273C28.4034 49.1476 28.542 49.0271 28.6889 48.9155H5.56966Z" fill="white"/>
</mask>
<g mask="url(#mask0)">
<path d="M5.56966 48.9155C2.71936 48.9155 0.407112 51.2266 0.407112 54.078C0.407112 56.9283 2.71936 59.24 5.56966 59.24H18.5211C19.0762 58.664 27.3784 50.2022 27.3784 50.2022L27.8136 49.7429L28.0293 49.5157L28.2691 49.273C28.4034 49.1476 28.542 49.0271 28.6889 48.9155H5.56966Z" fill="url(#paint0_linear)"/>
</g>
<mask id="mask1" mask-type="alpha" maskUnits="userSpaceOnUse" x="8" y="22" width="29" height="12">
<path fill-rule="evenodd" clip-rule="evenodd" d="M18.7241 22.975C18.1294 23.5912 9.78155 32.1168 9.78155 32.1168C9.48557 32.4215 9.2292 32.7203 8.88206 33.0432C8.78359 33.1312 8.68181 33.2198 8.57784 33.2996H31.51C34.3608 33.2996 36.6726 30.9879 36.6726 28.137C36.6726 25.2867 34.3608 22.975 31.51 22.975L18.7241 22.975Z" fill="white"/>
</mask>
<g mask="url(#mask1)">
<path d="M18.7241 22.975C18.1294 23.5912 9.78155 32.1168 9.78155 32.1168C9.48557 32.4215 9.2292 32.7203 8.88206 33.0432C8.78359 33.1312 8.68181 33.2198 8.57784 33.2996H31.51C34.3608 33.2996 36.6726 30.9879 36.6726 28.137C36.6726 25.2867 34.3608 22.975 31.51 22.975L18.7241 22.975Z" fill="url(#paint1_linear)"/>
</g>
<path d="M5.5691 59.2402C4.24766 59.2402 2.92676 58.7363 1.91835 57.7279C-0.0979254 55.7116 -0.0979254 52.4427 1.91835 50.4264L27.8587 24.486C29.875 22.4698 33.1439 22.4698 35.1602 24.486C37.177 26.5023 37.177 29.7713 35.1602 31.7875L9.21985 57.7279C8.21199 58.7358 6.89054 59.2402 5.5691 59.2402Z" fill="#0C3455"/>
<path d="M0.333885 28.6042C0.333885 27.9853 0.407604 26.4207 1.99147 24.9023L17.9033 8.72864C19.0481 7.65256 20.1203 6.73492 21.9369 6.73492C24.7421 6.73492 27.0136 9.00591 27.0136 11.8116C27.0136 13.9253 25.4386 15.5141 25.4386 15.5163C25.1453 15.8156 12.7836 27.7851 12.7836 27.7851L8.67021 31.6823C8.67021 31.6823 8.12556 32.1917 7.45549 32.6137C6.78597 33.0356 5.91289 33.2942 5.02386 33.2942C2.43158 33.2942 0.333885 31.1937 0.333885 28.6042Z" fill="#8DC63F"/>
<path d="M36.8128 53.6328C36.8128 54.2523 36.7391 55.8164 35.1553 57.3348L19.2435 73.5084C18.0986 74.5845 17.0264 75.5027 15.2104 75.5027C12.4046 75.5027 10.1331 73.2311 10.1331 70.4254C10.1331 68.3118 11.7082 66.7235 11.7082 66.7207C12.0014 66.4215 24.3631 54.452 24.3631 54.452L28.4765 50.5548C28.4765 50.5548 29.0212 50.0454 29.6912 49.6234C30.3613 49.2014 31.2338 48.9434 32.1229 48.9434C34.7151 48.9434 36.8128 51.0439 36.8128 53.6328Z" fill="#EF4123"/>
<mask id="mask2" mask-type="alpha" maskUnits="userSpaceOnUse" x="81" y="23" width="31" height="37">
<path fill-rule="evenodd" clip-rule="evenodd" d="M104.351 24.2485C103.577 25.0176 103.172 26.0359 103.172 27.1929V46.0798C103.172 47.1273 102.911 48.018 102.373 48.7992C101.806 49.6206 101.032 50.251 99.9957 50.7374C98.9081 51.2402 97.624 51.4949 96.1777 51.4949C94.7946 51.4949 93.5744 51.2457 92.5511 50.7478C91.5669 50.2736 90.827 49.6437 90.2835 48.8223C89.7625 48.0351 89.5078 47.1389 89.5078 46.0798V27.1929C89.5078 26.0244 89.0858 24.9945 88.2815 24.2194C87.5008 23.4673 86.4941 23.0685 85.3773 23.0685C84.2088 23.0685 83.191 23.4849 82.4274 24.2716C81.6864 25.0413 81.293 26.0535 81.293 27.1929V46.0798C81.293 48.6485 81.9532 50.9739 83.2488 52.999C84.5389 55.0059 86.3433 56.5859 88.611 57.7016C90.8209 58.7953 93.3725 59.3499 96.1777 59.3499C99.0582 59.3499 101.667 58.8003 103.929 57.7132C106.249 56.6024 108.094 55.0175 109.413 53.0161C110.749 50.9915 111.427 48.66 111.427 46.0798V27.1929C111.427 26.0244 111.004 24.9945 110.2 24.2194C109.419 23.4673 108.418 23.0685 107.297 23.0685C106.139 23.0685 105.121 23.4734 104.351 24.2485Z" fill="white"/>
</mask>
<g mask="url(#mask2)">
<path d="M104.351 24.2485C103.577 25.0176 103.172 26.0359 103.172 27.1929V46.0798C103.172 47.1273 102.911 48.018 102.373 48.7992C101.806 49.6206 101.032 50.251 99.9957 50.7374C98.9081 51.2402 97.624 51.4949 96.1777 51.4949C94.7946 51.4949 93.5744 51.2457 92.5511 50.7478C91.5669 50.2736 90.827 49.6437 90.2835 48.8223C89.7625 48.0351 89.5078 47.1389 89.5078 46.0798V27.1929C89.5078 26.0244 89.0858 24.9945 88.2815 24.2194C87.5008 23.4673 86.4941 23.0685 85.3773 23.0685C84.2088 23.0685 83.191 23.4849 82.4274 24.2716C81.6864 25.0413 81.293 26.0535 81.293 27.1929V46.0798C81.293 48.6485 81.9532 50.9739 83.2488 52.999C84.5389 55.0059 86.3433 56.5859 88.611 57.7016C90.8209 58.7953 93.3725 59.3499 96.1777 59.3499C99.0582 59.3499 101.667 58.8003 103.929 57.7132C106.249 56.6024 108.094 55.0175 109.413 53.0161C110.749 50.9915 111.427 48.66 111.427 46.0798V27.1929C111.427 26.0244 111.004 24.9945 110.2 24.2194C109.419 23.4673 108.418 23.0685 107.297 23.0685C106.139 23.0685 105.121 23.4734 104.351 24.2485Z" fill="url(#paint2_linear)"/>
</g>
<path d="M96.1789 59.3503C99.0606 59.3503 101.667 58.7996 103.93 57.7109C106.249 56.6035 108.097 55.0191 109.412 53.0182C110.752 50.9937 111.425 48.6622 111.425 46.0809V27.195C111.425 26.0265 111.003 24.9922 110.201 24.2215C109.418 23.4689 108.421 23.0717 107.295 23.0717C106.139 23.0717 105.124 23.4755 104.352 24.2457C103.576 25.017 103.172 26.0386 103.172 27.195V43.6581C103.172 43.6581 104.555 54.4744 96.1789 59.3503Z" fill="#0C3455"/>
<mask id="mask3" mask-type="alpha" maskUnits="userSpaceOnUse" x="47" y="23" width="31" height="8">
<path fill-rule="evenodd" clip-rule="evenodd" d="M51.8692 23.0714C49.6834 23.0714 47.9109 24.8434 47.9109 27.0302C47.9109 29.2165 49.6834 30.989 51.8692 30.989L73.3357 30.989C75.5215 30.989 77.294 29.2165 77.294 27.0302C77.294 24.8434 75.5215 23.0714 73.3357 23.0714L51.8692 23.0714Z" fill="white"/>
</mask>
<g mask="url(#mask3)">
<path d="M51.8692 23.0714C49.6834 23.0714 47.9109 24.8434 47.9109 27.0302C47.9109 29.2165 49.6834 30.989 51.8692 30.989L73.3357 30.989C75.5215 30.989 77.294 29.2165 77.294 27.0302C77.294 24.8434 75.5215 23.0714 73.3357 23.0714L51.8692 23.0714Z" fill="url(#paint3_linear)"/>
</g>
<mask id="mask4" mask-type="alpha" maskUnits="userSpaceOnUse" x="47" y="50" width="31" height="9">
<path fill-rule="evenodd" clip-rule="evenodd" d="M51.3834 50.9591C49.1971 50.9591 47.4246 52.7311 47.4246 54.9179C47.4246 57.1042 49.1971 58.8762 51.3834 58.8762H73.2395C75.4257 58.8762 77.1983 57.1042 77.1983 54.9179C77.1983 52.7311 75.4257 50.9591 73.2395 50.9591H51.3834Z" fill="white"/>
</mask>
<g mask="url(#mask4)">
<path d="M51.3834 50.9591C49.1971 50.9591 47.4246 52.7311 47.4246 54.9179C47.4246 57.1042 49.1971 58.8762 51.3834 58.8762H73.2395C75.4257 58.8762 77.1983 57.1042 77.1983 54.9179C77.1983 52.7311 75.4257 50.9591 73.2395 50.9591H51.3834Z" fill="url(#paint4_linear)"/>
</g>
<path d="M51.8177 58.8786C50.488 58.8808 49.7613 58.7169 48.908 58.0331C47.202 56.6665 46.927 54.1744 48.2941 52.4684L70.2459 24.5552C71.613 22.8487 74.1046 22.5736 75.8106 23.9407C77.5171 25.3078 77.7922 27.7994 76.4251 29.5054L54.4727 57.4191C53.7894 58.2718 52.8245 58.7675 51.8177 58.8786Z" fill="#0C3455"/>
<path fill-rule="evenodd" clip-rule="evenodd" d="M137.589 24.6638C139.474 25.7338 140.961 27.244 142.02 29.1414C143.061 31.0158 143.587 33.1789 143.587 35.5621C143.587 37.876 143.055 39.982 142.008 41.8217C140.944 43.6845 139.451 45.1533 137.565 46.1948C135.709 47.2186 133.568 47.7396 131.208 47.7396H124.376V54.5712C124.376 55.6875 123.977 56.6942 123.219 57.4749C122.45 58.2792 121.42 58.7012 120.246 58.7012C119.118 58.7012 118.106 58.2853 117.318 57.498C116.538 56.7174 116.121 55.7045 116.121 54.5712V27.1917C116.121 26.0232 116.544 24.9933 117.348 24.2182C118.129 23.4667 119.13 23.0673 120.246 23.0673H131.208C133.58 23.0673 135.726 23.6053 137.589 24.6638ZM133.481 39.2646C134.112 38.9059 134.592 38.4256 134.951 37.7952C135.315 37.1592 135.494 36.4242 135.494 35.5621C135.494 34.6082 135.309 33.8094 134.934 33.1212C134.569 32.45 134.078 31.9411 133.441 31.5593C132.816 31.183 132.082 30.9982 131.208 30.9982L124.376 30.9982V39.8082H131.208C132.099 39.8082 132.845 39.6288 133.481 39.2646Z" fill="#0C3353"/>
<mask id="mask5" mask-type="alpha" maskUnits="userSpaceOnUse" x="124" y="29" width="20" height="19">
<path fill-rule="evenodd" clip-rule="evenodd" d="M131.54 39.8781C131.326 39.8841 131.21 39.8841 131.21 39.8841H124.376V47.8188H131.21C133.571 47.8188 135.712 47.299 137.567 46.2707C139.45 45.2315 140.943 43.7626 142.008 41.8966C143.054 40.0618 143.586 37.9504 143.586 35.6381C143.586 33.2582 143.06 31.0928 142.02 29.2207C141.53 38.9725 133.302 39.8104 131.54 39.8781Z" fill="white"/>
</mask>
<g mask="url(#mask5)">
<path d="M131.54 39.8781C131.326 39.8841 131.21 39.8841 131.21 39.8841H124.376V47.8188H131.21C133.571 47.8188 135.712 47.299 137.567 46.2707C139.45 45.2315 140.943 43.7626 142.008 41.8966C143.054 40.0618 143.586 37.9504 143.586 35.6381C143.586 33.2582 143.06 31.0928 142.02 29.2207C141.53 38.9725 133.302 39.8104 131.54 39.8781Z" fill="url(#paint5_linear)"/>
</g>
<path d="M49.75 15C49.526 15 49.316 14.9533 49.12 14.86C48.9333 14.7573 48.84 14.6127 48.84 14.426V5.326C48.84 5.17667 48.9053 5.046 49.036 4.934C49.1667 4.822 49.3347 4.766 49.54 4.766H52.34C52.9373 4.766 53.474 4.86867 53.95 5.074C54.4353 5.27933 54.818 5.61533 55.098 6.082C55.378 6.53933 55.518 7.15067 55.518 7.916V8C55.518 8.76533 55.3733 9.38133 55.084 9.848C54.7947 10.3147 54.398 10.6553 53.894 10.87C53.3993 11.0753 52.844 11.178 52.228 11.178H50.66V14.426C50.66 14.6127 50.5667 14.7573 50.38 14.86C50.1933 14.9533 49.9833 15 49.75 15ZM50.66 9.75H52.228C52.6947 9.75 53.054 9.61933 53.306 9.358C53.5673 9.08733 53.698 8.68133 53.698 8.14V7.972C53.698 7.43067 53.5673 7.02933 53.306 6.768C53.054 6.49733 52.6947 6.362 52.228 6.362H50.66V9.75ZM58.9368 15.126C58.3955 15.126 57.8962 14.9953 57.4388 14.734C56.9815 14.4633 56.6128 14.1087 56.3328 13.67C56.0528 13.2313 55.9128 12.76 55.9128 12.256V11.108C55.9128 10.604 56.0482 10.1373 56.3188 9.708C56.5895 9.26933 56.9535 8.91933 57.4108 8.658C57.8775 8.39667 58.3862 8.266 58.9368 8.266C59.4875 8.266 59.9915 8.39667 60.4488 8.658C60.9155 8.91 61.2842 9.25067 61.5548 9.68C61.8348 10.1093 61.9748 10.5853 61.9748 11.108V12.256C61.9748 12.7507 61.8348 13.2173 61.5548 13.656C61.2748 14.0947 60.9015 14.4493 60.4348 14.72C59.9775 14.9907 59.4782 15.126 58.9368 15.126ZM58.9368 13.544C59.1608 13.544 59.3662 13.4833 59.5528 13.362C59.7395 13.2407 59.8888 13.082 60.0008 12.886C60.1128 12.6807 60.1688 12.4707 60.1688 12.256V11.108C60.1688 10.8933 60.1128 10.6927 60.0008 10.506C59.8888 10.3193 59.7395 10.1653 59.5528 10.044C59.3755 9.91333 59.1702 9.848 58.9368 9.848C58.7128 9.848 58.5075 9.90867 58.3208 10.03C58.1342 10.1513 57.9848 10.31 57.8728 10.506C57.7702 10.6927 57.7188 10.8933 57.7188 11.108V12.256C57.7188 12.4707 57.7702 12.6807 57.8728 12.886C57.9848 13.082 58.1342 13.2407 58.3208 13.362C58.5075 13.4833 58.7128 13.544 58.9368 13.544ZM65.4338 15.154C65.2752 15.154 65.1305 15.1307 64.9998 15.084C64.8692 15.0373 64.7805 14.9487 64.7338 14.818L62.5638 9.288C62.5452 9.22267 62.5312 9.17133 62.5218 9.134C62.5125 9.08733 62.5078 9.05 62.5078 9.022C62.5078 8.87267 62.5685 8.74667 62.6898 8.644C62.8205 8.532 62.9792 8.44333 63.1658 8.378C63.3525 8.31267 63.5205 8.28 63.6698 8.28C63.7912 8.28 63.8985 8.30333 63.9918 8.35C64.0945 8.39667 64.1645 8.47133 64.2018 8.574L65.6018 12.55L66.6518 9.092C66.6985 8.93333 66.7778 8.83533 66.8898 8.798C67.0018 8.75133 67.1278 8.728 67.2678 8.728C67.4078 8.728 67.5338 8.75133 67.6458 8.798C67.7578 8.83533 67.8372 8.93333 67.8838 9.092L68.9198 12.564L70.3338 8.574C70.3992 8.378 70.5672 8.28 70.8378 8.28C70.9872 8.28 71.1552 8.31267 71.3418 8.378C71.5285 8.44333 71.6872 8.532 71.8178 8.644C71.9485 8.756 72.0138 8.88667 72.0138 9.036C72.0138 9.07333 72.0092 9.11533 71.9998 9.162C71.9905 9.20867 71.9765 9.25067 71.9578 9.288L69.7878 14.832C69.7412 14.9533 69.6525 15.0373 69.5218 15.084C69.3912 15.1307 69.2465 15.154 69.0878 15.154C68.9198 15.154 68.7658 15.126 68.6258 15.07C68.4858 15.014 68.3925 14.9347 68.3458 14.832L67.2678 11.78L66.1898 14.818C66.1618 14.93 66.0732 15.014 65.9238 15.07C65.7745 15.126 65.6112 15.154 65.4338 15.154ZM75.9122 15.126C75.2495 15.126 74.6615 15.0093 74.1482 14.776C73.6442 14.5333 73.2475 14.1973 72.9582 13.768C72.6688 13.3293 72.5242 12.8253 72.5242 12.256V11.066C72.5242 10.562 72.6595 10.1 72.9302 9.68C73.2102 9.25067 73.5788 8.91 74.0362 8.658C74.5028 8.39667 75.0208 8.266 75.5902 8.266C76.1128 8.266 76.5888 8.378 77.0182 8.602C77.4568 8.826 77.8115 9.134 78.0822 9.526C78.3528 9.918 78.4882 10.3753 78.4882 10.898C78.4882 11.2993 78.4228 11.5887 78.2922 11.766C78.1615 11.934 77.9935 12.0413 77.7882 12.088C77.5922 12.1253 77.3868 12.144 77.1722 12.144H74.3302V12.354C74.3302 12.7553 74.4795 13.082 74.7782 13.334C75.0862 13.5767 75.4828 13.698 75.9682 13.698C76.2762 13.698 76.5328 13.6513 76.7382 13.558C76.9435 13.4647 77.1208 13.376 77.2702 13.292C77.4195 13.208 77.5595 13.166 77.6902 13.166C77.8302 13.166 77.9515 13.2127 78.0542 13.306C78.1568 13.3993 78.2362 13.5113 78.2922 13.642C78.3482 13.7633 78.3762 13.8707 78.3762 13.964C78.3762 14.1227 78.2735 14.2953 78.0682 14.482C77.8722 14.6593 77.5875 14.8133 77.2142 14.944C76.8502 15.0653 76.4162 15.126 75.9122 15.126ZM74.3302 11.08H76.3742C76.5328 11.08 76.6402 11.0567 76.6962 11.01C76.7615 10.954 76.7942 10.8513 76.7942 10.702C76.7942 10.4873 76.7382 10.296 76.6262 10.128C76.5142 9.96 76.3648 9.82933 76.1782 9.736C75.9915 9.64267 75.7862 9.596 75.5622 9.596C75.3475 9.596 75.1468 9.64267 74.9602 9.736C74.7735 9.82 74.6195 9.946 74.4982 10.114C74.3862 10.2727 74.3302 10.464 74.3302 10.688V11.08ZM80.4531 15C80.2011 15 79.9911 14.9393 79.8231 14.818C79.6551 14.6967 79.5711 14.566 79.5711 14.426V8.91C79.5711 8.742 79.6551 8.60667 79.8231 8.504C79.9911 8.40133 80.2011 8.35 80.4531 8.35C80.6864 8.35 80.8778 8.40133 81.0271 8.504C81.1858 8.60667 81.2651 8.742 81.2651 8.91V9.484C81.3678 9.27867 81.5031 9.08733 81.6711 8.91C81.8484 8.72333 82.0491 8.56933 82.2731 8.448C82.4971 8.32667 82.7351 8.266 82.9871 8.266H83.4211C83.5984 8.266 83.7524 8.34533 83.8831 8.504C84.0138 8.65333 84.0791 8.83533 84.0791 9.05C84.0791 9.274 84.0138 9.46533 83.8831 9.624C83.7524 9.77333 83.5984 9.848 83.4211 9.848H82.9871C82.7258 9.848 82.4691 9.93667 82.2171 10.114C81.9744 10.282 81.7738 10.52 81.6151 10.828C81.4564 11.1267 81.3771 11.4907 81.3771 11.92V14.426C81.3771 14.566 81.2884 14.6967 81.1111 14.818C80.9338 14.9393 80.7144 15 80.4531 15ZM87.8067 15.126C87.144 15.126 86.556 15.0093 86.0427 14.776C85.5387 14.5333 85.142 14.1973 84.8527 13.768C84.5634 13.3293 84.4187 12.8253 84.4187 12.256V11.066C84.4187 10.562 84.554 10.1 84.8247 9.68C85.1047 9.25067 85.4734 8.91 85.9307 8.658C86.3974 8.39667 86.9154 8.266 87.4847 8.266C88.0074 8.266 88.4834 8.378 88.9127 8.602C89.3514 8.826 89.706 9.134 89.9767 9.526C90.2474 9.918 90.3827 10.3753 90.3827 10.898C90.3827 11.2993 90.3174 11.5887 90.1867 11.766C90.056 11.934 89.888 12.0413 89.6827 12.088C89.4867 12.1253 89.2814 12.144 89.0667 12.144H86.2247V12.354C86.2247 12.7553 86.374 13.082 86.6727 13.334C86.9807 13.5767 87.3774 13.698 87.8627 13.698C88.1707 13.698 88.4274 13.6513 88.6327 13.558C88.838 13.4647 89.0154 13.376 89.1647 13.292C89.314 13.208 89.454 13.166 89.5847 13.166C89.7247 13.166 89.846 13.2127 89.9487 13.306C90.0514 13.3993 90.1307 13.5113 90.1867 13.642C90.2427 13.7633 90.2707 13.8707 90.2707 13.964C90.2707 14.1227 90.168 14.2953 89.9627 14.482C89.7667 14.6593 89.482 14.8133 89.1087 14.944C88.7447 15.0653 88.3107 15.126 87.8067 15.126ZM86.2247 11.08H88.2687C88.4274 11.08 88.5347 11.0567 88.5907 11.01C88.656 10.954 88.6887 10.8513 88.6887 10.702C88.6887 10.4873 88.6327 10.296 88.5207 10.128C88.4087 9.96 88.2594 9.82933 88.0727 9.736C87.886 9.64267 87.6807 9.596 87.4567 9.596C87.242 9.596 87.0414 9.64267 86.8547 9.736C86.668 9.82 86.514 9.946 86.3927 10.114C86.2807 10.2727 86.2247 10.464 86.2247 10.688V11.08ZM93.6776 15.126C93.239 15.126 92.833 14.9907 92.4596 14.72C92.0863 14.4493 91.7876 14.0947 91.5636 13.656C91.3396 13.2173 91.2276 12.7507 91.2276 12.256V11.108C91.2276 10.5853 91.3396 10.1093 91.5636 9.68C91.7876 9.25067 92.0863 8.91 92.4596 8.658C92.833 8.39667 93.2483 8.266 93.7056 8.266C94.1443 8.266 94.5176 8.378 94.8256 8.602C95.1336 8.81667 95.3623 9.05933 95.5116 9.33V5.032C95.5116 4.864 95.6003 4.72867 95.7776 4.626C95.955 4.52333 96.1743 4.472 96.4356 4.472C96.6876 4.472 96.8976 4.52333 97.0656 4.626C97.2336 4.72867 97.3176 4.864 97.3176 5.032V14.426C97.3176 14.566 97.2336 14.6967 97.0656 14.818C96.8976 14.9393 96.6876 15 96.4356 15C96.2116 15 96.0203 14.9393 95.8616 14.818C95.703 14.6967 95.6236 14.566 95.6236 14.426V14.02C95.4836 14.3093 95.2316 14.566 94.8676 14.79C94.513 15.014 94.1163 15.126 93.6776 15.126ZM94.2516 13.544C94.4943 13.544 94.709 13.4787 94.8956 13.348C95.0823 13.208 95.2316 13.0587 95.3436 12.9C95.4556 12.732 95.5116 12.6013 95.5116 12.508V11.108C95.5116 10.8467 95.4463 10.6227 95.3156 10.436C95.1943 10.2493 95.0356 10.1047 94.8396 10.002C94.653 9.89933 94.4616 9.848 94.2656 9.848C94.0416 9.848 93.8316 9.91333 93.6356 10.044C93.449 10.1653 93.2996 10.3193 93.1876 10.506C93.085 10.6927 93.0336 10.8933 93.0336 11.108V12.256C93.0336 12.4707 93.085 12.676 93.1876 12.872C93.2996 13.068 93.449 13.2313 93.6356 13.362C93.8223 13.4833 94.0276 13.544 94.2516 13.544ZM105.182 15.126C104.743 15.126 104.347 15.014 103.992 14.79C103.637 14.566 103.385 14.3093 103.236 14.02V14.426C103.236 14.566 103.157 14.6967 102.998 14.818C102.849 14.9393 102.657 15 102.424 15C102.172 15 101.962 14.9393 101.794 14.818C101.626 14.6967 101.542 14.566 101.542 14.426V5.032C101.542 4.864 101.626 4.72867 101.794 4.626C101.962 4.52333 102.172 4.472 102.424 4.472C102.685 4.472 102.905 4.52333 103.082 4.626C103.259 4.72867 103.348 4.864 103.348 5.032V9.33C103.497 9.05933 103.726 8.81667 104.034 8.602C104.342 8.378 104.711 8.266 105.14 8.266C105.597 8.266 106.013 8.39667 106.386 8.658C106.769 8.91 107.072 9.25067 107.296 9.68C107.52 10.1093 107.632 10.5853 107.632 11.108V12.256C107.632 12.7507 107.52 13.2173 107.296 13.656C107.072 14.0947 106.773 14.4493 106.4 14.72C106.027 14.9907 105.621 15.126 105.182 15.126ZM104.608 13.544C104.832 13.544 105.037 13.4833 105.224 13.362C105.411 13.2313 105.555 13.068 105.658 12.872C105.77 12.676 105.826 12.4707 105.826 12.256V11.108C105.826 10.8933 105.77 10.6927 105.658 10.506C105.555 10.3193 105.411 10.1653 105.224 10.044C105.037 9.91333 104.827 9.848 104.594 9.848C104.398 9.848 104.202 9.89933 104.006 10.002C103.819 10.1047 103.661 10.2493 103.53 10.436C103.409 10.6227 103.348 10.8467 103.348 11.108V12.508C103.348 12.6013 103.404 12.732 103.516 12.9C103.628 13.0587 103.777 13.208 103.964 13.348C104.16 13.4787 104.375 13.544 104.608 13.544ZM108.943 18.094C108.71 18.094 108.514 18.0473 108.355 17.954C108.196 17.87 108.117 17.66 108.117 17.324C108.117 17.1187 108.15 16.9413 108.215 16.792C108.29 16.6427 108.411 16.568 108.579 16.568C108.738 16.568 108.92 16.54 109.125 16.484C109.34 16.428 109.554 16.3207 109.769 16.162C109.984 16.0127 110.166 15.8027 110.315 15.532C110.464 15.2707 110.553 14.93 110.581 14.51L108.173 9.358C108.136 9.274 108.117 9.19467 108.117 9.12C108.117 8.96133 108.182 8.81667 108.313 8.686C108.453 8.55533 108.616 8.45267 108.803 8.378C108.99 8.294 109.162 8.252 109.321 8.252C109.433 8.252 109.536 8.27533 109.629 8.322C109.732 8.36867 109.802 8.448 109.839 8.56L111.519 12.746L112.863 8.56C112.91 8.448 112.98 8.36867 113.073 8.322C113.166 8.27533 113.26 8.252 113.353 8.252C113.493 8.252 113.661 8.294 113.857 8.378C114.053 8.45267 114.221 8.56 114.361 8.7C114.51 8.83067 114.585 8.98 114.585 9.148C114.585 9.232 114.571 9.302 114.543 9.358L112.499 14.58C112.331 15 112.168 15.4153 112.009 15.826C111.85 16.246 111.65 16.624 111.407 16.96C111.174 17.3053 110.861 17.5807 110.469 17.786C110.077 17.9913 109.568 18.094 108.943 18.094Z" fill="url(#paint6_linear)"/>
<defs>
<linearGradient id="paint0_linear" x1="24.7897" y1="56.9797" x2="8.89075" y2="56.9797" gradientUnits="userSpaceOnUse">
<stop stop-color="#0D3455"/>
<stop offset="0.551401" stop-color="#092745"/>
<stop offset="0.570452" stop-color="#092745"/>
<stop offset="0.994291" stop-color="#0D1A32"/>
<stop offset="1" stop-color="#0D1A32"/>
</linearGradient>
<linearGradient id="paint1_linear" x1="11.4378" y1="25.5153" x2="25.7071" y2="25.5153" gradientUnits="userSpaceOnUse">
<stop stop-color="#0D3455"/>
<stop offset="0.551401" stop-color="#092745"/>
<stop offset="0.570452" stop-color="#092745"/>
<stop offset="0.994291" stop-color="#0D1A32"/>
<stop offset="1" stop-color="#0D1A32"/>
</linearGradient>
<linearGradient id="paint2_linear" x1="85.4785" y1="33.6973" x2="98.2784" y2="33.3762" gradientUnits="userSpaceOnUse">
<stop stop-color="#0C3455"/>
<stop offset="0.551401" stop-color="#092745"/>
<stop offset="0.570452" stop-color="#092745"/>
<stop offset="0.994291" stop-color="#0E1A33"/>
<stop offset="1" stop-color="#0E1A33"/>
</linearGradient>
<linearGradient id="paint3_linear" x1="47.3275" y1="23.4429" x2="73.9525" y2="23.4429" gradientUnits="userSpaceOnUse">
<stop stop-color="#0C3455"/>
<stop offset="0.551401" stop-color="#092745"/>
<stop offset="0.570452" stop-color="#092745"/>
<stop offset="0.994291" stop-color="#0E1A33"/>
<stop offset="1" stop-color="#0E1A33"/>
</linearGradient>
<linearGradient id="paint4_linear" x1="76.1773" y1="57.6399" x2="55.7033" y2="57.6399" gradientUnits="userSpaceOnUse">
<stop stop-color="#0C3455"/>
<stop offset="0.551401" stop-color="#092745"/>
<stop offset="0.570452" stop-color="#092745"/>
<stop offset="0.994291" stop-color="#0E1A33"/>
<stop offset="1" stop-color="#0E1A33"/>
</linearGradient>
<linearGradient id="paint5_linear" x1="150.468" y1="48.2072" x2="125.453" y2="55.1263" gradientUnits="userSpaceOnUse">
<stop stop-color="#0C3455"/>
<stop offset="0.966604" stop-color="#0E1A33"/>
<stop offset="1" stop-color="#0E1A33"/>
</linearGradient>
<linearGradient id="paint6_linear" x1="46.6698" y1="17.1553" x2="107.381" y2="17.1553" gradientUnits="userSpaceOnUse">
<stop stop-color="#0C3455"/>
<stop offset="0.551401" stop-color="#092745"/>
<stop offset="0.570452" stop-color="#092745"/>
<stop offset="0.994291" stop-color="#0E1A33"/>
<stop offset="1" stop-color="#0E1A33"/>
</linearGradient>
</defs>
</svg>
