<svg width="150" height="25" viewBox="0 0 150 25" fill="none" xmlns="http://www.w3.org/2000/svg">
<path fill-rule="evenodd" clip-rule="evenodd" d="M54.1163 24.4171V15.1334L55.9772 15.1042C56.3176 15.0865 56.6575 15.148 56.9702 15.2836C57.2231 15.4327 57.4353 15.642 57.5878 15.8928L62.5947 23.5033C62.7668 23.772 62.9998 23.9965 63.2748 24.1584C63.5759 24.3195 63.914 24.3986 64.2553 24.3879H68.2483L62.2984 15.6258C61.9278 15.0666 61.4339 14.5999 60.8548 14.2614C61.6425 14.0191 62.3915 13.665 63.0787 13.2099C63.7067 12.7945 64.262 12.2786 64.7226 11.6828C65.1655 11.1082 65.5096 10.4638 65.7407 9.77605C65.981 9.04507 66.1008 8.27987 66.0953 7.51042C66.1089 6.55668 65.9345 5.6096 65.5821 4.72324C65.2297 3.87765 64.6701 3.13438 63.9549 2.56193C63.1108 1.90872 62.1448 1.43067 61.1135 1.15582C59.7526 0.796068 58.3483 0.627553 56.941 0.655133H49.6935V24.4171H54.1163ZM56.8743 11.9623H54.1163V4.06395H56.941C58.5739 4.06395 59.7866 4.38801 60.5794 5.03613C61.3929 5.72073 61.8353 6.74937 61.7727 7.81079C61.7796 8.38078 61.6791 8.94697 61.4765 9.47976C61.2831 9.97891 60.9759 10.4261 60.5794 10.7857C60.1373 11.1786 59.6168 11.473 59.0523 11.6494C58.348 11.871 57.6124 11.9767 56.8743 11.9623Z" fill="#121A20"/>
<path fill-rule="evenodd" clip-rule="evenodd" d="M75.5584 3.63007C75.7023 3.3218 75.7764 2.98557 75.7754 2.64537C75.7747 2.29865 75.7007 1.95598 75.5584 1.63982C75.4254 1.32736 75.2326 1.0439 74.9909 0.805336C74.7495 0.571389 74.4665 0.3846 74.1565 0.254576C73.8334 0.11697 73.4854 0.0473753 73.1342 0.0501274C72.7925 0.0477726 72.4542 0.117435 72.1412 0.254576C71.5251 0.517267 71.0357 1.00968 70.7768 1.6273C70.6382 1.94864 70.5686 2.29546 70.5723 2.64537C70.5691 2.98446 70.6389 3.32028 70.7768 3.63007C71.0432 4.23871 71.5309 4.72341 72.1412 4.9861C72.4542 5.12324 72.7925 5.19291 73.1342 5.19055C73.4854 5.1933 73.8334 5.12371 74.1565 4.9861C74.4665 4.85608 74.7495 4.66929 74.9909 4.43534C75.2292 4.20508 75.4217 3.93185 75.5584 3.63007ZM75.1662 24.417V7.55627H71.1064V24.417H75.1662Z" fill="#121A20"/>
<path d="M85.2885 24.6799C83.8323 24.6799 82.7057 24.2626 81.9171 23.4281C81.1286 22.5936 80.7363 21.4713 80.7363 20.0276V10.5979H79.0257C78.8165 10.6006 78.614 10.5247 78.4582 10.3851C78.2906 10.2149 78.204 9.98094 78.2204 9.74258V8.13203L80.9324 7.68975L81.7878 3.10009C81.8236 2.89883 81.9319 2.7177 82.0924 2.59105C82.2669 2.46566 82.4785 2.40248 82.6932 2.41164H84.7794V7.70644H89.2147V10.5979H84.7961V19.7355C84.7633 20.1874 84.9035 20.6349 85.1883 20.9873C85.4546 21.2856 85.8402 21.4493 86.2398 21.4337C86.4548 21.4381 86.669 21.4071 86.874 21.3419C87.0248 21.2877 87.1725 21.225 87.3163 21.1542C87.4414 21.0874 87.5541 21.0248 87.6542 20.9622C87.7431 20.9066 87.8456 20.8763 87.9505 20.8746C88.0562 20.8704 88.1603 20.9012 88.2467 20.9622C88.3397 21.0421 88.4224 21.1332 88.4929 21.2334L89.7071 23.1861C89.1049 23.6839 88.4141 24.0633 87.6709 24.3043C86.9017 24.555 86.0975 24.6818 85.2885 24.6799Z" fill="#121A20"/>
<path d="M104.311 11.1236C104.208 11.2586 104.088 11.3805 103.956 11.4866C103.807 11.5816 103.632 11.6269 103.455 11.6159C103.238 11.6135 103.027 11.5483 102.846 11.4282C102.65 11.303 102.429 11.1611 102.141 11.0109C101.829 10.8391 101.5 10.6993 101.16 10.5937C100.706 10.4574 100.233 10.394 99.7584 10.4059C99.1131 10.3921 98.4729 10.5233 97.885 10.7898C97.3537 11.0434 96.8936 11.4247 96.5457 11.8997C96.1685 12.4264 95.8978 13.0216 95.7487 13.6521C95.5647 14.4128 95.4764 15.1935 95.4859 15.9761C95.4757 16.7848 95.5711 17.5913 95.7696 18.3753C95.9331 19.0112 96.2163 19.6102 96.6041 20.1402C96.9496 20.6029 97.402 20.975 97.9226 21.225C98.467 21.4788 99.0619 21.6057 99.6625 21.5964C100.196 21.6146 100.728 21.5339 101.231 21.3585C101.587 21.2237 101.926 21.0472 102.241 20.8328C102.516 20.6409 102.754 20.4656 102.959 20.3071C103.151 20.1517 103.391 20.0677 103.639 20.0693C103.934 20.0548 104.215 20.1976 104.377 20.4448L105.562 21.9051C105.135 22.4087 104.642 22.8535 104.098 23.2278C103.587 23.5691 103.038 23.8492 102.462 24.0623C101.898 24.2786 101.312 24.4311 100.714 24.5171C100.121 24.6033 99.5229 24.6465 98.9239 24.6464C97.9139 24.6543 96.9128 24.4555 95.9824 24.0623C95.0655 23.6788 94.2438 23.0992 93.5749 22.3641C92.8593 21.5665 92.3066 20.6367 91.9477 19.627C91.5292 18.4431 91.3257 17.194 91.3468 15.9386C91.3347 14.7774 91.5109 13.622 91.8684 12.5172C92.2005 11.5054 92.7342 10.5715 93.4372 9.77173C94.1484 8.98507 95.0246 8.3653 96.0033 7.95672C97.1184 7.49917 98.3154 7.27482 99.5206 7.29748C100.653 7.27462 101.779 7.48186 102.829 7.90666C103.786 8.31685 104.653 8.90921 105.383 9.65073L104.311 11.1236Z" fill="#121A20"/>
<path d="M108.145 24.417V0H112.205V9.38378C112.845 8.76927 113.577 8.25828 114.374 7.86919C115.243 7.46764 116.192 7.27066 117.149 7.29339C117.989 7.27825 118.824 7.43884 119.598 7.76488C120.286 8.05918 120.896 8.50909 121.38 9.07919C121.875 9.67186 122.244 10.3589 122.465 11.0986C122.719 11.937 122.845 12.8094 122.836 13.6855V24.417H118.776V13.6855C118.834 12.8313 118.587 11.9841 118.08 11.2947C117.529 10.705 116.739 10.3979 115.935 10.4603C115.248 10.4566 114.571 10.6199 113.961 10.9359C113.318 11.2761 112.731 11.7138 112.221 12.2335V24.417H108.145Z" fill="#121A20"/>
<path fill-rule="evenodd" clip-rule="evenodd" d="M131.544 3.62995C131.688 3.32169 131.762 2.98546 131.761 2.64526C131.76 2.30617 131.689 1.97093 131.552 1.66057C131.419 1.34812 131.227 1.06465 130.985 0.826088C130.743 0.592141 130.46 0.405351 130.15 0.275328C129.827 0.137722 129.479 0.0681273 129.128 0.0708793C128.786 0.0685246 128.448 0.138187 128.135 0.275328C127.519 0.538019 127.03 1.03043 126.771 1.64805C126.632 1.96939 126.562 2.31621 126.566 2.66613C126.563 3.00522 126.633 3.34103 126.771 3.65082C127.037 4.25946 127.525 4.74417 128.135 5.00685C128.447 5.1357 128.782 5.19822 129.12 5.19044C129.471 5.19319 129.819 5.1236 130.142 4.98599C130.452 4.85597 130.735 4.66918 130.976 4.43523C131.215 4.20497 131.407 3.93174 131.544 3.62995ZM131.152 24.417V7.55627H127.092V24.417H131.152Z" fill="#121A20"/>
<path fill-rule="evenodd" clip-rule="evenodd" d="M145.618 7.80662C144.684 7.45789 143.694 7.28393 142.697 7.29341C141.53 7.26551 140.371 7.48152 139.292 7.92762C138.33 8.3389 137.463 8.94558 136.747 9.70924C136.042 10.4753 135.497 11.3748 135.145 12.3546C134.766 13.3946 134.577 14.494 134.586 15.6007C134.561 16.9304 134.777 18.2536 135.224 19.5061C135.609 20.5596 136.208 21.5215 136.985 22.3308C137.724 23.0908 138.622 23.6791 139.613 24.054C140.658 24.4516 141.767 24.6498 142.885 24.6382C143.497 24.6372 144.109 24.594 144.716 24.5088C145.349 24.4211 145.971 24.2687 146.573 24.054C147.186 23.8437 147.772 23.5637 148.321 23.2195C148.888 22.8553 149.399 22.4096 149.836 21.8969L148.651 20.4157C148.569 20.3003 148.462 20.2047 148.338 20.1361C148.209 20.0698 148.066 20.0368 147.921 20.0402C147.645 20.0457 147.375 20.125 147.14 20.2696C146.869 20.424 146.56 20.5909 146.202 20.7787C145.8 20.9838 145.381 21.1541 144.95 21.2877C144.398 21.4522 143.824 21.5296 143.248 21.5172C142.053 21.5709 140.888 21.132 140.026 20.303C139.214 19.4936 138.75 18.2224 138.633 16.4894H149.064C149.22 16.4942 149.376 16.4687 149.523 16.4143C149.643 16.3663 149.745 16.2797 149.811 16.1682C149.893 16.022 149.943 15.8597 149.957 15.6925C149.988 15.4392 150.002 15.1841 149.999 14.9289C150.018 13.8228 149.834 12.7224 149.456 11.6828C149.121 10.7874 148.6 9.97273 147.929 9.292C147.275 8.6359 146.486 8.12917 145.618 7.80662ZM140.001 11.2154C140.752 10.516 141.756 10.1542 142.78 10.214L142.784 10.2057C143.324 10.1954 143.86 10.2992 144.357 10.5103C144.788 10.7007 145.17 10.986 145.476 11.3448C145.776 11.7051 146 12.1223 146.135 12.5714C146.279 13.0532 146.351 13.5539 146.348 14.0568H138.721C138.831 12.9965 139.28 12 140.001 11.2154Z" fill="#121A20"/>
<path fill-rule="evenodd" clip-rule="evenodd" d="M3.36714 0.504883H37.6436V0.521573C39.4912 0.521521 40.9928 2.01198 41.0066 3.85951V21.0457C41.002 22.9004 39.4983 24.4022 37.6436 24.4045H3.36714C1.51078 24.4045 0.00460067 22.9021 0 21.0457V3.84282C0.0160321 1.99461 1.51887 0.504813 3.36714 0.504883ZM38.7284 3.85951C38.7238 3.26363 38.2395 2.783 37.6436 2.78302H3.36715C3.08054 2.78191 2.80523 2.89471 2.60178 3.09659C2.39834 3.29847 2.28342 3.5729 2.28232 3.85951V21.0374C2.28342 21.324 2.39834 21.5984 2.60178 21.8003C2.80523 22.0022 3.08054 22.115 3.36715 22.1139H37.6436C38.2363 22.1139 38.7193 21.6383 38.7284 21.0457V3.85951Z" fill="url(#paint0_linear)"/>
<path d="M27.9928 18.2752H22.2056C21.5006 18.2356 20.9491 17.6524 20.9491 16.9462C20.9491 16.2401 21.5006 15.6568 22.2056 15.6173H27.9928C28.4853 15.5897 28.9527 15.8368 29.2073 16.2593C29.4619 16.6819 29.4619 17.2106 29.2073 17.6331C28.9527 18.0557 28.4853 18.3028 27.9928 18.2752Z" fill="url(#paint1_linear)"/>
<path d="M14.1236 17.5867L19.4977 12.2126C19.6596 12.0555 19.7509 11.8395 19.7509 11.6139C19.7509 11.3883 19.6596 11.1723 19.4977 11.0151L14.1236 5.64103C13.9665 5.47916 13.7505 5.38782 13.5249 5.38782C13.2993 5.38782 13.0833 5.47916 12.9262 5.64103L11.9331 6.6299C11.7699 6.78718 11.6777 7.00408 11.6777 7.23073C11.6777 7.45737 11.7699 7.67427 11.9331 7.83156L15.1167 11.0151C15.2786 11.1723 15.3699 11.3883 15.3699 11.6139C15.3699 11.8395 15.2786 12.0555 15.1167 12.2126L11.9331 15.3962C11.7699 15.5534 11.6777 15.7703 11.6777 15.997C11.6777 16.2236 11.7699 16.4405 11.9331 16.5978L12.9345 17.5867C13.0914 17.7459 13.3055 17.8356 13.5291 17.8356C13.7526 17.8356 13.9668 17.7459 14.1236 17.5867Z" fill="url(#paint2_linear)"/>
<defs>
<linearGradient id="paint0_linear" x1="20.1945" y1="34.9177" x2="40.0002" y2="1.4144" gradientUnits="userSpaceOnUse">
<stop stop-color="#90B424"/>
<stop offset="0.01" stop-color="#90B424"/>
<stop offset="1" stop-color="#56A980"/>
</linearGradient>
<linearGradient id="paint1_linear" x1="26.524" y1="19.4802" x2="27.7062" y2="14.8091" gradientUnits="userSpaceOnUse">
<stop stop-color="#003050"/>
<stop offset="1" stop-color="#00172D"/>
</linearGradient>
<linearGradient id="paint2_linear" x1="13.4566" y1="21.1247" x2="22.5825" y2="16.4" gradientUnits="userSpaceOnUse">
<stop stop-color="#D6480D"/>
<stop offset="1" stop-color="#E59200"/>
</linearGradient>
</defs>
</svg>
