<svg width="150" height="32" viewBox="0 0 150 32" fill="none" xmlns="http://www.w3.org/2000/svg">
<path fill-rule="evenodd" clip-rule="evenodd" d="M50.9177 24.7707V0.00287062H59.2481C60.6106 -0.0234643 61.9708 0.131491 63.2946 0.463869C64.2873 0.708748 65.2232 1.15211 66.0488 1.76858C66.7396 2.30918 67.2825 3.02377 67.6251 3.84308C67.9684 4.71292 68.1384 5.64456 68.1251 6.58297C68.1268 7.1496 68.0424 7.71304 67.8751 8.253C67.7009 8.79181 67.4387 9.29626 67.0996 9.74473C66.7212 10.2325 66.2709 10.6566 65.7649 11.0016C65.1662 11.4075 64.518 11.7307 63.837 11.9627C67.1505 12.7282 68.8073 14.5664 68.8073 17.4773C68.8168 18.4784 68.619 19.4702 68.2268 20.3868C67.8399 21.2775 67.2603 22.0658 66.5319 22.6918C65.7184 23.3764 64.783 23.8919 63.7777 24.2096C62.5678 24.5933 61.3065 24.7782 60.0404 24.7576L50.9177 24.7707ZM55.4098 10.7233H58.9988C60.5199 10.7233 61.6767 10.4406 62.4691 9.85352C63.2614 9.2664 63.6513 8.37485 63.6513 7.13102C63.6513 5.88719 63.2953 4.92171 62.5835 4.37373C61.8716 3.82575 60.7615 3.55176 59.2488 3.55176H55.4098V10.7233ZM55.4098 21.1741V13.9112H59.9479C60.6291 13.8973 61.3089 13.9777 61.9691 14.1504C62.4665 14.2826 62.9323 14.5179 63.3377 14.8419C63.6849 15.1353 63.9545 15.5137 64.1216 15.9422C64.2935 16.4029 64.3784 16.8929 64.3716 17.3861C64.3739 17.881 64.298 18.373 64.147 18.843C63.9968 19.2972 63.7442 19.7084 63.4097 20.0434C63.0238 20.4163 62.5622 20.697 62.0581 20.8653C61.3822 21.0885 60.6746 21.1929 59.9649 21.1741H55.4098Z" fill="#121A20"/>
<path fill-rule="evenodd" clip-rule="evenodd" d="M82.4158 8.78272C81.4985 8.42739 80.5273 8.24977 79.5495 8.2585C78.3933 8.23472 77.2452 8.46602 76.1795 8.93741C75.2346 9.36051 74.384 9.98535 73.6817 10.7722C72.9889 11.5605 72.4542 12.4869 72.1093 13.4964C71.7395 14.5679 71.5537 15.6998 71.5606 16.8394C71.5352 18.2078 71.7489 19.5695 72.1912 20.857C72.5683 21.9424 73.1552 22.9343 73.9151 23.7703C74.6433 24.5497 75.5232 25.155 76.4948 25.5449C77.5203 25.9519 78.6088 26.1559 79.7051 26.1465C80.3066 26.1442 80.9072 26.0982 81.5027 26.009C82.1232 25.918 82.7336 25.7625 83.3249 25.5449C83.9291 25.3232 84.5064 25.0275 85.0447 24.664C85.6007 24.2901 86.1003 23.8309 86.527 23.3019L85.3641 21.7808C85.284 21.6631 85.1806 21.5649 85.061 21.4929C84.9349 21.4233 84.7941 21.3878 84.6516 21.3898C84.3812 21.3982 84.1175 21.4795 83.8858 21.6261C83.6238 21.7851 83.3167 21.9613 82.9686 22.1503C82.5749 22.3632 82.1638 22.5386 81.7402 22.6746C81.2 22.8452 80.6377 22.9264 80.0736 22.9152C78.9001 22.9724 77.7562 22.5184 76.9125 21.6605C76.1181 20.8269 75.6608 19.5178 75.5407 17.7331H85.7776C85.9308 17.7393 86.0838 17.7145 86.2281 17.6601C86.3454 17.609 86.4443 17.5202 86.5106 17.4066C86.5905 17.2537 86.6406 17.0858 86.658 16.9124C86.6853 16.6513 86.6976 16.3888 86.6949 16.1261C86.714 14.9884 86.5335 13.8567 86.1625 12.7874C85.8418 11.8625 85.3364 11.0201 84.6802 10.3167C84.0398 9.63989 83.2673 9.11658 82.4158 8.78272ZM76.9048 12.2975C77.6404 11.5784 78.6241 11.2059 79.6278 11.2663L79.6073 11.2534C80.1463 11.2391 80.6816 11.3491 81.1756 11.5756C81.5984 11.7718 81.9735 12.0655 82.273 12.435C82.5682 12.804 82.7884 13.2324 82.92 13.694C83.0615 14.1917 83.1318 14.7086 83.1288 15.228H75.6477C75.7549 14.1345 76.1958 13.1067 76.9048 12.2975Z" fill="#121A20"/>
<path fill-rule="evenodd" clip-rule="evenodd" d="M102.622 25.8767H104.587L104.583 14.9815C104.594 14.064 104.442 13.1514 104.133 12.2824C103.856 11.4882 103.407 10.7584 102.816 10.1402C102.221 9.54079 101.499 9.06903 100.697 8.75635C99.794 8.413 98.828 8.24406 97.8555 8.25936C95.0576 8.20174 92.3457 9.1818 90.2917 10.9928L91.0877 12.3252C91.2173 12.5385 91.3937 12.7226 91.6048 12.8651C91.8254 13.0173 92.0926 13.0956 92.3648 13.0878C92.7065 13.0902 93.0428 13.0075 93.3406 12.8479C93.6329 12.6937 93.9567 12.5137 94.3029 12.3167C94.6947 12.1021 95.1074 11.9242 95.5351 11.7854C96.1083 11.6155 96.7067 11.5359 97.3069 11.5498C98.1537 11.4973 98.98 11.8122 99.5553 12.4066C100.068 12.9522 100.324 13.809 100.324 14.9772V15.9969C98.5793 15.9634 96.8366 16.1332 95.1349 16.5025C93.9552 16.7592 92.8258 17.193 91.7892 17.7878C91.0466 18.2042 90.4275 18.794 89.9905 19.5015C89.6435 20.0939 89.458 20.7597 89.4508 21.4381C89.4354 22.1388 89.5685 22.8353 89.8421 23.486C90.0816 24.0501 90.4539 24.5544 90.9303 24.9598C91.4162 25.3653 91.9861 25.6689 92.6031 25.851C93.2919 26.0534 94.0094 26.1531 94.7302 26.1466C95.3246 26.1511 95.9181 26.0994 96.5019 25.9923C97.0191 25.8962 97.5231 25.7438 98.0039 25.5382C98.4862 25.3299 98.9469 25.0789 99.3799 24.7884C99.8479 24.4651 100.298 24.119 100.729 23.7516L101.12 24.9812C101.188 25.2786 101.379 25.5369 101.651 25.6967C101.955 25.8307 102.288 25.8924 102.622 25.8767ZM96.0906 23.2759C96.5061 23.2788 96.9208 23.24 97.3279 23.1602C97.6978 23.0854 98.0571 22.9689 98.3981 22.8132C98.7428 22.6535 99.0697 22.4611 99.374 22.2391C99.7076 21.9914 100.023 21.7223 100.318 21.4336V18.5331C99.2475 18.5165 98.1774 18.5925 97.121 18.7602C96.4109 18.8707 95.7186 19.0679 95.0615 19.3471C94.6203 19.5253 94.2369 19.8122 93.9507 20.1783C93.7367 20.4857 93.6226 20.8463 93.6225 21.2151C93.5619 21.8174 93.8178 22.4092 94.306 22.7961C94.831 23.1352 95.457 23.3035 96.0906 23.2759Z" fill="#121A20"/>
<path fill-rule="evenodd" clip-rule="evenodd" d="M113.615 8.25695C114.319 8.25348 115.021 8.32863 115.707 8.48099C116.33 8.62257 116.931 8.84428 117.495 9.14041H122.477V10.6706C122.491 10.8889 122.419 11.104 122.275 11.2708C122.084 11.4419 121.842 11.5473 121.585 11.571L120.029 11.8542C120.144 12.15 120.232 12.4556 120.29 12.7672C120.355 13.103 120.387 13.4442 120.385 13.786C120.396 14.5774 120.22 15.3605 119.87 16.0728C119.532 16.7489 119.048 17.3434 118.451 17.8143C117.812 18.3103 117.085 18.6857 116.307 18.9218C115.435 19.1867 114.527 19.3179 113.615 19.3107C112.974 19.3129 112.335 19.252 111.707 19.129C111.167 19.4544 110.892 19.818 110.892 20.2195C110.882 20.5468 111.073 20.8479 111.377 20.9804C111.782 21.1687 112.217 21.286 112.663 21.327C113.255 21.395 113.851 21.4275 114.447 21.4243C115.111 21.4243 115.789 21.4539 116.487 21.5088C117.175 21.5621 117.858 21.6595 118.533 21.8005C119.157 21.9257 119.758 22.1483 120.312 22.4599C120.839 22.7568 121.281 23.1799 121.598 23.69C121.94 24.2992 122.106 24.9893 122.078 25.6851C122.075 26.4552 121.881 27.2127 121.512 27.8917C121.11 28.6333 120.551 29.2818 119.874 29.7939C119.085 30.3902 118.195 30.8452 117.246 31.1381C116.1 31.4944 114.903 31.6671 113.701 31.6495C112.546 31.6677 111.393 31.5413 110.271 31.2733C109.419 31.0726 108.607 30.7356 107.866 30.2757C107.281 29.9135 106.791 29.4195 106.438 28.8343C106.133 28.3214 105.97 27.7382 105.966 27.1435C105.942 26.4038 106.208 25.6834 106.708 25.1314C107.277 24.5399 107.983 24.0932 108.766 23.8295C108.351 23.6077 107.997 23.2883 107.737 22.8995C107.461 22.443 107.327 21.917 107.351 21.3862C107.353 21.1161 107.398 20.8479 107.484 20.5915C107.586 20.303 107.73 20.031 107.913 19.7842C108.111 19.503 108.346 19.2487 108.612 19.0275C108.915 18.7755 109.25 18.5611 109.606 18.3892C108.767 17.9525 108.055 17.3106 107.54 16.5251C107.027 15.7054 106.767 14.757 106.789 13.7944C106.759 12.2211 107.482 10.7256 108.74 9.75756C109.388 9.25417 110.127 8.87818 110.918 8.65007C111.792 8.38724 112.701 8.25473 113.615 8.25695ZM118.19 26.3529C118.205 26.0426 118.095 25.739 117.885 25.5075C117.655 25.2762 117.371 25.1048 117.058 25.0087C116.66 24.8798 116.251 24.7905 115.836 24.7424C115.342 24.6852 114.845 24.657 114.348 24.6578H112.727C112.185 24.6603 111.644 24.5993 111.115 24.4761C110.678 24.701 110.29 25.01 109.975 25.3849C109.692 25.7236 109.54 26.1506 109.546 26.5896C109.544 26.8869 109.624 27.179 109.778 27.435C109.953 27.7209 110.203 27.9546 110.502 28.1113C110.906 28.3171 111.34 28.4597 111.789 28.5341C112.429 28.6483 113.08 28.7006 113.731 28.6905C114.405 28.6997 115.079 28.6402 115.741 28.5129C116.229 28.4203 116.698 28.255 117.135 28.0226C117.463 27.845 117.739 27.5874 117.937 27.2744C118.098 26.9962 118.185 26.6819 118.19 26.3613V26.3529ZM114.967 16.5036C114.533 16.6501 114.075 16.7202 113.616 16.7107C113.159 16.7195 112.703 16.6494 112.27 16.5036C111.911 16.3807 111.583 16.1816 111.31 15.9202C111.054 15.6682 110.858 15.3637 110.735 15.0283C110.604 14.6707 110.539 14.2927 110.542 13.9124C110.505 13.1685 110.783 12.4427 111.31 11.9088C112.681 10.9171 114.547 10.9171 115.919 11.9088C116.447 12.4416 116.725 13.1681 116.686 13.9124C116.691 14.2983 116.625 14.6819 116.493 15.0452C116.372 15.3786 116.175 15.6806 115.919 15.9287C115.647 16.1849 115.322 16.3809 114.967 16.5036Z" fill="#121A20"/>
<path d="M130.734 0V24.7707H126.606V0H130.734Z" fill="#121A20"/>
<path fill-rule="evenodd" clip-rule="evenodd" d="M145.717 8.7829C144.8 8.4272 143.829 8.24957 142.851 8.25868C141.696 8.23448 140.55 8.4658 139.486 8.93758C138.539 9.35928 137.687 9.98427 136.985 10.7723C136.293 11.5617 135.759 12.4878 135.413 13.4966C135.043 14.5681 134.857 15.6999 134.864 16.8395C134.841 18.2077 135.054 19.569 135.495 20.8571C135.872 21.9425 136.458 22.9344 137.218 23.7704C137.947 24.5509 138.828 25.1563 139.801 25.545C140.825 25.9523 141.912 26.1563 143.007 26.1466C143.608 26.1443 144.209 26.0983 144.804 26.0091C145.424 25.9186 146.035 25.7631 146.626 25.545C147.23 25.3233 147.807 25.0276 148.345 24.6641C148.902 24.2911 149.401 23.8319 149.827 23.302L148.668 21.7809C148.588 21.6621 148.483 21.5637 148.361 21.493C148.235 21.4234 148.095 21.388 147.952 21.3899C147.682 21.3988 147.418 21.4802 147.186 21.6262C146.924 21.7852 146.617 21.9614 146.269 22.1505C145.876 22.3633 145.465 22.5387 145.041 22.6747C144.501 22.8453 143.939 22.9265 143.375 22.9153C142.202 22.972 141.058 22.5181 140.215 21.6606C139.418 20.827 138.961 19.5179 138.843 17.7333H149.078C149.231 17.7401 149.384 17.7153 149.528 17.6602C149.645 17.6091 149.744 17.5204 149.811 17.4067C149.89 17.2539 149.941 17.0859 149.958 16.9126C149.987 16.6516 150.001 16.389 149.999 16.1262C150.016 14.9887 149.836 13.8574 149.467 12.7876C149.143 11.8631 148.637 11.0211 147.981 10.3169C147.34 9.64007 146.568 9.11676 145.717 8.7829ZM140.205 12.2978C140.942 11.5776 141.927 11.205 142.932 11.2666V11.2537C143.463 11.2435 143.991 11.3534 144.479 11.576C144.901 11.7731 145.276 12.0667 145.576 12.4353C145.87 12.8045 146.089 13.233 146.219 13.6943C146.36 14.192 146.431 14.709 146.428 15.2283H138.948C139.055 14.1349 139.496 13.107 140.205 12.2978Z" fill="#121A20"/>
<path fill-rule="evenodd" clip-rule="evenodd" d="M13.8716 1.98956C14.055 1.61637 14.4382 1.37844 14.8593 1.37622L14.8469 1.38847C15.068 1.38934 15.2836 1.45628 15.4651 1.58044L40.3116 18.1181L40.8054 18.4449C41.2747 18.7607 41.422 19.3766 41.1452 19.8654C40.8684 20.3541 40.2587 20.5546 39.739 20.3278C38.0239 19.644 36.2306 19.1681 34.3988 18.9105C33.3752 18.7624 32.3421 18.6874 31.3075 18.6859C28.5867 18.6457 25.8986 19.2732 23.4859 20.5116C23.3253 20.5972 23.1457 20.6421 22.9631 20.6423C22.7935 20.6422 22.6262 20.6045 22.4734 20.532C22.152 20.3714 21.9305 20.0665 21.8801 19.7151C20.5685 11.3256 16.7899 6.61513 14.0203 3.16245L13.9962 3.13251C13.7366 2.80613 13.6882 2.36274 13.8716 1.98956ZM19.435 6.83971L19.4064 6.82069H19.423C19.427 6.82703 19.431 6.83337 19.435 6.83971ZM19.435 6.83971C21.5768 10.2416 23.0598 14.0046 23.8089 17.9384C26.1855 16.9613 28.7398 16.4721 31.3152 16.5007C32.2862 16.5029 33.2561 16.5629 34.2197 16.6804L19.435 6.83971Z" fill="url(#paint0_linear)"/>
<path fill-rule="evenodd" clip-rule="evenodd" d="M0.131379 2.12244C0.356177 1.66317 0.832705 1.37233 1.35394 1.37626V1.3977C1.62523 1.39847 1.88996 1.47917 2.11353 1.62924C2.89507 2.15235 13.3712 9.06854 33.239 22.1849L35.1885 23.4712C35.6769 23.7923 35.8932 24.3872 35.7216 24.9371C35.55 25.4871 35.0308 25.8631 34.4421 25.8638C34.2513 25.8648 34.0625 25.8253 33.8889 25.748C31.6435 24.8562 29.2945 24.237 26.8945 23.9043C25.5542 23.7111 24.2012 23.6137 22.8463 23.6127C19.278 23.561 15.7529 24.3789 12.5897 25.9924C12.3939 26.0946 12.1751 26.1477 11.953 26.1468C11.7475 26.1482 11.5446 26.1027 11.3603 26.0139C10.967 25.8276 10.694 25.463 10.6314 25.0405C8.89274 14.1453 3.93127 8.00517 0.304571 3.52015C-0.0259124 3.1265 -0.0934189 2.5817 0.131379 2.12244ZM28.5981 21.8505L5.72266 6.74463H5.71827C9.25418 11.7247 11.6406 17.3951 12.7126 23.3641C15.8975 21.9683 19.3557 21.2674 22.8463 21.3102C24.3158 21.3123 25.7832 21.4183 27.237 21.6275C27.72 21.6918 28.159 21.769 28.5981 21.8505Z" fill="url(#paint1_linear)"/>
<defs>
<linearGradient id="paint0_linear" x1="27.2863" y1="21.8648" x2="33.3887" y2="9.61085" gradientUnits="userSpaceOnUse">
<stop stop-color="#D6480D"/>
<stop offset="1" stop-color="#E59200"/>
</linearGradient>
<linearGradient id="paint1_linear" x1="16.0061" y1="27.0437" x2="22.4989" y2="13.8143" gradientUnits="userSpaceOnUse">
<stop stop-color="#90B424"/>
<stop offset="0.01" stop-color="#90B424"/>
<stop offset="1" stop-color="#56A980"/>
</linearGradient>
</defs>
</svg>
