<svg width="226" height="51" viewBox="0 0 226 51" fill="none" xmlns="http://www.w3.org/2000/svg">
<g clip-path="url(#clip0)">
<path fill-rule="evenodd" clip-rule="evenodd" d="M41.4854 11.9541C40.8654 13.2168 39.9096 14.5005 38.79 15.7305C38.4722 16.0797 38.2393 16.3886 38.0612 16.6658C38.0793 19.5224 38.1226 25.0861 38.1416 25.8787C38.258 30.6996 36.513 34.8263 32.8052 38.4947C32.2916 39.0033 31.7587 39.473 31.2097 39.944C31.7182 39.5077 30.0283 41.0608 27.2594 42.8462C25.3726 44.0124 23.3125 45.0267 21.0521 45.899C16.4518 44.1186 12.6367 41.692 9.40611 38.4947C8.82089 37.9156 8.28785 37.3248 7.80031 36.7221H7.79708L7.77939 36.6958C7.11957 35.8777 6.54577 35.0372 6.06341 34.1712C6.06643 34.1694 6.06966 34.1675 6.07268 34.1658L5.34817 33.0919C3.23823 32.6341 1.42629 31.3663 0.257141 29.6296C0.406573 30.5854 0.618537 31.5185 0.901228 32.4279C1.43427 34.0613 1.61324 34.3879 2.54109 36.217C3.56404 38.0291 4.89577 39.748 6.55095 41.3857C10.3661 45.1618 14.8807 47.9727 20.353 49.9793L21.0518 50.2353L21.7503 49.9793C27.3385 47.9302 31.8886 45.1191 35.6606 41.3859C40.2071 36.887 42.3466 31.7825 42.2017 25.7811C42.1883 25.2177 42.1763 17.2922 42.1685 10.376C41.96 10.9072 41.7387 11.4384 41.4854 11.9541Z" fill="#D63C1A"/>
<path fill-rule="evenodd" clip-rule="evenodd" d="M42.158 0L42.1582 0.264031C42.1582 0.274171 42.1583 0.28459 42.1583 0.295287L42.1584 0.517269C42.1585 0.531211 42.1585 0.545417 42.1585 0.559884L42.1587 0.796227C42.1587 0.813253 42.1587 0.830531 42.1587 0.848056L42.1589 1.07013C42.1589 1.08961 42.1589 1.10932 42.1589 1.12928L42.1591 1.31518C42.1591 1.33654 42.1591 1.35812 42.1591 1.37994L42.1593 1.58236C42.1593 1.60552 42.1594 1.6289 42.1594 1.65251L42.1595 1.79674C42.1595 1.82121 42.1595 1.84589 42.1596 1.87079L42.1597 2.02272C42.1597 2.04846 42.1597 2.07441 42.1598 2.10056L42.16 2.34146C42.16 2.36883 42.16 2.3964 42.16 2.42416L42.1602 2.59311C42.1603 2.67875 42.1603 2.76612 42.1604 2.85517L42.1606 3.03547C42.1606 3.06589 42.1606 3.09648 42.1607 3.12726L42.1608 3.31406C42.161 3.47149 42.1611 3.63329 42.1613 3.79918L42.1615 4.00019C42.1624 4.9811 42.1635 6.09594 42.1647 7.2905L42.1432 7.35769C41.9065 8.09601 41.6802 8.80203 41.639 8.91265L41.5504 9.14996C41.2538 9.94299 40.9433 10.7532 40.574 11.5057L40.5002 11.6531C39.8984 12.8318 39.0258 14.0032 38.0527 15.0311L38.0524 15.0316L38.0522 15.0319L37.941 15.1556C37.8666 15.2378 37.7916 15.3196 37.7154 15.4002L37.59 15.5319C36.4582 16.7143 35.2472 17.8022 33.8054 18.6058L33.5647 18.7407C33.0035 19.0564 32.4443 19.3778 31.8645 19.6547L31.8202 19.6758C31.2578 19.9431 31.2139 19.9463 31.2109 20.5443L31.2107 20.6411L31.2107 20.7268L31.2105 21.1047C31.2105 21.1385 31.2105 21.1728 31.2105 21.2077L31.2103 21.893C31.2103 21.9342 31.2103 21.9759 31.2103 22.0181L31.2101 22.9728C31.2101 23.0215 31.2101 23.0705 31.2101 23.12L31.2099 24.5529C31.2099 24.6093 31.2099 24.6661 31.2098 24.7232L31.2097 27.1043C31.2096 27.1688 31.2096 27.2335 31.2096 27.2985L31.2094 38.6264L31.1409 38.6857C30.2552 39.4509 28.7037 40.7177 27.2586 41.6902L27.2587 40.4804C27.2586 40.4356 27.2586 40.3896 27.2586 40.3426L27.2585 37.614C27.2584 37.5419 27.2584 37.4691 27.2584 37.3957L27.2582 35.2892C27.2582 35.2074 27.2582 35.1251 27.2582 35.0426L27.258 33.5286C27.258 33.4432 27.258 33.3577 27.258 33.2721L27.2578 31.9826C27.2578 31.8965 27.2578 31.8104 27.2578 31.7244L27.2576 30.6963C27.2576 30.6111 27.2576 30.5261 27.2575 30.4413L27.2574 29.4343C27.2574 29.3515 27.2573 29.2689 27.2573 29.1867L27.2572 28.4565C27.2572 28.3766 27.2571 28.297 27.2571 28.2179L27.257 27.5187C27.257 27.4425 27.2569 27.3668 27.2569 27.2917L27.2567 26.6316C27.2567 26.5601 27.2567 26.4892 27.2567 26.419L27.2565 25.8061C27.2565 25.7402 27.2565 25.675 27.2565 25.6106L27.2563 25.234C27.2563 25.1728 27.2563 25.1125 27.2563 25.0531L27.2561 24.5424C27.256 24.4884 27.256 24.4354 27.256 24.3833L27.2559 24.0831C27.2558 24.0351 27.2558 23.9881 27.2558 23.9422L27.2556 23.6798C27.2556 23.6382 27.2556 23.5978 27.2556 23.5586L27.2554 23.337C27.2554 23.3024 27.2554 23.2691 27.2554 23.237L27.2552 23.0593L27.2547 22.994C27.2506 22.7323 27.2246 22.4624 27.2039 22.0854L27.1255 22.1199C26.8444 22.2419 26.6305 22.3196 26.4358 22.431L24.9868 23.2653C24.0217 23.8231 23.0576 24.3827 22.09 24.9362L20.6048 25.7821C19.1185 26.6261 17.6297 27.4664 16.1479 28.3184L16.1338 28.3265C15.7516 28.5462 13.7092 29.7315 11.1789 31.2005L11.175 31.1852L11.0409 31.2705C10.6357 31.522 10.2035 31.7335 9.75036 31.9027L9.73634 31.9098L9.7316 31.909L9.59808 31.9569C8.88281 32.2056 8.11711 32.3456 7.31913 32.3551L7.24749 32.3555L7.17552 32.3558L7.02058 32.353C6.60848 32.3412 6.20494 32.2955 5.81317 32.2172L5.81301 32.2172L5.81252 32.217L5.71705 32.1961L5.6219 32.174L5.46107 32.1342C5.19417 32.065 4.93311 31.9825 4.67939 31.8893L4.58311 31.8534L4.48748 31.8159L4.48963 31.8189H4.48942L4.40162 31.7839C1.7485 30.7047 0 28.1585 0 25.1177L0.00125385 24.9883C0.00289903 24.9022 0.00610952 24.8165 0.0105659 24.7311L0.0114284 24.6083H0.019838L0.0277626 24.5048C0.246841 21.888 1.85502 19.6668 4.11336 18.5845L4.22871 18.5304C5.11732 18.1239 6.10281 17.8936 7.14059 17.8806L7.18619 17.8792L7.2318 17.8782L7.34275 17.879C9.70535 17.9146 11.7919 19.085 13.0859 20.8688L13.14 20.9301C13.2635 21.0755 13.367 21.2377 13.446 21.4141L13.5057 21.5164L13.564 21.6196L13.5314 21.6353L13.5528 21.7082C13.5995 21.8794 13.6246 22.0596 13.6246 22.2458L13.6238 22.3038C13.5931 23.4015 12.6944 24.2819 11.5905 24.2819L11.5221 24.2808C10.8402 24.2582 10.2441 23.8996 9.89202 23.3652L9.87197 23.3747L9.82631 23.3074C9.36126 22.6405 8.6463 22.1625 7.81723 22.007L7.72189 21.9906C7.56222 21.9653 7.39873 21.9507 7.2318 21.9507L7.15937 21.9515C5.61856 21.9862 4.35327 23.1252 4.11314 24.6083L4.09805 24.7116C4.08913 24.7807 4.08252 24.8506 4.07821 24.9211L4.07627 25.2753L4.0804 25.344C4.19691 26.9869 5.56123 28.2845 7.2318 28.2845L7.33775 28.2827C7.65418 28.2719 7.95772 28.2127 8.24397 28.1162L8.24375 28.1183L8.25539 28.1119L8.26944 28.1063C8.84133 27.8609 20.0843 21.5376 20.7555 21.1544L20.7416 21.1482C20.3738 20.9887 17.2707 20.02 16.0041 19.3682L15.8228 19.2738C14.077 18.3535 12.5018 17.2067 11.1267 15.7628L10.9827 15.6101C9.83787 14.3837 8.86854 13.049 8.08979 11.5668L8.06591 11.5229C7.88821 11.2088 7.65245 11.061 7.25293 11.0652L7.21807 11.0655C6.96397 11.0677 6.50134 11.0693 6.00728 11.0705L5.86541 11.0708C5.84168 11.0708 5.81791 11.0709 5.79412 11.0709L5.65142 11.0712C5.4138 11.0717 5.17862 11.072 4.96499 11.0723L4.83956 11.0724C4.81913 11.0725 4.79896 11.0725 4.77907 11.0725L4.60788 11.0727C4.58979 11.0727 4.57204 11.0727 4.55463 11.0727L4.36374 11.0729C4.34943 11.0729 4.33555 11.0729 4.32212 11.073L4.06577 11.0731L4.06376 11.0731V14.1094L4.06294 14.1674C4.03228 15.2466 3.14887 16.1121 2.06358 16.1123H2.00363L1.94568 16.1115C0.867585 16.0809 0.00280319 15.1962 0.00280319 14.1094V0H42.158ZM38.0966 4.06563H4.06376V7.11285H4.12285V7.12019L6.9448 7.12008L9.76674 7.12062L9.85965 7.12077C10.4489 7.12298 10.4501 7.15919 10.6931 7.78373L10.7512 7.93141C11.8456 10.6805 13.4947 13.0033 15.9521 14.7308L16.1147 14.8434C17.2024 15.5845 18.3607 16.1435 19.5988 16.599L19.762 16.6578C21.5044 17.2706 23.2889 17.4505 25.1114 17.3597L25.2923 17.3494C26.4965 17.2727 27.6718 17.0333 28.8243 16.6219L29.0267 16.5485C29.9677 16.2014 30.8639 15.7894 31.7254 15.2735L31.8857 15.1757C32.9477 14.516 33.8786 13.7036 34.7307 12.7987L34.8482 12.6725C35.7044 11.7429 36.4392 10.7187 36.9874 9.57359L37.098 9.34287C37.4292 8.65248 37.755 7.97476 38.0861 7.21905L38.0859 7.16832L38.0966 4.06563ZM24.2036 7.25704L24.3261 7.25705L24.6934 7.25723C28.6072 7.26027 32.3724 7.2998 32.6962 7.37813L32.6569 7.51366C32.3074 8.68304 31.7142 9.71689 30.9224 10.6252L30.837 10.7221C29.206 12.5483 27.1203 13.5734 24.6929 13.7463L24.5609 13.7546C20.2113 13.9961 16.2943 10.8554 15.6161 7.3777C15.8594 7.30742 19.1117 7.26723 22.7162 7.25874L22.9624 7.25821C23.0036 7.25813 23.0447 7.25805 23.0859 7.25798L23.3335 7.2576C23.4574 7.25743 23.5816 7.2573 23.7059 7.25721L24.0791 7.25704L24.2036 7.25704Z" fill="#28304D"/>
<path fill-rule="evenodd" clip-rule="evenodd" d="M169.144 15.7218L169.32 15.7228C170.906 15.7417 172.355 16.015 173.665 16.5425L173.815 16.604C175.108 17.1436 176.19 17.8421 177.062 18.7004L175.75 20.7877L175.711 20.8487C175.567 21.0666 175.416 21.2222 175.258 21.3152L175.21 21.3417C175.046 21.4259 174.844 21.4678 174.602 21.4678L174.537 21.4664C174.275 21.4553 173.996 21.3777 173.7 21.2332L173.603 21.1857C173.305 21.0416 172.967 20.8816 172.587 20.7054L172.459 20.6475C172.069 20.4753 171.632 20.3187 171.147 20.1777L171.044 20.1493C170.528 20.0121 169.925 19.9432 169.237 19.9432L169.124 19.9441C168.037 19.9597 167.177 20.202 166.543 20.6705L166.478 20.7194C165.865 21.1974 165.559 21.8144 165.559 22.57L165.56 22.6468C165.576 23.1291 165.743 23.5376 166.062 23.8718L166.131 23.9416C166.458 24.2644 166.88 24.55 167.398 24.798L167.538 24.8639C168.058 25.1035 168.64 25.3197 169.284 25.5134L169.586 25.605C170.192 25.7906 170.81 25.9909 171.439 26.205L171.714 26.3006C172.353 26.5275 172.98 26.781 173.595 27.0613L173.734 27.1265C174.381 27.4364 174.963 27.8211 175.481 28.2809L175.577 28.3688C176.087 28.843 176.5 29.4043 176.816 30.0515L176.859 30.142C177.166 30.8118 177.32 31.6105 177.32 32.5375L177.319 32.6817C177.302 33.7835 177.091 34.8026 176.687 35.7386L176.634 35.8601C176.214 36.7861 175.615 37.5899 174.836 38.2715L174.738 38.3562C173.944 39.0275 172.973 39.5541 171.826 39.9368L171.687 39.9819C170.525 40.3505 169.201 40.5347 167.714 40.5347L167.508 40.5332C166.752 40.5218 166.012 40.4481 165.289 40.312L165.075 40.27C164.363 40.1252 163.677 39.9325 163.017 39.6907L162.836 39.6233C162.179 39.3726 161.567 39.0825 161.002 38.7526L160.861 38.6691C160.302 38.3326 159.806 37.9694 159.374 37.5797L160.709 35.3751L160.757 35.3043C160.918 35.0732 161.106 34.8935 161.318 34.7656L161.37 34.7364C161.595 34.6149 161.875 34.5545 162.209 34.5545L162.28 34.5558C162.613 34.5685 162.929 34.6697 163.228 34.8592L163.336 34.9276C163.631 35.1114 163.966 35.3075 164.341 35.5161L164.448 35.5744C164.845 35.7869 165.305 35.9865 165.828 36.1727L165.915 36.2025C166.471 36.386 167.164 36.4775 167.995 36.4775L168.123 36.4765C168.756 36.4669 169.303 36.3852 169.764 36.2314L169.868 36.1955C170.314 36.0362 170.685 35.8334 170.983 35.5862L171.05 35.5286C171.336 35.2762 171.547 34.9865 171.685 34.6598L171.721 34.5716C171.845 34.2475 171.908 33.9134 171.908 33.5695L171.907 33.4898C171.892 32.9629 171.724 32.5284 171.404 32.1857L171.336 32.1144C171.008 31.7846 170.586 31.496 170.069 31.2476L169.94 31.1868C169.417 30.9455 168.827 30.7271 168.171 30.5322L167.866 30.4406C167.252 30.2548 166.628 30.0548 165.992 29.8402L165.746 29.7553C165.089 29.5248 164.445 29.2599 163.813 28.961L163.672 28.8926C163.019 28.5677 162.433 28.1642 161.916 27.6827L161.824 27.5956C161.312 27.0961 160.897 26.4916 160.58 25.7832L160.539 25.6885C160.23 24.9566 160.077 24.0818 160.077 23.0626L160.078 22.9285C160.095 21.9922 160.289 21.0988 160.662 20.2482L160.714 20.1326C161.103 19.2896 161.659 18.5504 162.384 17.9146L162.48 17.8323C163.221 17.2062 164.134 16.702 165.219 16.3199C166.351 15.921 167.659 15.7218 169.144 15.7218ZM140.139 16.0971V31.3881L140.14 31.5098C140.158 32.921 140.498 34.0178 141.158 34.8008L141.211 34.8619C141.89 35.6265 142.892 36.0085 144.216 36.0085L144.34 36.0073C145.293 35.9895 146.189 35.7671 147.027 35.34L147.165 35.2682C147.989 34.8296 148.771 34.2398 149.511 33.4989V16.0971H155.297V40.1596H151.76L151.694 40.1586C150.981 40.1386 150.511 39.7872 150.284 39.1045L149.885 37.1812L149.718 37.3465C149.271 37.7829 148.811 38.1852 148.339 38.5532L148.206 38.6555C147.713 39.0258 147.192 39.3435 146.64 39.6085L146.489 39.6795C145.931 39.9353 145.333 40.1383 144.696 40.2886L144.546 40.3225C143.894 40.464 143.198 40.5347 142.459 40.5347L142.308 40.5337C141.058 40.5173 139.948 40.2948 138.98 39.8664L138.854 39.8098C137.902 39.3682 137.096 38.7578 136.438 37.9786L136.349 37.8717C135.705 37.0814 135.216 36.1515 134.879 35.082L134.833 34.9289C134.512 33.8521 134.352 32.6719 134.352 31.3881V16.0971H140.139ZM99.3271 15.7218L99.5123 15.7228C101.235 15.7421 102.802 16.0312 104.212 16.5895L104.362 16.6502C105.758 17.2249 106.954 18.0258 107.949 19.052L108.054 19.1628C109.034 20.2053 109.796 21.4658 110.339 22.9451L110.396 23.1043C110.92 24.596 111.182 26.2549 111.182 28.0814L111.181 28.2781C111.162 30.1075 110.881 31.7617 110.339 33.241L110.28 33.3987C109.721 34.8633 108.944 36.116 107.949 37.1577L107.841 37.2684C106.832 38.2934 105.622 39.0853 104.212 39.6437L104.06 39.7025C102.639 40.2416 101.061 40.5114 99.3271 40.5114L99.1419 40.5104C97.4186 40.4911 95.848 40.202 94.4306 39.6437L94.2795 39.583C92.8762 39.0079 91.6733 38.1993 90.6705 37.1577L90.5638 37.0453C89.5764 35.9885 88.8076 34.7207 88.2571 33.241L88.2011 33.0871C87.6683 31.594 87.4021 29.9255 87.4021 28.0814L87.4032 27.8863C87.4221 26.0718 87.7067 24.4249 88.2571 22.9451L88.3169 22.7875C88.883 21.3238 89.6674 20.0788 90.6705 19.052L90.7787 18.9429C91.7958 17.9328 93.013 17.1481 94.4306 16.5895C95.8986 16.0112 97.5309 15.7218 99.3271 15.7218ZM191.892 15.7218L192.067 15.7228C193.514 15.7408 194.85 15.983 196.074 16.449L196.215 16.5037C197.428 16.9863 198.478 17.6756 199.366 18.5713L199.464 18.6718C200.338 19.5834 201.024 20.6916 201.521 21.9954L201.574 22.136C202.054 23.4546 202.295 24.9516 202.295 26.6272L202.294 26.7351C202.291 27.1253 202.271 27.453 202.236 27.7179L202.224 27.7953C202.184 28.048 202.117 28.2487 202.025 28.3981L201.993 28.4459C201.896 28.5851 201.769 28.6866 201.615 28.7499L201.562 28.7699C201.399 28.8267 201.198 28.8552 200.959 28.8552H186.106L186.116 28.9918C186.302 31.3929 186.962 33.161 188.097 34.2965L188.171 34.3696C189.318 35.4781 190.824 36.032 192.689 36.032L192.836 36.0311C193.711 36.0202 194.47 35.9112 195.114 35.7037L195.269 35.6527C195.884 35.4474 196.426 35.2221 196.894 34.9765L197.031 34.9046C197.482 34.6669 197.881 34.4488 198.23 34.2497L198.306 34.2074C198.661 34.0167 199.007 33.9211 199.342 33.9211L199.412 33.9226C199.617 33.931 199.797 33.9776 199.952 34.0619L200.008 34.0946C200.156 34.1858 200.285 34.3078 200.397 34.4606L202.083 36.5714L201.97 36.7026C201.358 37.3954 200.678 37.9812 199.928 38.4593L199.768 38.5596C199.02 39.0214 198.242 39.3944 197.433 39.6789L197.233 39.7476C196.43 40.0162 195.615 40.2081 194.786 40.3238L194.541 40.3564C193.729 40.4597 192.94 40.5114 192.173 40.5114L191.995 40.5103C190.391 40.4912 188.897 40.2138 187.511 39.6789L187.363 39.6205C185.988 39.0672 184.788 38.2657 183.762 37.2162L183.657 37.1067C182.645 36.0399 181.845 34.732 181.256 33.1825L181.199 33.0315C180.628 31.4637 180.342 29.6572 180.342 27.6124L180.343 27.4303C180.362 25.8563 180.627 24.3732 181.138 22.9803L181.196 22.8261C181.724 21.4446 182.466 20.2374 183.423 19.2046L183.53 19.0907C184.501 18.0734 185.676 17.2631 187.054 16.6599C188.483 16.0348 190.096 15.7218 191.892 15.7218ZM217.054 15.7218L217.227 15.7227C218.951 15.7407 220.467 16.0299 221.775 16.5895L221.924 16.6548C223.215 17.2297 224.38 18.0366 225.418 19.0755L223.895 21.1861L223.838 21.2574C223.686 21.4429 223.537 21.5912 223.391 21.7022L223.355 21.7282C223.193 21.8362 222.966 21.8898 222.677 21.8898L222.608 21.8882C222.335 21.8755 222.069 21.7862 221.81 21.6202L221.724 21.5656C221.461 21.3997 221.153 21.2146 220.802 21.0104L220.703 20.9543C220.334 20.7502 219.902 20.5654 219.408 20.4004L219.317 20.3714C218.795 20.2113 218.158 20.1308 217.405 20.1308L217.273 20.1319C216.312 20.1472 215.466 20.3309 214.734 20.6821L214.631 20.7332C213.911 21.0978 213.309 21.6085 212.825 22.2652L212.753 22.3645C212.281 23.033 211.926 23.8324 211.689 24.7629L211.652 24.9104C211.426 25.8512 211.314 26.9082 211.314 28.0814L211.315 28.2636C211.327 29.4722 211.463 30.5527 211.724 31.5055L211.762 31.641C212.033 32.5823 212.415 33.3775 212.907 34.0267L212.981 34.1227C213.482 34.7556 214.082 35.2397 214.781 35.5746L214.882 35.6215C215.591 35.942 216.385 36.1021 217.265 36.1021L217.389 36.1014C218.253 36.0916 218.958 35.9787 219.502 35.7622L219.623 35.7133C220.14 35.4998 220.58 35.2658 220.943 35.0116L221.058 34.9304C221.4 34.6886 221.702 34.4655 221.962 34.2613L222.02 34.2175C222.294 34.02 222.599 33.9211 222.934 33.9211L222.995 33.9222C223.433 33.9371 223.764 34.1166 223.989 34.4606L225.652 36.571V36.5716L225.531 36.7109C224.924 37.4001 224.27 37.9831 223.567 38.4593L223.416 38.5596C222.713 39.0214 221.986 39.3944 221.236 39.6789L221.063 39.7428C220.312 40.0139 219.538 40.2074 218.74 40.3238L218.506 40.3564C217.727 40.4597 216.954 40.5114 216.187 40.5114L216.028 40.5103C214.603 40.4912 213.258 40.2138 211.993 39.6789L211.853 39.6184C210.6 39.066 209.502 38.2769 208.561 37.2514L208.457 37.1366C207.53 36.0952 206.791 34.8319 206.241 33.3465L206.185 33.1918C205.652 31.6894 205.386 29.9858 205.386 28.0814L205.387 27.8857C205.405 26.1937 205.659 24.6213 206.148 23.1681L206.203 23.0072C206.709 21.5663 207.436 20.3142 208.385 19.2514L208.488 19.1382C209.453 18.0898 210.637 17.2639 212.04 16.6599C213.492 16.0348 215.164 15.7218 217.054 15.7218ZM60.319 6.24683V20.8345H76.2034V6.24683H82.5526V40.1596H76.2034V25.3375H60.319V40.1596H53.97V6.24683H60.319ZM128.074 15.6514L128.192 15.6523C129.326 15.67 130.271 15.9433 131.026 16.4723L130.276 20.811L130.265 20.87C130.214 21.1205 130.116 21.3003 129.972 21.4089L129.931 21.437C129.78 21.5357 129.582 21.585 129.339 21.585L129.287 21.5842C129.058 21.577 128.755 21.5226 128.378 21.4208L128.305 21.4021C127.908 21.3053 127.394 21.2567 126.762 21.2567L126.646 21.2578C125.493 21.2785 124.5 21.6104 123.669 22.2535L123.581 22.3234C122.76 22.9856 122.063 23.9354 121.49 25.1732V40.1596H115.704V16.0971H119.101L119.177 16.0978C119.73 16.1069 120.118 16.2161 120.342 16.4255L120.379 16.4613C120.593 16.6845 120.737 17.0477 120.811 17.5509L121.162 20.4591L121.249 20.3117C122.088 18.8962 123.067 17.7727 124.185 16.9414C125.34 16.0816 126.637 15.6514 128.074 15.6514ZM99.3271 20.1544L99.2169 20.155C97.2422 20.1795 95.7797 20.8635 94.8291 22.2065L94.7727 22.2877C93.8415 23.6522 93.3764 25.5989 93.3764 28.1285L93.3769 28.2766C93.3952 30.7835 93.8789 32.7004 94.8291 34.0267C95.7973 35.3792 97.2965 36.0553 99.3271 36.0553L99.4377 36.0546C101.381 36.0302 102.824 35.3584 103.767 34.0383L103.822 33.9601C104.746 32.6178 105.208 30.674 105.208 28.1285L105.207 27.9794C105.189 25.4572 104.709 23.529 103.767 22.1948L103.714 22.1213C102.752 20.81 101.29 20.1544 99.3271 20.1544ZM192.009 19.8729L191.895 19.8736C190.263 19.8948 188.981 20.3716 188.05 21.3036C187.097 22.2574 186.488 23.61 186.222 25.3608H197.093L197.092 25.2112C197.079 24.5161 196.978 23.8588 196.789 23.2385L196.752 23.1221C196.548 22.5058 196.249 21.9621 195.852 21.4911L195.776 21.404C195.367 20.9449 194.861 20.5794 194.258 20.307L194.162 20.2647C193.543 20.0036 192.825 19.8729 192.009 19.8729Z" fill="#28304D"/>
</g>
<defs>
<clipPath id="clip0">
<rect width="225.765" height="50.2942" fill="white"/>
</clipPath>
</defs>
</svg>
