<svg width="151" height="21" viewBox="0 0 151 21" fill="none" xmlns="http://www.w3.org/2000/svg">
<path fill-rule="evenodd" clip-rule="evenodd" d="M67.6263 7.62381C67.2252 7.14978 66.7255 6.78225 66.1268 6.51983C65.5278 6.25776 64.841 6.12673 64.0672 6.12673C63.1738 6.12673 62.3951 6.28789 61.7315 6.60917C61.0682 6.9315 60.4601 7.35439 59.9073 7.87922V0H56.4932V20.5048H59.9073V10.2662C60.3678 9.8062 60.8563 9.44288 61.3725 9.17625C61.888 8.90928 62.441 8.77579 63.0306 8.77579C63.8321 8.77579 64.4336 9.01299 64.8344 9.48632C65.2355 9.96036 65.4359 10.6295 65.4359 11.4942V20.5048H68.8493V11.4942C68.8493 10.7031 68.7454 9.97893 68.5384 9.32095C68.331 8.66333 68.0271 8.09785 67.6263 7.62381ZM42.5978 5.3815C43.1642 4.77467 43.8418 4.30765 44.6293 3.98111C45.4171 3.65458 46.2811 3.49096 47.2209 3.49096C48.0224 3.49096 48.6835 3.57399 49.204 3.73936C49.7247 3.90508 50.1553 4.08447 50.4964 4.27786C50.8372 4.47056 51.1183 4.6503 51.3394 4.81602C51.5604 4.98139 51.777 5.06442 51.9893 5.06442C52.1918 5.06442 52.3507 5.02308 52.4658 4.94004C52.5809 4.85736 52.6753 4.76066 52.7494 4.6503L53.9931 2.92513C53.2007 2.14383 52.2493 1.51598 51.139 1.04195C50.0287 0.568263 48.7316 0.33142 47.2486 0.33142C45.7284 0.33142 44.3391 0.581927 43.0813 1.08329C41.8236 1.58465 40.7435 2.28607 39.8405 3.18755C38.9372 4.08937 38.2371 5.16322 37.7395 6.4098C37.2419 7.65603 36.9931 9.02908 36.9931 10.5283C36.9931 12.0096 37.2166 13.3756 37.6634 14.6268C38.1105 15.8776 38.753 16.9539 39.5917 17.8557C40.4301 18.7572 41.4415 19.461 42.6255 19.9666C43.8092 20.4725 45.143 20.7255 46.6264 20.7255C48.2849 20.7255 49.7061 20.4588 50.8905 19.9253C52.0742 19.3917 53.0719 18.6237 53.8825 17.6209L52.4174 16.0338C52.27 15.8776 52.0946 15.7994 51.8921 15.7994C51.7728 15.7994 51.6619 15.825 51.5604 15.8755C51.459 15.9263 51.3625 15.9925 51.2706 16.0752C50.9663 16.3516 50.66 16.5839 50.3515 16.7724C50.0427 16.9609 49.7156 17.115 49.37 17.2345C49.0243 17.3543 48.6463 17.4416 48.2365 17.4966C47.8266 17.5519 47.3683 17.5792 46.8615 17.5792C46.0137 17.5792 45.2216 17.4205 44.4844 17.1035C43.7471 16.786 43.1066 16.3285 42.563 15.7304C42.0194 15.1327 41.5888 14.3966 41.2709 13.5224C40.953 12.6486 40.794 11.6508 40.794 10.5283C40.794 9.44321 40.953 8.46571 41.2709 7.59612C41.5888 6.72687 42.031 5.98867 42.5978 5.3815ZM81.9397 7.62423C81.4884 7.14108 80.9375 6.76374 80.2883 6.49257C79.6383 6.22139 78.8993 6.08545 78.0697 6.08545C75.7662 6.08545 73.7989 6.83066 72.1681 8.32074L72.79 9.41071C72.8918 9.58554 73.0251 9.73304 73.1911 9.85251C73.3571 9.97233 73.555 10.0319 73.7852 10.0319C74.0617 10.0319 74.3151 9.96743 74.5453 9.8385C74.7759 9.70991 75.0268 9.56522 75.2988 9.40405C75.5704 9.24324 75.8904 9.09854 76.2593 8.96925C76.6277 8.84067 77.0885 8.77621 77.6416 8.77621C78.4059 8.77621 78.9891 9.00569 79.3899 9.46431C79.7906 9.92293 79.991 10.6303 79.991 11.5847V12.4189C78.3785 12.4189 77.0288 12.5576 75.9413 12.8344C74.8541 13.1112 73.9835 13.4598 73.3294 13.8795C72.6749 14.2996 72.2074 14.7702 71.9267 15.2915C71.6453 15.8132 71.5049 16.3415 71.5049 16.8772C71.5049 17.5138 71.606 18.0723 71.8091 18.5523C72.0116 19.0319 72.2948 19.4338 72.6587 19.7565C73.023 20.0795 73.4582 20.3223 73.9649 20.4838C74.4716 20.645 75.0247 20.7256 75.6237 20.7256C76.1301 20.7256 76.5912 20.6842 77.0057 20.6015C77.4205 20.5185 77.8118 20.3945 78.1806 20.2287C78.5491 20.063 78.9059 19.8584 79.2516 19.6149C79.5969 19.3714 79.9496 19.0883 80.3086 18.7663L80.6129 19.7736C80.7048 20.0679 80.8431 20.2634 81.0277 20.3601C81.2119 20.4565 81.4649 20.5048 81.7878 20.5048H83.3217V11.5637C83.3217 10.7631 83.2041 10.0273 82.9693 9.3557C82.7342 8.68441 82.391 8.10667 81.9397 7.62423ZM79.9921 16.8724C79.7432 17.126 79.4965 17.3457 79.2527 17.531C79.0084 17.7167 78.755 17.8726 78.4925 17.9998C78.23 18.1263 77.9511 18.2216 77.6563 18.2847C77.3612 18.3484 77.039 18.38 76.6888 18.38C76.1175 18.38 75.6546 18.2507 75.2998 17.9907C74.945 17.7314 74.7674 17.3009 74.7674 16.6982C74.7674 16.3927 74.8527 16.11 75.0233 15.8507C75.1938 15.5915 75.4816 15.3641 75.8873 15.1696C76.2926 14.9752 76.8291 14.8151 77.4973 14.69C78.1651 14.5653 78.9968 14.5025 79.9921 14.5025V16.8724ZM91.6842 6.84433C91.0023 7.35025 90.4079 8.0401 89.9011 8.9139L89.6937 7.20309C89.6474 6.89057 89.5558 6.66985 89.4176 6.54092C89.2789 6.41233 89.035 6.34752 88.6848 6.34752H86.6807V20.5048H90.0948V11.6877C90.4447 10.9334 90.8729 10.3609 91.3799 9.96988C91.8867 9.57888 92.4948 9.38338 93.2044 9.38338C93.6006 9.38338 93.9182 9.41561 94.1582 9.47973C94.3972 9.54419 94.5867 9.57643 94.7246 9.57643C94.8811 9.57643 95.0057 9.54174 95.098 9.47307C95.1896 9.40405 95.25 9.28668 95.2773 9.12096L95.7199 6.56824C95.2591 6.24661 94.6783 6.08545 93.9782 6.08545C93.1304 6.08545 92.3657 6.33876 91.6842 6.84433ZM101.607 20.5048H98.1927V0.00036621H101.607V20.5048ZM113.79 6.55425C114.54 6.8398 115.188 7.25602 115.731 7.80328C116.275 8.35054 116.699 9.02218 117.003 9.81785C117.307 10.6135 117.459 11.522 117.459 12.5429C117.459 12.8005 117.447 13.0145 117.424 13.1844C117.402 13.3547 117.36 13.4882 117.3 13.5849C117.24 13.6813 117.159 13.7503 117.058 13.7916C116.957 13.8333 116.828 13.8536 116.671 13.8536H107.909C108.01 15.3076 108.402 16.3745 109.083 17.0552C109.765 17.736 110.668 18.0762 111.792 18.0762C112.345 18.0762 112.822 18.0117 113.223 17.8828C113.624 17.7542 113.974 17.6119 114.273 17.455C114.573 17.2987 114.835 17.1565 115.061 17.0275C115.287 16.899 115.505 16.8341 115.718 16.8341C115.856 16.8341 115.975 16.8618 116.077 16.9168C116.178 16.9725 116.266 17.0503 116.34 17.1516L117.334 18.3936C116.957 18.835 116.533 19.2057 116.063 19.5042C115.593 19.8034 115.103 20.0424 114.591 20.2218C114.08 20.4015 113.559 20.5276 113.03 20.6012C112.499 20.6748 111.986 20.7116 111.488 20.7116C110.502 20.7116 109.586 20.5483 108.738 20.2218C107.89 19.8952 107.153 19.4124 106.527 18.773C105.9 18.1336 105.407 17.3425 105.048 16.3997C104.688 15.4565 104.509 14.3641 104.509 13.1224C104.509 12.1565 104.666 11.2484 104.979 10.3973C105.292 9.54632 105.741 8.80601 106.326 8.17571C106.911 7.54577 107.625 7.04651 108.468 6.67863C109.312 6.31075 110.263 6.12646 111.322 6.12646C112.216 6.12646 113.038 6.26941 113.79 6.55425ZM109.056 9.41125C108.494 9.97252 108.134 10.7682 107.978 11.7982H114.39C114.39 11.3568 114.331 10.9409 114.211 10.5496C114.091 10.1586 113.907 9.81626 113.658 9.52161C113.41 9.22731 113.096 8.99502 112.718 8.82475C112.341 8.65447 111.898 8.56934 111.392 8.56934C110.396 8.56934 109.618 8.85032 109.056 9.41125ZM127.382 12.798C127.797 12.9865 128.168 13.2258 128.495 13.5155C128.822 13.8053 129.085 14.1525 129.283 14.5575C129.481 14.9622 129.58 15.4499 129.58 16.0199C129.58 16.701 129.455 17.3288 129.207 17.9034C128.958 18.4787 128.594 18.9752 128.115 19.3935C127.636 19.8125 127.044 20.1387 126.339 20.3735C125.634 20.6079 124.826 20.7252 123.913 20.7252C123.425 20.7252 122.948 20.6814 122.483 20.5942C122.017 20.5066 121.571 20.385 121.142 20.2284C120.714 20.0725 120.318 19.8882 119.954 19.6766C119.589 19.465 119.269 19.2352 118.993 18.9867L119.781 17.6897C119.882 17.5335 120.002 17.4136 120.14 17.3309C120.278 17.2479 120.453 17.2066 120.665 17.2066C120.877 17.2066 121.078 17.2665 121.266 17.3863C121.455 17.5058 121.674 17.6347 121.923 17.7724C122.172 17.9104 122.464 18.0394 122.801 18.1588C123.137 18.2787 123.563 18.3382 124.079 18.3382C124.484 18.3382 124.832 18.2899 125.123 18.1935C125.413 18.0968 125.652 17.9704 125.841 17.8141C126.03 17.6575 126.168 17.476 126.256 17.2689C126.343 17.0619 126.387 16.8482 126.387 16.6271C126.387 16.2963 126.288 16.0248 126.09 15.8132C125.892 15.6016 125.629 15.4176 125.302 15.261C124.975 15.1048 124.602 14.9646 124.183 14.8402C123.764 14.7162 123.335 14.5806 122.898 14.4331C122.46 14.286 122.031 14.1136 121.612 13.916C121.192 13.718 120.82 13.4672 120.493 13.1638C120.166 12.8604 119.903 12.4876 119.705 12.0461C119.507 11.6047 119.408 11.0711 119.408 10.4453C119.408 9.86585 119.523 9.31403 119.753 8.78954C119.983 8.26541 120.322 7.80784 120.769 7.41684C121.216 7.02584 121.773 6.71297 122.441 6.47823C123.109 6.24383 123.881 6.12646 124.756 6.12646C125.733 6.12646 126.622 6.28763 127.424 6.60926C128.225 6.93159 128.894 7.35447 129.428 7.87896L128.654 9.10697C128.562 9.25412 128.465 9.35783 128.364 9.41739C128.262 9.47765 128.133 9.50743 127.977 9.50743C127.811 9.50743 127.633 9.46118 127.445 9.36904C127.256 9.27724 127.037 9.17354 126.788 9.05862C126.54 8.9437 126.256 8.84035 125.938 8.7482C125.62 8.65641 125.245 8.61016 124.812 8.61016C124.139 8.61016 123.609 8.75276 123.223 9.03795C122.835 9.32314 122.642 9.69592 122.642 10.1556C122.642 10.459 122.741 10.7144 122.939 10.9215C123.137 11.1285 123.399 11.31 123.727 11.4663C124.054 11.6232 124.424 11.763 124.839 11.8874C125.254 12.0114 125.678 12.1474 126.111 12.2945C126.544 12.4417 126.968 12.6095 127.382 12.798ZM134.196 2.44444C134.402 2.22337 134.648 2.05379 134.935 1.93502C135.222 1.8159 135.536 1.75669 135.878 1.75669C136.17 1.75669 136.41 1.78682 136.6 1.84708C136.789 1.90734 136.946 1.97251 137.07 2.04293C137.194 2.11335 137.296 2.17817 137.377 2.23843C137.457 2.29869 137.536 2.32918 137.613 2.32918C137.686 2.32918 137.744 2.31376 137.786 2.28363C137.829 2.2535 137.863 2.21846 137.889 2.17817L138.342 1.55068C138.054 1.26654 137.708 1.03775 137.304 0.865375C136.9 0.692999 136.428 0.60681 135.888 0.60681C135.335 0.60681 134.83 0.698254 134.372 0.880441C133.914 1.06298 133.521 1.31804 133.193 1.64633C132.864 1.97426 132.609 2.36491 132.428 2.81828C132.247 3.27199 132.157 3.7716 132.157 4.31746C132.157 4.85632 132.238 5.35313 132.401 5.80859C132.563 6.26336 132.797 6.65541 133.102 6.98335C133.407 7.31128 133.775 7.5674 134.206 7.75133C134.637 7.93562 135.122 8.02777 135.662 8.02777C136.265 8.02777 136.782 7.93037 137.213 7.73627C137.644 7.54217 138.007 7.26258 138.302 6.89786L137.769 6.32047C137.715 6.26336 137.652 6.23498 137.578 6.23498C137.534 6.23498 137.494 6.24444 137.457 6.26266C137.42 6.28123 137.385 6.30575 137.351 6.33553C137.241 6.43609 137.129 6.52052 137.017 6.58919C136.905 6.65751 136.786 6.71392 136.66 6.75736C136.534 6.80081 136.396 6.83234 136.248 6.85266C136.098 6.87298 135.931 6.88279 135.747 6.88279C135.439 6.88279 135.151 6.82498 134.882 6.70972C134.614 6.5941 134.381 6.42768 134.183 6.2101C133.985 5.99253 133.829 5.72451 133.713 5.40673C133.597 5.08895 133.54 4.72563 133.54 4.31746C133.54 3.92226 133.597 3.56664 133.713 3.25027C133.829 2.9339 133.99 2.66552 134.196 2.44444ZM140.019 6.56647C140.113 6.60641 140.194 6.66037 140.261 6.72694C140.327 6.79385 140.381 6.87444 140.421 6.96798C140.462 7.06188 140.482 7.16033 140.482 7.26404C140.482 7.3716 140.462 7.47075 140.421 7.56289C140.381 7.65504 140.327 7.73457 140.261 7.80114C140.194 7.86841 140.113 7.92096 140.019 7.95985C139.925 7.99804 139.827 8.01731 139.723 8.01731C139.615 8.01731 139.515 7.99804 139.421 7.95985C139.327 7.92096 139.245 7.86841 139.177 7.80114C139.108 7.73457 139.054 7.65504 139.016 7.56289C138.977 7.47075 138.958 7.3716 138.958 7.26404C138.958 7.16033 138.977 7.06188 139.016 6.96798C139.054 6.87444 139.108 6.79385 139.177 6.72694C139.245 6.66037 139.327 6.60641 139.421 6.56647C139.515 6.52618 139.615 6.50586 139.723 6.50586C139.827 6.50586 139.925 6.52618 140.019 6.56647ZM145.866 0.955737C146.319 1.13477 146.707 1.38388 147.028 1.70375C147.35 2.02363 147.6 2.40587 147.778 2.85118C147.955 3.29614 148.044 3.78489 148.044 4.31708C148.044 4.84928 147.955 5.33768 147.778 5.78298C147.6 6.22829 147.35 6.61158 147.028 6.93286C146.707 7.25414 146.319 7.5036 145.866 7.68088C145.414 7.85851 144.913 7.94715 144.363 7.94715H141.587V0.687012H144.363C144.913 0.687012 145.414 0.776704 145.866 0.955737ZM146.043 6.19222C146.241 5.97325 146.393 5.70522 146.501 5.38885C146.608 5.07282 146.662 4.71546 146.662 4.3171C146.662 3.91874 146.608 3.56138 146.501 3.24535C146.393 2.92898 146.241 2.6613 146.043 2.44198C145.845 2.22265 145.605 2.05413 145.321 1.93711C145.038 1.82009 144.719 1.76123 144.363 1.76123H142.95V6.87262H144.363C144.719 6.87262 145.038 6.81411 145.321 6.69674C145.605 6.57972 145.845 6.41155 146.043 6.19222ZM149.78 6.72694C149.847 6.79385 149.901 6.87409 149.941 6.96798C149.981 7.06188 150.002 7.16033 150.002 7.26404C150.002 7.37125 149.981 7.47075 149.941 7.56254C149.901 7.65504 149.847 7.73457 149.78 7.80114C149.713 7.86806 149.632 7.92096 149.539 7.9595C149.445 7.99769 149.346 8.01696 149.242 8.01696C149.135 8.01696 149.034 7.99769 148.94 7.9595C148.846 7.92096 148.765 7.86806 148.697 7.80114C148.628 7.73457 148.574 7.65504 148.535 7.56254C148.497 7.47075 148.478 7.37125 148.478 7.26404C148.478 7.16033 148.497 7.06188 148.535 6.96798C148.574 6.87409 148.628 6.79385 148.697 6.72694C148.765 6.66002 148.846 6.60641 148.94 6.56647C149.034 6.52583 149.135 6.50586 149.242 6.50586C149.346 6.50586 149.445 6.52583 149.539 6.56647C149.632 6.60641 149.713 6.66002 149.78 6.72694Z" fill="#121A20"/>
<path fill-rule="evenodd" clip-rule="evenodd" d="M23.46 12.9144C20.0357 12.9144 17.25 10.1329 17.25 6.71411C17.25 3.29531 20.0357 0.51416 23.46 0.51416C26.884 0.51416 29.6697 3.29531 29.6697 6.71411C29.6697 10.1329 26.884 12.9144 23.46 12.9144ZM23.4619 1.47217C20.5664 1.47217 18.2109 3.82413 18.2109 6.71424C18.2109 9.6047 20.5664 11.9567 23.4619 11.9567C26.3567 11.9567 28.7124 9.6047 28.7124 6.71424C28.7124 3.82413 26.3567 1.47217 23.4619 1.47217Z" fill="#121A20"/>
<path fill-rule="evenodd" clip-rule="evenodd" d="M8.62404 20.7493C3.86862 20.7493 0 16.887 0 12.1393C0 7.39155 3.86862 3.52954 8.62404 3.52954C13.3795 3.52954 17.2481 7.39155 17.2481 12.1393C17.2481 16.887 13.3795 20.7493 8.62404 20.7493ZM8.62582 5.22388C4.80633 5.22388 1.69922 8.32631 1.69922 12.1393C1.69922 15.9526 4.80633 19.055 8.62582 19.055C12.4453 19.055 15.5524 15.9526 15.5524 12.1393C15.5524 8.32631 12.4453 5.22388 8.62582 5.22388Z" fill="url(#paint0_linear)"/>
<path fill-rule="evenodd" clip-rule="evenodd" d="M21.8868 20.6804C20.1658 20.6804 18.7656 19.2825 18.7656 17.5643C18.7656 15.8462 20.1658 14.4482 21.8868 14.4482C23.6077 14.4482 25.0079 15.8462 25.0079 17.5643C25.0079 19.2825 23.6077 20.6804 21.8868 20.6804ZM21.8878 15.4219C20.7048 15.4219 19.7422 16.3833 19.7422 17.5643C19.7422 18.7457 20.7048 19.7068 21.8878 19.7068C23.0711 19.7068 24.0333 18.7457 24.0333 17.5643C24.0333 16.3833 23.0711 15.4219 21.8878 15.4219Z" fill="url(#paint1_linear)"/>
<defs>
<linearGradient id="paint0_linear" x1="8.58962" y1="24.8413" x2="21.4374" y2="12.6316" gradientUnits="userSpaceOnUse">
<stop stop-color="#EF4123"/>
<stop offset="1" stop-color="#F7941E"/>
</linearGradient>
<linearGradient id="paint1_linear" x1="23.2098" y1="13.6337" x2="18.2933" y2="17.2318" gradientUnits="userSpaceOnUse">
<stop stop-color="#8DC63F"/>
<stop offset="1" stop-color="#40BA8D"/>
</linearGradient>
</defs>
</svg>
