<svg width="51" height="51" viewBox="0 0 51 51" fill="none" xmlns="http://www.w3.org/2000/svg">
<path fill-rule="evenodd" clip-rule="evenodd" d="M8.47788 0H42.3327C44.691 0 46.6558 0.84189 48.2841 2.47016C49.9684 4.09843 50.8106 6.1196 50.8106 8.47759V42.3324C50.8106 44.6346 49.9684 46.6555 48.2841 48.2838C46.6558 49.912 44.691 50.7542 42.3327 50.7542H8.47788C6.11989 50.7542 4.09872 49.912 2.47045 48.2838C0.842179 46.6555 0 44.6346 0 42.3324V8.47759C0 6.1196 0.842179 4.09843 2.47045 2.47016C4.09872 0.84189 6.11989 0 8.47788 0Z" fill="#184995"/>
<path fill-rule="evenodd" clip-rule="evenodd" d="M38.7971 28.8017H41.548L44.9167 25.3769H41.2112L38.7971 28.8017ZM37.7854 29.6438H33.8552V36.9985C33.8552 38.9636 34.3606 40.4236 35.3152 41.3779C36.1574 42.2201 37.2803 42.6133 38.6836 42.6133C40.6487 42.6133 42.1084 41.8272 43.0067 40.3111H43.0631V42.3323H46.544V29.6438H42.6138V37.0549C42.6138 37.3917 42.5577 37.6724 42.5016 37.8407C42.0524 38.9075 41.2663 39.4689 40.0873 39.4689C38.5715 39.4689 37.7854 38.4024 37.7854 36.3249V29.6438ZM27.6812 33.8548C25.0986 33.8548 23.1335 34.2477 21.7862 35.0899C20.3826 35.932 19.6526 37.1671 19.6526 38.7954C19.6526 39.8058 20.0455 40.7044 20.7755 41.4341C21.6177 42.2202 22.6842 42.6134 23.9757 42.6134C25.7161 42.6134 27.0076 42.0516 27.9058 40.9851H28.018V42.3324H31.6114V34.8652C31.6114 33.1809 31.1621 31.8897 30.3199 30.9351C29.3095 29.8685 27.7934 29.3071 25.7722 29.3071C23.6949 29.3071 21.9545 29.7 20.6072 30.5422L21.3369 33.0126C22.4599 32.339 23.6949 32.0019 25.0986 32.0019C26.839 32.0019 27.6812 32.5633 27.6812 33.7423V33.8548ZM18.0791 29.6438H15.6647V25.3768H11.847V29.6438H10.0502V32.5633H11.847V37.6724C11.847 39.4131 12.1839 40.7043 12.9136 41.434C13.6436 42.2201 14.7104 42.6133 16.0016 42.6133C16.8437 42.6133 17.5174 42.5008 18.1352 42.2762L18.0791 39.3007C17.9666 39.4131 17.742 39.4689 17.3491 39.4689C16.7316 39.4689 16.2823 39.2446 16.0016 38.7953C15.7769 38.4585 15.6647 37.8971 15.6647 37.0549V32.5633H18.0791V29.6438ZM23.3004 38.4585C23.3004 36.9427 24.8162 36.2688 27.7917 36.3249V37.6724L27.7356 38.4024C27.5674 38.9075 27.2305 39.3007 26.7813 39.5814C26.332 39.9743 25.7705 40.1429 25.153 40.1429C23.9179 40.1429 23.3004 39.5814 23.3004 38.4585ZM4.21118 42.3324H8.19744V25.3769H4.21118V42.3324Z" fill="#FFF101"/>
</svg>
