<svg width="50" height="67" viewBox="0 0 50 67" fill="none" xmlns="http://www.w3.org/2000/svg">
<mask id="mask0" mask-type="alpha" maskUnits="userSpaceOnUse" x="0" y="0" width="50" height="51">
<path fill-rule="evenodd" clip-rule="evenodd" d="M0 0H49.2254V50.996H0V0Z" fill="white"/>
</mask>
<g mask="url(#mask0)">
<path fill-rule="evenodd" clip-rule="evenodd" d="M9.41378 5.39394C9.41793 2.885 7.37299 0.975494 4.68877 0.982195C2.00108 0.988897 -0.0182301 2.90343 0.00012412 5.42644C0.0184784 7.8965 2.03468 9.78792 4.67769 9.81406C7.32243 9.83986 9.40928 7.89248 9.41378 5.39394ZM39.8126 5.34563C39.7932 7.85959 41.8226 9.7939 44.4992 9.81367C47.1464 9.8331 49.227 7.88405 49.2266 5.38484C49.2266 2.90941 47.217 1.00392 44.5844 0.982812C41.8804 0.961033 39.8317 2.83436 39.8126 5.34563ZM35.1115 23.3808H22.7646V37.2355C22.7681 37.9706 22.8519 38.7175 22.9939 39.4385C23.4881 41.9445 25.0419 43.4569 27.4647 43.8895C27.963 43.9786 28.4724 43.9913 28.9791 43.9913C32.6316 43.9913 35.1094 42.9781 35.1094 42.9781V49.6257C30.4717 51.0889 26.3444 51.353 21.7884 49.3081C18.1944 47.6951 16.3957 44.702 15.7079 41.0509C15.452 39.6918 15.3564 38.29 15.3408 36.9055L15.3242 17.3989V11.402V11.343C15.3242 8.10569 18.0368 5.48116 21.3829 5.48116H22.7646V17.3252H35.1115V23.3808ZM8.4057 17.3243H8.33367C4.39478 17.3243 1.20218 20.4136 1.20218 24.2246V49.7033H8.4057V17.3243ZM48.2075 49.7035V24.2894C48.2075 20.4436 44.9851 17.3259 41.0102 17.3259H40.9375V49.7035H48.2075Z" fill="url(#paint0_linear)"/>
</g>
<mask id="mask1" mask-type="alpha" maskUnits="userSpaceOnUse" x="29" y="57" width="19" height="10">
<path fill-rule="evenodd" clip-rule="evenodd" d="M29.5592 57.1851H47.4269V66.0381H29.5592V57.1851Z" fill="white"/>
</mask>
<g mask="url(#mask1)">
<path fill-rule="evenodd" clip-rule="evenodd" d="M44.1574 59.007H45.4033L46.9239 57.1851H45.3805L44.1574 59.007ZM42.9185 65.39C43.2802 65.822 43.766 66.0383 44.3758 66.0383C44.7414 66.0383 45.075 65.964 45.3759 65.8162C45.6771 65.6684 45.9229 65.4541 46.1135 65.1737L46.1934 65.8864H47.428V59.8247H46.0104V63.4338C46.0104 63.862 45.9057 64.2045 45.6963 64.4613C45.4865 64.7185 45.2104 64.847 44.8672 64.847C44.5244 64.847 44.2595 64.7242 44.0729 64.4789C43.8859 64.2336 43.7928 63.8816 43.7928 63.422V59.8247H42.3752V63.6555C42.3752 64.3797 42.5562 64.9577 42.9185 65.39ZM38.683 65.0102C39.0334 65.0102 39.3327 64.8816 39.5804 64.6248C39.8278 64.3677 39.952 64.0566 39.952 63.6904V63.0948C39.8757 63.0948 39.7974 63.0928 39.7175 63.0891C39.6375 63.085 39.5556 63.083 39.4717 63.083C38.9076 63.083 38.4756 63.1707 38.1743 63.3459C37.8731 63.521 37.7228 63.7761 37.7228 64.1109C37.7228 64.3836 37.8103 64.6016 37.9857 64.7649C38.1608 64.9285 38.393 65.0102 38.683 65.0102ZM36.8979 65.5593C37.2483 65.8785 37.7134 66.0381 38.2927 66.0381C38.6583 66.0381 38.9956 65.9622 39.3041 65.8104C39.6129 65.6585 39.8586 65.4503 40.0416 65.1854L40.1216 65.8863H41.2991V62.2654C41.2991 61.4326 41.0817 60.7921 40.6477 60.3443C40.2131 59.8968 39.5957 59.6727 38.7954 59.6727C38.1401 59.6727 37.5036 59.8364 36.8863 60.1634V61.3313C37.4504 61.004 38.0143 60.8407 38.5784 60.8407C39.0203 60.8407 39.352 60.946 39.5729 61.1562C39.7939 61.3661 39.9158 61.6894 39.9386 62.1254C39.8626 62.1179 39.7823 62.1139 39.6984 62.1139H39.4471C38.4638 62.1139 37.7054 62.3025 37.172 62.6801C36.6386 63.0581 36.372 63.5892 36.372 64.2743C36.372 64.8118 36.5471 65.2401 36.8979 65.5593ZM34.8068 66.0029C34.167 66.0029 33.6828 65.8298 33.3551 65.4829C33.0271 65.1366 32.8633 64.621 32.8633 63.9356V60.9458H31.9259V59.8244H32.8633V58.2124H34.281V59.8244H35.6071V60.9458H34.281V63.8071C34.281 64.1577 34.3497 64.4165 34.4867 64.5839C34.6238 64.7513 34.8372 64.835 35.1272 64.835C35.3481 64.835 35.5612 64.788 35.767 64.6946V65.8277C35.4545 65.9445 35.1344 66.0029 34.8068 66.0029ZM31.022 65.886H29.5587V58.0024H31.022V65.886Z" fill="#FC4E75"/>
</g>
<defs>
<linearGradient id="paint0_linear" x1="-24.6133" y1="25.8823" x2="25.1837" y2="75.1057" gradientUnits="userSpaceOnUse">
<stop stop-color="#E96401"/>
<stop offset="1" stop-color="#FD4D7C"/>
</linearGradient>
</defs>
</svg>
