<svg width="190" height="43" viewBox="0 0 190 43" fill="none" xmlns="http://www.w3.org/2000/svg">
<g clip-path="url(#clip0)">
<path fill-rule="evenodd" clip-rule="evenodd" d="M34.9135 10.0603C34.3917 11.123 33.5873 12.2033 32.6451 13.2384C32.3776 13.5324 32.1816 13.7923 32.0317 14.0256C32.047 16.4297 32.0834 21.1119 32.0994 21.779C32.1974 25.8362 30.7288 29.3092 27.6084 32.3965C27.1761 32.8245 26.7277 33.2198 26.2657 33.6162C26.6936 33.249 25.2714 34.5561 22.9411 36.0586C21.3532 37.0401 19.6195 37.8937 17.7171 38.6278C13.8456 37.1295 10.6348 35.0872 7.91604 32.3965C7.42353 31.9091 6.97494 31.4119 6.56463 30.9047H6.56191L6.54703 30.8825C5.99173 30.194 5.50883 29.4867 5.10288 28.7578C5.10542 28.7564 5.10814 28.7548 5.11069 28.7533L4.50094 27.8495C2.72525 27.4642 1.20035 26.3974 0.216415 24.9357C0.342175 25.7401 0.520561 26.5254 0.758469 27.2908C1.20707 28.6654 1.35769 28.9402 2.13856 30.4796C2.99945 32.0047 4.12022 33.4512 5.51319 34.8295C8.72395 38.0074 12.5234 40.373 17.1288 42.0617L17.7169 42.2772L18.3047 42.0617C23.0077 40.3372 26.8369 37.9715 30.0114 34.8296C33.8377 31.0435 35.6383 26.7476 35.5163 21.6969C35.5051 21.2228 35.4949 14.5527 35.4884 8.73218C35.3129 9.17924 35.1267 9.62631 34.9135 10.0603Z" fill="#D63C1A"/>
<path fill-rule="evenodd" clip-rule="evenodd" d="M35.4795 0L35.4797 0.222204C35.4797 0.230738 35.4797 0.239507 35.4797 0.248509L35.4799 0.435326C35.4799 0.447059 35.4799 0.459014 35.4799 0.471189L35.4801 0.670092C35.4801 0.684422 35.4801 0.698962 35.4801 0.713711L35.4803 0.900608C35.4803 0.916998 35.4803 0.93359 35.4803 0.950381L35.4804 1.10684C35.4805 1.12481 35.4805 1.14298 35.4805 1.16133L35.4806 1.33169C35.4806 1.35118 35.4807 1.37086 35.4807 1.39072L35.4808 1.51211C35.4808 1.5327 35.4808 1.55348 35.4808 1.57443L35.4809 1.70229C35.481 1.72395 35.481 1.74579 35.481 1.7678L35.4812 1.97053C35.4812 1.99357 35.4812 2.01677 35.4812 2.04014L35.4814 2.18232C35.4814 2.25439 35.4815 2.32792 35.4816 2.40286L35.4817 2.5546C35.4817 2.5802 35.4817 2.60595 35.4818 2.63185L35.4819 2.78906C35.482 2.92155 35.4822 3.05772 35.4823 3.19733L35.4824 3.3665C35.4832 4.19201 35.4841 5.13025 35.4852 6.13557L35.467 6.19212C35.2679 6.81348 35.0774 7.40765 35.0427 7.50075L34.9682 7.70047C34.7186 8.36787 34.4573 9.0497 34.1465 9.68303L34.0843 9.80705C33.5778 10.799 32.8435 11.7849 32.0245 12.6499L32.0243 12.6503L32.0242 12.6506L31.9306 12.7547C31.868 12.8239 31.8048 12.8927 31.7407 12.9605L31.6351 13.0714C30.6826 14.0665 29.6635 14.982 28.4501 15.6584L28.2475 15.7719C27.7752 16.0376 27.3046 16.308 26.8167 16.5411L26.7794 16.5588C26.3061 16.7838 26.2691 16.7865 26.2666 17.2898L26.2665 17.3712L26.2664 17.4434L26.2663 17.7614C26.2663 17.7898 26.2663 17.8187 26.2663 17.8481L26.2661 18.4249C26.2661 18.4595 26.2661 18.4946 26.2661 18.5301L26.2659 19.3336C26.2659 19.3745 26.2659 19.4158 26.2659 19.4574L26.2657 20.6633C26.2657 20.7108 26.2657 20.7586 26.2657 20.8067L26.2656 22.8105C26.2656 22.8648 26.2656 22.9193 26.2655 22.974L26.2654 32.5073L26.2077 32.5573C25.4624 33.2013 24.1566 34.2674 22.9405 35.0858L22.9405 34.0677C22.9405 34.0299 22.9405 33.9913 22.9405 33.9517L22.9403 31.6554C22.9403 31.5947 22.9403 31.5334 22.9403 31.4716L22.9401 29.6989C22.9401 29.63 22.9401 29.5608 22.9401 29.4913L22.9399 28.2171C22.9399 28.1453 22.9399 28.0734 22.9399 28.0013L22.9397 26.9161C22.9397 26.8436 22.9397 26.7712 22.9397 26.6988L22.9396 25.8335C22.9396 25.7618 22.9395 25.6903 22.9395 25.6189L22.9394 24.7715C22.9394 24.7018 22.9394 24.6323 22.9393 24.5631L22.9392 23.9486C22.9392 23.8813 22.9392 23.8143 22.9392 23.7477L22.939 23.1593C22.939 23.0952 22.939 23.0315 22.939 22.9683L22.9389 22.4127C22.9388 22.3525 22.9388 22.2929 22.9388 22.2338L22.9387 21.718C22.9386 21.6626 22.9386 21.6077 22.9386 21.5535L22.9385 21.2365C22.9385 21.1851 22.9385 21.1343 22.9384 21.0843L22.9383 20.6545C22.9383 20.6091 22.9382 20.5644 22.9382 20.5207L22.9381 20.268C22.9381 20.2276 22.9381 20.188 22.9381 20.1494L22.9379 19.9285C22.9379 19.8936 22.9379 19.8596 22.9379 19.8265L22.9377 19.6401C22.9377 19.611 22.9377 19.5829 22.9377 19.5559L22.9376 19.4064L22.9371 19.3514C22.9337 19.1312 22.9118 18.904 22.8944 18.5867L22.8284 18.6157C22.5918 18.7185 22.4118 18.7838 22.248 18.8776L21.0285 19.5797C20.2163 20.0491 19.4049 20.5201 18.5906 20.9859L17.3407 21.6978C16.0899 22.4081 14.8369 23.1153 13.5898 23.8324L13.578 23.8391C13.2563 24.0241 11.5375 25.0216 9.40799 26.2579L9.40473 26.245L9.29189 26.3168C8.95083 26.5284 8.58711 26.7064 8.20575 26.8488L8.19395 26.8548L8.18996 26.8541L8.0776 26.8944C7.47564 27.1038 6.83124 27.2215 6.15967 27.2296L6.09937 27.2299L6.03881 27.2301L5.90841 27.2277C5.56159 27.2178 5.22199 27.1794 4.89227 27.1135L4.89214 27.1135L4.89173 27.1133L4.81138 27.0958L4.73131 27.0772L4.59596 27.0436C4.37134 26.9854 4.15163 26.916 3.9381 26.8376L3.85707 26.8074L3.77659 26.7758L3.7784 26.7783H3.77822L3.70434 26.7488C1.47151 25.8406 0 23.6978 0 21.1387L0.00105522 21.0298C0.00243977 20.9573 0.00514167 20.8852 0.00889207 20.8133L0.00961796 20.71H0.0166953L0.0233646 20.6229C0.207737 18.4206 1.56116 16.5512 3.46174 15.6404L3.55882 15.5949C4.30666 15.2528 5.13603 15.059 6.00941 15.048L6.04779 15.0469L6.08617 15.046L6.17954 15.0467C8.16787 15.0767 9.92387 16.0617 11.0129 17.5629L11.0585 17.6145C11.1624 17.7368 11.2494 17.8733 11.316 18.0218L11.3662 18.1078L11.4152 18.1947L11.3878 18.208L11.4058 18.2693C11.4451 18.4134 11.4662 18.565 11.4662 18.7217L11.4656 18.7705C11.4398 19.6944 10.6834 20.4353 9.75442 20.4353L9.6968 20.4344C9.12298 20.4153 8.62124 20.1135 8.32498 19.6638L8.3081 19.6718L8.26967 19.6151C7.87829 19.0539 7.27659 18.6516 6.57886 18.5208L6.49863 18.5069C6.36425 18.4856 6.22666 18.4734 6.08617 18.4734L6.02522 18.4741C4.72849 18.5033 3.66364 19.4619 3.46156 20.71L3.44885 20.7969C3.44135 20.8551 3.43579 20.9139 3.43216 20.9732L3.43052 21.2713L3.434 21.3291C3.53205 22.7117 4.68024 23.8038 6.08617 23.8038L6.17533 23.8023C6.44164 23.7932 6.69709 23.7434 6.93799 23.6621L6.93781 23.664L6.94761 23.6585L6.95943 23.6538C7.44073 23.4473 16.9026 18.1257 17.4675 17.8032L17.4558 17.798C17.1463 17.6638 14.5348 16.8485 13.4688 16.3L13.3163 16.2206C11.847 15.4461 10.5213 14.4809 9.36408 13.2657L9.24288 13.1372C8.2794 12.1051 7.46363 10.9819 6.80824 9.73444L6.78814 9.69752C6.6386 9.43312 6.44018 9.30879 6.10395 9.31226L6.07462 9.31253C5.86077 9.31442 5.47143 9.31578 5.05563 9.31674L4.93624 9.31701C4.91626 9.31705 4.89626 9.31709 4.87625 9.31713L4.75614 9.31737C4.55617 9.31774 4.35824 9.31804 4.17846 9.31826L4.0729 9.31839C4.05571 9.31841 4.03873 9.31843 4.02199 9.31845L3.87792 9.31861C3.8627 9.31862 3.84776 9.31864 3.83311 9.31865L3.67245 9.3188C3.66041 9.31881 3.64873 9.31882 3.63743 9.31883L3.42169 9.31898H3.42V11.8742L3.41931 11.923C3.3935 12.8313 2.65004 13.5597 1.73668 13.5598H1.68623L1.63745 13.5592C0.730146 13.5335 0.00235912 12.7889 0.00235912 11.8742V0H35.4795ZM32.0615 3.42157H3.42V5.98606H3.46972V5.99224L5.84463 5.99215L8.21954 5.9926L8.29773 5.99273C8.79367 5.99459 8.79468 6.02506 8.99914 6.55066L9.04804 6.67495C9.96909 8.98858 11.3569 10.9434 13.425 12.3972L13.5619 12.4919C14.4772 13.1157 15.4521 13.5861 16.4941 13.9695L16.6314 14.0189C18.0977 14.5347 19.5996 14.6861 21.1334 14.6096L21.2856 14.601C22.299 14.5365 23.2882 14.3349 24.2581 13.9887L24.4284 13.927C25.2204 13.6348 25.9745 13.2881 26.6996 12.8539L26.8345 12.7716C27.7283 12.2164 28.5117 11.5328 29.2288 10.7712L29.3277 10.665C30.0482 9.88264 30.6667 9.02067 31.1281 8.05699L31.2211 7.86282C31.4998 7.2818 31.774 6.71143 32.0527 6.07544L32.0525 6.03275L32.0615 3.42157ZM20.3694 6.10741L20.4725 6.10742L20.7816 6.10757C24.0753 6.11013 27.2441 6.1434 27.5166 6.20932L27.4836 6.32338C27.1894 7.30751 26.6901 8.17758 26.0238 8.94204L25.9519 9.02355C24.5793 10.5604 22.824 11.4232 20.7811 11.5687L20.6701 11.5757C17.0095 11.7789 13.7131 9.13573 13.1423 6.20896C13.347 6.14981 16.0841 6.11599 19.1176 6.10884L19.3248 6.1084C19.3594 6.10833 19.3941 6.10826 19.4287 6.1082L19.6371 6.10788C19.7414 6.10774 19.8459 6.10763 19.9505 6.10756L20.2646 6.10742L20.3694 6.10741Z" fill="#28304D"/>
<path fill-rule="evenodd" clip-rule="evenodd" d="M142.349 13.2312L142.497 13.2321C143.832 13.2479 145.051 13.478 146.154 13.9218L146.28 13.9736C147.368 14.4277 148.279 15.0156 149.013 15.7379L147.909 17.4946L147.876 17.5459C147.754 17.7293 147.627 17.8603 147.495 17.9385L147.454 17.9608C147.316 18.0317 147.146 18.067 146.943 18.067L146.888 18.0658C146.667 18.0565 146.432 17.9911 146.184 17.8695L146.101 17.8295C145.851 17.7082 145.566 17.5736 145.247 17.4253L145.139 17.3766C144.811 17.2317 144.442 17.0999 144.034 16.9812L143.948 16.9573C143.514 16.8419 143.006 16.7839 142.427 16.7839L142.332 16.7846C141.417 16.7977 140.694 17.0017 140.16 17.3959L140.106 17.4371C139.59 17.8394 139.332 18.3587 139.332 18.9945L139.333 19.0591C139.346 19.465 139.487 19.8088 139.756 20.0901L139.813 20.1488C140.089 20.4205 140.444 20.6609 140.879 20.8696L140.997 20.9251C141.435 21.1267 141.925 21.3086 142.467 21.4716L142.721 21.5487C143.231 21.705 143.751 21.8735 144.281 22.0537L144.512 22.1341C145.049 22.3251 145.577 22.5384 146.095 22.7743L146.212 22.8292C146.756 23.09 147.246 23.4138 147.682 23.8007L147.763 23.8747C148.192 24.2738 148.539 24.7461 148.806 25.2909L148.842 25.367C149.1 25.9307 149.23 26.6028 149.23 27.383L149.229 27.5044C149.215 28.4316 149.037 29.2893 148.697 30.0771L148.652 30.1793C148.299 30.9586 147.795 31.635 147.14 32.2087L147.057 32.2799C146.388 32.8449 145.571 33.2881 144.606 33.6102L144.489 33.6481C143.512 33.9583 142.397 34.1134 141.146 34.1134L140.972 34.1121C140.336 34.1025 139.713 34.0405 139.105 33.9259L138.925 33.8905C138.325 33.7687 137.748 33.6065 137.193 33.4031L137.041 33.3463C136.487 33.1353 135.973 32.8912 135.497 32.6136L135.378 32.5433C134.908 32.2601 134.491 31.9544 134.127 31.6264L135.25 29.7711L135.29 29.7115C135.426 29.517 135.584 29.3658 135.763 29.2581L135.806 29.2336C135.996 29.1314 136.231 29.0805 136.512 29.0805L136.572 29.0816C136.853 29.0923 137.118 29.1774 137.37 29.337L137.461 29.3945C137.709 29.5492 137.991 29.7142 138.307 29.8898L138.397 29.9388C138.731 30.1177 139.119 30.2857 139.559 30.4424L139.631 30.4674C140.099 30.6218 140.683 30.6989 141.382 30.6989L141.49 30.6981C142.022 30.69 142.483 30.6212 142.871 30.4918L142.959 30.4615C143.334 30.3275 143.646 30.1568 143.896 29.9488L143.953 29.9003C144.193 29.6879 144.372 29.4441 144.488 29.1691L144.518 29.0949C144.623 28.8221 144.675 28.541 144.675 28.2516L144.674 28.1845C144.661 27.741 144.52 27.3753 144.251 27.0869L144.193 27.0269C143.918 26.7494 143.563 26.5065 143.127 26.2974L143.018 26.2463C142.578 26.0432 142.082 25.8594 141.53 25.6954L141.273 25.6183C140.757 25.462 140.232 25.2936 139.697 25.113L139.489 25.0416C138.936 24.8476 138.394 24.6247 137.863 24.3731L137.744 24.3155C137.194 24.0421 136.701 23.7025 136.266 23.2973L136.189 23.224C135.758 22.8036 135.409 22.2949 135.142 21.6987L135.107 21.6191C134.847 21.0031 134.718 20.2668 134.718 19.4091L134.719 19.2963C134.733 18.5083 134.897 17.7564 135.211 17.0406L135.255 16.9433C135.582 16.2338 136.05 15.6117 136.66 15.0767L136.741 15.0073C137.364 14.4804 138.133 14.0561 139.046 13.7346C139.999 13.3988 141.099 13.2312 142.349 13.2312ZM117.939 13.5471V26.4157L117.939 26.5181C117.955 27.7058 118.241 28.6288 118.797 29.2877L118.841 29.3392C119.413 29.9827 120.255 30.3041 121.37 30.3041L121.475 30.3032C122.276 30.2882 123.03 30.101 123.736 29.7415L123.852 29.6812C124.545 29.312 125.203 28.8157 125.826 28.1922V13.5471H130.696V33.7976H127.718L127.663 33.7969C127.064 33.78 126.668 33.4843 126.476 32.9097L126.141 31.2911L126.001 31.4302C125.624 31.7974 125.237 32.136 124.84 32.4457L124.727 32.5318C124.313 32.8435 123.874 33.1109 123.41 33.3339L123.283 33.3937C122.813 33.6089 122.31 33.7797 121.774 33.9063L121.648 33.9348C121.099 34.0538 120.514 34.1134 119.891 34.1134L119.764 34.1125C118.712 34.0987 117.778 33.9115 116.963 33.5509L116.858 33.5033C116.056 33.1316 115.378 32.6179 114.824 31.9621L114.749 31.8722C114.207 31.2071 113.795 30.4245 113.512 29.5244L113.473 29.3956C113.204 28.4894 113.069 27.4962 113.069 26.4157V13.5471H117.939ZM83.5922 13.2312L83.748 13.232C85.198 13.2483 86.5165 13.4916 87.7032 13.9614L87.8297 14.0125C89.0044 14.4962 90.0106 15.1702 90.8479 16.0338L90.937 16.1271C91.7616 17.0044 92.4024 18.0653 92.8592 19.3102L92.9073 19.4442C93.3485 20.6996 93.5691 22.0957 93.5691 23.6328L93.5683 23.7984C93.5525 25.338 93.3161 26.7301 92.8592 27.9751L92.8095 28.1078C92.3396 29.3404 91.6856 30.3947 90.8479 31.2713L90.7576 31.3645C89.9082 32.2271 88.8899 32.8936 87.7032 33.3635L87.5756 33.4129C86.3794 33.8666 85.0515 34.0937 83.5922 34.0937L83.4363 34.0929C81.986 34.0767 80.6642 33.8334 79.4713 33.3635L79.3442 33.3124C78.1632 32.8284 77.1509 32.1479 76.3069 31.2713L76.2171 31.1767C75.3861 30.2874 74.7391 29.2204 74.2758 27.9751L74.2287 27.8456C73.7803 26.589 73.5563 25.1848 73.5563 23.6328L73.5572 23.4687C73.5731 21.9416 73.8126 20.5556 74.2758 19.3102L74.3262 19.1776C74.8026 17.9457 75.4627 16.898 76.3069 16.0338L76.3979 15.942C77.254 15.0919 78.2783 14.4315 79.4713 13.9614C80.7068 13.4748 82.0805 13.2312 83.5922 13.2312ZM161.494 13.2312L161.64 13.2321C162.858 13.2472 163.983 13.451 165.013 13.8432L165.132 13.8893C166.152 14.2954 167.036 14.8755 167.783 15.6293L167.866 15.7138C168.602 16.4811 169.179 17.4137 169.597 18.5109L169.641 18.6293C170.046 19.739 170.248 20.9988 170.248 22.409L170.248 22.4998C170.245 22.8282 170.229 23.104 170.199 23.3269L170.189 23.3921C170.155 23.6048 170.099 23.7737 170.021 23.8993L169.995 23.9396C169.912 24.0568 169.806 24.1421 169.676 24.1954L169.631 24.2123C169.494 24.2601 169.325 24.2841 169.124 24.2841H156.624L156.632 24.399C156.789 26.4197 157.344 27.9077 158.299 28.8634L158.362 28.9249C159.327 29.8578 160.594 30.3239 162.164 30.3239L162.287 30.3232C163.024 30.314 163.663 30.2223 164.205 30.0476L164.335 30.0048C164.853 29.8319 165.309 29.6424 165.703 29.4356L165.818 29.3751C166.198 29.1751 166.534 28.9916 166.827 28.824L166.891 28.7884C167.19 28.6279 167.481 28.5475 167.763 28.5475L167.822 28.5487C167.995 28.5558 168.146 28.595 168.276 28.6659L168.324 28.6935C168.448 28.7702 168.557 28.8729 168.651 29.0014L170.07 30.7779L169.975 30.8883C169.46 31.4713 168.887 31.9644 168.257 32.3667L168.122 32.4511C167.493 32.8397 166.837 33.1537 166.157 33.3931L165.988 33.4509C165.313 33.6769 164.626 33.8385 163.929 33.9359L163.723 33.9633C163.04 34.0502 162.375 34.0937 161.73 34.0937L161.58 34.0928C160.23 34.0767 158.972 33.8433 157.806 33.3931L157.682 33.344C156.525 32.8783 155.515 32.2038 154.652 31.3205L154.563 31.2284C153.711 30.3306 153.038 29.2299 152.542 27.9258L152.495 27.7988C152.013 26.4793 151.773 24.959 151.773 23.2381L151.774 23.0849C151.79 21.7603 152.013 20.5121 152.443 19.3399L152.492 19.2101C152.936 18.0475 153.561 17.0315 154.366 16.1623L154.456 16.0664C155.273 15.2103 156.262 14.5283 157.422 14.0207C158.625 13.4946 159.982 13.2312 161.494 13.2312ZM182.669 13.2312L182.815 13.2319C184.266 13.2471 185.542 13.4905 186.642 13.9614L186.768 14.0164C187.854 14.5002 188.835 15.1793 189.708 16.0536L188.426 17.8299L188.378 17.8899C188.25 18.046 188.125 18.1708 188.003 18.2642L187.972 18.286C187.836 18.377 187.645 18.4221 187.401 18.4221L187.344 18.4208C187.114 18.41 186.89 18.3349 186.672 18.1952L186.599 18.1493C186.378 18.0097 186.119 17.8539 185.824 17.682L185.74 17.6348C185.429 17.463 185.066 17.3075 184.651 17.1687L184.574 17.1442C184.134 17.0095 183.598 16.9418 182.965 16.9418L182.854 16.9426C182.045 16.9555 181.333 17.1102 180.717 17.4057L180.63 17.4487C180.024 17.7556 179.518 18.1854 179.11 18.738L179.05 18.8216C178.653 19.3842 178.354 20.057 178.154 20.84L178.123 20.9642C177.933 21.7559 177.838 22.6455 177.838 23.6328L177.839 23.7862C177.85 24.8033 177.964 25.7126 178.184 26.5145L178.216 26.6285C178.444 27.4207 178.765 28.0899 179.179 28.6363L179.242 28.7171C179.663 29.2498 180.168 29.6572 180.756 29.939L180.841 29.9785C181.438 30.2482 182.106 30.383 182.847 30.383L182.951 30.3824C183.679 30.3741 184.271 30.2791 184.73 30.0969L184.831 30.0557C185.267 29.8761 185.637 29.6791 185.942 29.4652L186.039 29.3968C186.327 29.1933 186.581 29.0056 186.8 28.8338L186.849 28.7969C187.079 28.6307 187.336 28.5475 187.618 28.5475L187.669 28.5483C188.038 28.5609 188.317 28.712 188.505 29.0014L189.905 30.7775V30.7781L189.803 30.8953C189.293 31.4753 188.742 31.966 188.15 32.3667L188.024 32.4511C187.432 32.8397 186.82 33.1537 186.188 33.3931L186.043 33.4469C185.411 33.675 184.76 33.8379 184.089 33.9359L183.892 33.9633C183.235 34.0502 182.585 34.0937 181.939 34.0937L181.806 34.0928C180.607 34.0767 179.475 33.8433 178.41 33.3931L178.292 33.3422C177.238 32.8773 176.314 32.2132 175.522 31.3501L175.434 31.2535C174.654 30.3771 174.032 29.3139 173.57 28.0639L173.522 27.9337C173.074 26.6693 172.85 25.2356 172.85 23.6328L172.851 23.4681C172.866 22.0442 173.079 20.7208 173.491 19.4979L173.537 19.3625C173.963 18.1498 174.575 17.0961 175.374 16.2017L175.46 16.1064C176.273 15.2241 177.269 14.529 178.45 14.0207C179.672 13.4946 181.078 13.2312 182.669 13.2312ZM50.7636 5.2572V17.534H64.1316V5.2572H69.475V33.7976H64.1316V21.3236H50.7636V33.7976H45.4203V5.2572H50.7636ZM107.785 13.172L107.884 13.1727C108.839 13.1876 109.634 13.4176 110.269 13.8628L109.638 17.5142L109.629 17.5639C109.587 17.7747 109.504 17.9259 109.382 18.0174L109.348 18.041C109.221 18.1241 109.054 18.1656 108.85 18.1656L108.806 18.1649C108.614 18.1588 108.359 18.1131 108.041 18.0274L107.98 18.0116C107.646 17.9302 107.212 17.8893 106.681 17.8893L106.583 17.8902C105.613 17.9076 104.778 18.1869 104.078 18.7282L104.004 18.787C103.313 19.3443 102.727 20.1437 102.245 21.1853V33.7976H97.3744V13.5471H100.233L100.298 13.5476C100.763 13.5553 101.09 13.6472 101.278 13.8234L101.309 13.8536C101.489 14.0414 101.61 14.347 101.673 14.7706L101.968 17.2181L102.041 17.094C102.748 15.9027 103.571 14.9572 104.512 14.2576C105.484 13.534 106.575 13.172 107.785 13.172ZM83.5922 16.9616L83.4994 16.9621C81.8375 16.9827 80.6067 17.5584 79.8067 18.6886L79.7592 18.7569C78.9755 19.9053 78.5841 21.5436 78.5841 23.6724L78.5846 23.7971C78.5999 25.9069 79.007 27.5201 79.8067 28.6363C80.6215 29.7746 81.8833 30.3436 83.5922 30.3436L83.6852 30.343C85.3206 30.3224 86.5352 29.7571 87.3285 28.6461L87.3747 28.5803C88.1524 27.4506 88.5413 25.8147 88.5413 23.6724L88.5408 23.547C88.5256 21.4243 88.1214 19.8016 87.3285 18.6788L87.284 18.6169C86.4748 17.5133 85.244 16.9616 83.5922 16.9616ZM161.592 16.7247L161.496 16.7253C160.122 16.7431 159.043 17.1444 158.26 17.9287C157.458 18.7315 156.945 19.8698 156.722 21.3432H165.871L165.87 21.2174C165.859 20.6324 165.774 20.0792 165.614 19.5571L165.583 19.4592C165.412 18.9405 165.16 18.4829 164.826 18.0866L164.762 18.0132C164.418 17.6269 163.992 17.3193 163.485 17.09L163.403 17.0544C162.882 16.8347 162.279 16.7247 161.592 16.7247Z" fill="#28304D"/>
</g>
<defs>
<clipPath id="clip0">
<rect width="190" height="42.3268" fill="white"/>
</clipPath>
</defs>
</svg>
