<?xml version="1.0" encoding="UTF-8"?>
<svg width="123px" height="145px" viewBox="0 0 123 145" version="1.1" xmlns="http://www.w3.org/2000/svg" xmlns:xlink="http://www.w3.org/1999/xlink">
    <title>horus_principal</title>
    <defs>
        <linearGradient x1="100%" y1="23.5016279%" x2="7.84045515%" y2="72.3336509%" id="linearGradient-1">
            <stop stop-color="#F7941E" offset="0%"></stop>
            <stop stop-color="#EF4123" offset="100%"></stop>
        </linearGradient>
    </defs>
    <g stroke="none" stroke-width="1" fill="none" fill-rule="evenodd">
        <g transform="translate(-314.000000, -173.000000)" fill-rule="nonzero">
            <g transform="translate(274.000000, 173.000000)">
                <g transform="translate(40.000000, 0.000000)">
                    <path d="M112.976836,44.5828396 C112.044946,45.5992483 111.36215,46.4981858 110.839937,47.3047796 C110.893044,55.618224 111.02012,71.8097781 111.075755,74.1164856 C111.417153,88.1464437 106.300608,100.156148 95.4296084,110.832209 C93.9236637,112.31222 92.3614515,113.679158 90.7518228,115.049865 C92.2425944,113.780297 87.287897,118.300112 79.1695776,123.495857 C73.6376646,126.889959 67.5974478,129.841816 60.9699,132.380325 C47.4821478,127.199027 36.2963036,120.136934 26.8244041,110.832209 C25.1085628,109.146779 23.5457183,107.427428 22.116272,105.673526 L22.0549468,105.596887 C20.1203578,103.216053 18.438024,100.769888 17.023751,98.2495966 C17.032602,98.244571 17.0420853,98.2389173 17.0509364,98.2338918 L14.9266818,95.1086549 C8.74042252,93.7762675 3.4278894,90.0869174 0,85.0325142 C0.438127509,87.8141321 1.05959842,90.5297902 1.88843704,93.1763476 C3.45128149,97.9298487 3.97602295,98.8802976 6.6964597,104.203566 C9.69570487,109.477207 13.6002871,114.47947 18.4531973,119.245535 C29.6390415,130.235062 42.8758029,138.41533 58.9202472,144.254969 L60.9692677,145 L63.0170239,144.254969 C79.4016018,138.291577 92.7420471,130.11068 103.801448,119.246163 C117.131777,106.153462 123.40465,91.2980645 122.9798,73.8325445 C122.940602,72.192973 122.905198,49.1277822 122.882438,29 C122.271082,30.5459715 121.622426,32.0919429 120.879569,33.5926849 C119.061941,37.2675866 116.259316,41.0034225 112.976836,44.5828396 Z" id="Fill-1" fill="url(#linearGradient-1)"></path>
                    <path d="M122.9805,0 L122.981094,0.759979863 C122.981117,0.789166449 122.981141,0.819157061 122.981166,0.849945306 L122.981679,1.48889505 C122.981711,1.52902442 122.981745,1.56991302 122.981778,1.61155445 L122.982335,2.29183784 C122.982375,2.34084753 122.982416,2.39057805 122.982458,2.44102299 L122.982989,3.08024518 C122.983036,3.13630314 122.983084,3.19304992 122.983132,3.25047912 L122.983583,3.78559464 C122.983635,3.8470608 122.983688,3.90919018 122.983741,3.97197639 L122.984239,4.55461372 C122.984296,4.62128328 122.984354,4.68859046 122.984412,4.75652887 L122.98477,5.1716828 C122.984831,5.2421205 122.984893,5.31317663 122.984955,5.38484478 L122.985336,5.82214678 C122.985401,5.89623743 122.985466,5.97092731 122.985533,6.04621 L122.986144,6.7395877 C122.986214,6.81836974 122.986284,6.89772544 122.986355,6.97764828 L122.986789,7.4639411 C122.987009,7.71043964 122.987236,7.96192799 122.987468,8.2182333 L122.987939,8.73721547 C122.988018,8.82476589 122.988099,8.91283871 122.98818,9.00142759 L122.988673,9.53910177 C122.98909,9.99223846 122.989522,10.4579557 122.98997,10.9354535 L122.990514,11.5140543 C122.99318,14.3374608 122.996352,17.5463995 123,20.9847779 L123,20.9847779 L122.937172,21.1781868 C122.246818,23.303362 121.58672,25.3355262 121.466447,25.6539298 L121.466447,25.6539298 L121.207991,26.3370232 C120.342844,28.6196524 119.437054,30.9516225 118.359713,33.1177384 L118.359713,33.1177384 L118.144404,33.5419173 C116.388733,36.9347032 113.843318,40.3065548 111.004572,43.2649891 L111.004572,43.2649891 L111.003943,43.2664647 L111.003314,43.2674744 L110.678972,43.6234626 C110.461936,43.860205 110.243037,44.0954748 110.020783,44.3274309 L110.020783,44.3274309 L109.654865,44.7066754 C106.353252,48.1100481 102.820606,51.2413128 98.6147477,53.55452 L98.6147477,53.55452 L97.9125673,53.9426428 C96.2754487,54.8515358 94.6442893,55.7764834 92.9529308,56.57347 L92.9529308,56.57347 L92.8237312,56.6341962 C91.1832171,57.4036075 91.0549214,57.4129947 91.0463082,59.1342185 L91.0457395,59.4128611 L91.0456276,59.6595705 L91.0456276,59.6595705 L91.0452011,60.7472295 C91.0451671,60.8444274 91.0451338,60.943233 91.0451004,61.0436219 L91.0445375,63.0163852 C91.0445079,63.1349015 91.044479,63.2548555 91.0444507,63.3762231 L91.0438978,66.1244163 C91.0438739,66.2643852 91.04385,66.4055986 91.0438261,66.5480311 L91.0432599,70.672384 C91.0432417,70.834804 91.0432235,70.9982255 91.0432052,71.1626244 L91.0426284,78.0162467 C91.0426164,78.2019497 91.0426045,78.3883144 91.0425932,78.5753166 L91.0419654,111.181112 L90.842077,111.351949 C88.258521,113.554411 83.732517,117.200723 79.5170449,120 L79.5170449,120 L79.5170544,116.51779 C79.5170487,116.388646 79.5170424,116.256398 79.5170355,116.121127 L79.5164687,108.267217 C79.5164505,108.059514 79.5164316,107.850006 79.5164121,107.638772 L79.5157938,101.575626 C79.5157674,101.339929 79.5157403,101.103238 79.5157127,100.865635 L79.5151774,96.5077422 C79.5151447,96.26211 79.5151126,96.0160516 79.5150792,95.769649 L79.5145534,92.0579273 C79.5145163,91.8101106 79.5144785,91.5623548 79.5144408,91.3147418 L79.5139652,88.3554296 C79.5139237,88.1102566 79.5138822,87.8655514 79.5138401,87.6213948 L79.5133148,84.7230382 C79.5132695,84.4845685 79.5132236,84.2469724 79.5131777,84.0103299 L79.51275,81.9085144 C79.5127009,81.6783299 79.5126518,81.4493427 79.5126022,81.2216353 L79.5121442,79.2089953 C79.512092,78.9896931 79.5120392,78.7719136 79.5119863,78.5557378 L79.5114976,76.6556533 C79.5114422,76.449831 79.5113863,76.2458565 79.5113296,76.0438105 L79.5108107,74.2796589 C79.5107516,74.0899149 79.5106924,73.902343 79.5106321,73.7170245 L79.5102679,72.6328002 C79.5102068,72.4568195 79.5101446,72.2832544 79.5100823,72.1121858 L79.5095086,70.642174 C79.5094438,70.4868164 79.5093784,70.3341994 79.5093124,70.1844045 L79.5089123,69.3201392 C79.5088444,69.1819546 79.5087765,69.0467537 79.5087079,68.9146182 L79.5082921,68.1592333 C79.5082217,68.0396825 79.5081512,67.9233588 79.5080801,67.8103436 L79.507648,67.1726058 C79.507575,67.07315 79.5075021,66.977165 79.5074285,66.8847319 L79.5069806,66.3734079 L79.5054074,66.185416 C79.4935887,65.432133 79.4176596,64.6551488 79.3572736,63.5700528 L79.3572736,63.5700528 L79.1286635,63.6692171 C78.3086348,64.0205809 77.6846549,64.2441236 77.1167013,64.5647717 L77.1167013,64.5647717 L72.889681,66.9661156 C70.0743232,68.5716751 67.2620407,70.1826654 64.4394146,71.7757067 L64.4394146,71.7757067 L60.1070235,74.2104983 C55.7712317,76.6399894 51.428275,79.0585586 47.1054863,81.5110283 L47.1054863,81.5110283 L47.0645054,81.5342603 C45.9495736,82.1667605 39.9916392,85.5783691 32.6103292,89.8067723 L32.6103292,89.8067723 L32.5990069,89.7626592 L32.2078804,90.0081858 C31.0256998,90.7320162 29.7649533,91.3408512 28.4430659,91.8278969 L28.4430659,91.8278969 L28.4021796,91.8484001 L28.3883411,91.8459149 L27.9988552,91.9838242 C25.9123321,92.6998478 23.6786768,93.102681 21.3508556,93.1301646 L21.3508556,93.1301646 L21.1418634,93.1313296 L21.1418634,93.1313296 L20.9319277,93.1320286 L20.4799594,93.123913 C19.2777891,93.0900404 18.1006348,92.9584759 16.9577738,92.7331469 L16.9577738,92.7331469 L16.957302,92.7330693 L16.9558867,92.7325256 L16.6773877,92.6725691 L16.6773877,92.6725691 L16.3998323,92.6088847 L15.9306701,92.4941609 C15.152082,92.2951401 14.3905299,92.057575 13.650382,91.7893756 L13.650382,91.7893756 L13.3695242,91.6860826 L13.3695242,91.6860826 L13.0905534,91.5781299 L13.0968436,91.5868282 L13.0962146,91.5868282 L12.8401134,91.4859559 C5.1006078,88.3796384 0,81.0507586 0,72.2982293 L0,72.2982293 L0.0036576399,71.9256496 C0.00845683618,71.6778155 0.0178222581,71.4310861 0.0308220229,71.1854613 L0.0308220229,71.1854613 L0.0333381064,70.8319354 L0.0578699205,70.8319354 L0.0809871768,70.5340217 C0.720067112,63.0017335 5.41134405,56.6082796 11.9992022,53.4930103 L11.9992022,53.4930103 L12.3357013,53.337511 C14.9278972,52.1673311 17.8027061,51.5044268 20.8300263,51.4669152 L20.8300263,51.4669152 L20.9630642,51.463032 L20.9630642,51.463032 L21.0961021,51.4600808 L21.4197502,51.4624847 C28.3117813,51.5649303 34.3984904,54.9339069 38.1733899,60.0683442 L38.1733899,60.0683442 L38.3312459,60.244697 C38.6913492,60.6631524 38.9932399,61.1300093 39.2238547,61.6377757 L39.2238547,61.6377757 L39.3980149,61.9321218 L39.3980149,61.9321218 L39.5679291,62.2292637 L39.472947,62.2746194 L39.5351906,62.4842889 C39.6714817,62.9772153 39.744684,63.4956508 39.744684,64.0316869 L39.744684,64.0316869 L39.742325,64.1985623 C39.6528797,67.3584126 37.0312073,69.8925132 33.8111301,69.8925132 L33.8111301,69.8925132 L33.6114131,69.8892544 C31.6224013,69.8242485 29.8832599,68.7918509 28.8563327,67.2538055 L28.8563327,67.2538055 L28.7978337,67.2811432 L28.664619,67.0873936 C27.3080236,65.1678739 25.2223776,63.7918608 22.8038938,63.3445169 L22.8038938,63.3445169 L22.5257705,63.2971246 C22.0599892,63.2242069 21.5830691,63.1823548 21.0961021,63.1823548 L21.0961021,63.1823548 L20.8848295,63.1846996 C16.3900626,63.2845679 12.6990508,66.5631277 11.9985732,70.8319354 L11.9985732,70.8319354 L11.9545417,71.1291289 C11.9285422,71.3282249 11.9092522,71.5292532 11.8966718,71.732215 L11.8966718,71.732215 L11.8910106,72.7517863 L11.9030583,72.9493899 C12.2429349,77.6782572 16.2228275,81.4134824 21.0961021,81.4134824 L21.0961021,81.4134824 L21.4051665,81.4082504 C22.3282345,81.3769866 23.2137009,81.2067723 24.0487261,80.9288599 L24.0487261,80.9288599 L24.0480971,80.935073 L24.0820642,80.9164337 L24.1230266,80.90042 C25.7913263,80.1940901 58.5885391,61.9932091 60.5464044,60.8903386 L60.5464044,60.8903386 L60.5058581,60.8723401 C59.4329993,60.4133528 50.380964,57.6250216 46.6859294,55.7489904 L46.6859294,55.7489904 L46.157308,55.4772807 C41.0644348,52.8283504 36.4694352,49.5273894 32.4581062,45.3712333 L32.4581062,45.3712333 L32.0379889,44.9316024 C28.6983568,41.4016358 25.8706977,37.5600373 23.5989762,33.2935694 L23.5989762,33.2935694 L23.5293114,33.1672867 C23.0109487,32.2630154 22.3231851,31.8377568 21.1577462,31.8496427 L21.1577462,31.8496427 L21.0560497,31.8505775 C20.3148159,31.857034 18.9652593,31.8616725 17.524007,31.8649748 L17.1101718,31.8658823 C17.0409322,31.8660276 16.9715962,31.8661701 16.9022196,31.8663096 L16.4859197,31.8671127 C15.7927627,31.8683952 15.1067057,31.8694006 14.4835338,31.8701811 L14.1176231,31.8706228 C14.0580445,31.870692 13.9992063,31.8707591 13.9411643,31.8708242 L13.44179,31.8713541 C13.3890273,31.8714071 13.3372282,31.871458 13.2864484,31.8715071 L12.7295899,31.8720091 C12.6878575,31.8720439 12.6473676,31.872077 12.6081759,31.8721086 L11.8603747,31.8726282 L11.8603747,31.8726282 L11.8545274,31.8726313 L11.8545274,40.6119913 L11.8521261,40.7789819 C11.7626791,43.8853533 9.18566909,46.3765253 6.01972978,46.3771358 L6.01972978,46.3771358 L5.84486197,46.3771358 L5.6757986,46.3747948 C2.53085881,46.286991 0.00817727138,43.7403465 0.00817727138,40.6119913 L0.00817727138,40.6119913 L0.00817727138,0 L122.9805,0 Z M111.132892,11.702392 L11.8545274,11.702392 L11.8545274,20.473439 L12.0268791,20.473439 L12.0268791,20.4945635 L20.2588753,20.4942529 L20.2588753,20.4942529 L28.4908715,20.4958062 L28.761897,20.4962296 C30.4809395,20.5026138 30.4844483,20.6068137 31.1931452,22.4044734 L31.1931452,22.4044734 L31.3626331,22.8295569 C34.5552192,30.7425852 39.3657045,37.4283394 46.5343353,42.4007456 L46.5343353,42.4007456 L47.0087189,42.7247179 C50.181561,44.858115 53.5605584,46.46693 57.1723364,47.778192 L57.1723364,47.778192 L57.6484667,47.947237 C62.7310447,49.7112895 67.9368467,50.2291696 73.2532551,49.9676918 L73.2532551,49.9676918 L73.7808174,49.9380897 C77.2936788,49.7173387 80.7223986,49.0280921 84.0843655,47.8440509 L84.0843655,47.8440509 L84.6746242,47.6327642 C87.4197588,46.6336185 90.0338966,45.4478203 92.5472124,43.9627213 L92.5472124,43.9627213 L93.014812,43.681213 C96.1128864,41.7823778 98.828345,39.4441634 101.313876,36.8393911 L101.313876,36.8393911 L101.65664,36.4761955 C104.154285,33.8004347 106.297964,30.8523576 107.897209,27.556384 L107.897209,27.556384 L108.219807,26.8922796 C109.185758,24.9050885 110.136271,22.9543336 111.10207,20.779124 L111.10207,20.779124 L111.101441,20.6331159 L111.132892,11.702392 Z M70.6050772,20.8884723 L70.9624466,20.8884723 L70.9624466,20.8884723 L72.0337735,20.8890185 C83.4508478,20.8977623 94.4346272,21.0115688 95.3790643,21.2370301 L95.3790643,21.2370301 L95.2645593,21.6271358 C94.2447818,24.9930339 92.5143636,27.9688424 90.2047386,30.583411 L90.2047386,30.583411 L89.9555564,30.8621912 C85.1977941,36.1185795 79.113528,39.0693083 72.0323255,39.5669463 L72.0323255,39.5669463 L71.6474509,39.590994 C58.9590655,40.2859402 47.5327361,31.24589 45.5543208,21.2357875 C46.263957,21.0334887 55.7513833,20.9177956 66.2659962,20.8933641 L66.9844022,20.8918398 C67.1043716,20.8916093 67.224451,20.8913907 67.3446286,20.8911838 L68.0667861,20.8900844 C68.4283649,20.8896055 68.7906262,20.8892331 69.1532618,20.8889671 L70.2419875,20.8884723 L70.2419875,20.8884723 L70.6050772,20.8884723 Z" id="Combined-Shape" fill="#1C1C1E"></path>
                </g>
            </g>
        </g>
    </g>
</svg>
