<svg width="123" height="145" viewBox="0 0 123 145" fill="none" xmlns="http://www.w3.org/2000/svg">
<path d="M112.977 44.5828C112.045 45.5992 111.362 46.4982 110.84 47.3048C110.893 55.6182 111.02 71.8098 111.076 74.1165C111.417 88.1464 106.301 100.156 95.4296 110.832C93.9237 112.312 92.3615 113.679 90.7518 115.05C92.2426 113.78 87.2879 118.3 79.1696 123.496C73.6377 126.89 67.5974 129.842 60.9699 132.38C47.4821 127.199 36.2963 120.137 26.8244 110.832C25.1086 109.147 23.5457 107.427 22.1163 105.674L22.0549 105.597C20.1204 103.216 18.438 100.77 17.0238 98.2496C17.0326 98.2446 17.0421 98.2389 17.0509 98.2339L14.9267 95.1087C8.74042 93.7763 3.42789 90.0869 0 85.0325C0.438128 87.8141 1.0596 90.5298 1.88844 93.1763C3.45128 97.9298 3.97602 98.8803 6.69646 104.204C9.69571 109.477 13.6003 114.479 18.4532 119.246C29.639 130.235 42.8758 138.415 58.9202 144.255L60.9693 145L63.017 144.255C79.4016 138.292 92.742 130.111 103.801 119.246C117.132 106.153 123.405 91.2981 122.98 73.8325C122.941 72.193 122.905 49.1278 122.882 29C122.271 30.546 121.622 32.0919 120.88 33.5927C119.062 37.2676 116.259 41.0034 112.977 44.5828Z" fill="url(#paint0_linear)"/>
<path d="M122.98 0L122.981 0.75998C122.981 0.789166 122.981 0.819157 122.981 0.849945L122.982 1.4889C122.982 1.52902 122.982 1.56991 122.982 1.61155L122.982 2.29184C122.982 2.34085 122.982 2.39058 122.982 2.44102L122.983 3.08025C122.983 3.1363 122.983 3.19305 122.983 3.25048L122.984 3.78559C122.984 3.84706 122.984 3.90919 122.984 3.97198L122.984 4.55461C122.984 4.62128 122.984 4.68859 122.984 4.75653L122.985 5.17168C122.985 5.24212 122.985 5.31318 122.985 5.38484L122.985 5.82215C122.985 5.89624 122.985 5.97093 122.986 6.04621L122.986 6.73959C122.986 6.81837 122.986 6.89773 122.986 6.97765L122.987 7.46394C122.987 7.71044 122.987 7.96193 122.987 8.21823L122.988 8.73722C122.988 8.82477 122.988 8.91284 122.988 9.00143L122.989 9.5391C122.989 9.99224 122.99 10.458 122.99 10.9355L122.991 11.5141C122.993 14.3375 122.996 17.5464 123 20.9848L122.937 21.1782C122.247 23.3034 121.587 25.3355 121.466 25.6539L121.208 26.337C120.343 28.6197 119.437 30.9516 118.36 33.1177L118.144 33.5419C116.389 36.9347 113.843 40.3066 111.005 43.265L111.004 43.2665L111.003 43.2675L110.679 43.6235C110.462 43.8602 110.243 44.0955 110.021 44.3274L109.655 44.7067C106.353 48.1101 102.821 51.2413 98.6147 53.5545L97.9126 53.9426C96.2755 54.8515 94.6443 55.7765 92.9529 56.5735L92.8237 56.6342C91.1832 57.4036 91.0549 57.413 91.0463 59.1342L91.0457 59.4129L91.0456 59.6596L91.0452 60.7472C91.0452 60.8444 91.0451 60.9432 91.0451 61.0436L91.0445 63.0164C91.0445 63.1349 91.0445 63.2549 91.0444 63.3762L91.0439 66.1244C91.0439 66.2644 91.0438 66.4056 91.0438 66.548L91.0433 70.6724C91.0432 70.8348 91.0432 70.9982 91.0432 71.1626L91.0426 78.0162C91.0426 78.2019 91.0426 78.3883 91.0426 78.5753L91.042 111.181L90.8421 111.352C88.2585 113.554 83.7325 117.201 79.517 120L79.5171 116.518C79.517 116.389 79.517 116.256 79.517 116.121L79.5165 108.267C79.5165 108.06 79.5164 107.85 79.5164 107.639L79.5158 101.576C79.5158 101.34 79.5157 101.103 79.5157 100.866L79.5152 96.5077C79.5151 96.2621 79.5151 96.016 79.5151 95.7696L79.5146 92.0579C79.5145 91.8101 79.5145 91.5624 79.5144 91.3147L79.514 88.3554C79.5139 88.1103 79.5139 87.8655 79.5138 87.6214L79.5133 84.723C79.5133 84.4846 79.5132 84.247 79.5132 84.0103L79.5127 81.9085C79.5127 81.6783 79.5127 81.4493 79.5126 81.2216L79.5121 79.209C79.5121 78.9897 79.512 78.7719 79.512 78.5557L79.5115 76.6557C79.5114 76.4498 79.5114 76.2459 79.5113 76.0438L79.5108 74.2797C79.5107 74.0899 79.5107 73.9023 79.5106 73.717L79.5103 72.6328C79.5102 72.4568 79.5101 72.2832 79.5101 72.1122L79.5095 70.6422C79.5094 70.4868 79.5094 70.3342 79.5093 70.1844L79.5089 69.3201C79.5088 69.182 79.5088 69.0468 79.5087 68.9146L79.5083 68.1592C79.5082 68.0397 79.5081 67.9234 79.5081 67.8103L79.5076 67.1726C79.5076 67.0732 79.5075 66.9772 79.5074 66.8847L79.507 66.3734L79.5054 66.1854C79.4936 65.4321 79.4177 64.6552 79.3573 63.5701L79.1287 63.6692C78.3086 64.0206 77.6847 64.2441 77.1167 64.5648L72.8897 66.9661C70.0743 68.5717 67.262 70.1827 64.4394 71.7757L60.107 74.2105C55.7712 76.64 51.4283 79.0586 47.1055 81.511L47.0645 81.5343C45.9496 82.1668 39.9916 85.5784 32.6103 89.8068L32.599 89.7627L32.2079 90.0082C31.0257 90.732 29.765 91.3409 28.4431 91.8279L28.4022 91.8484L28.3883 91.8459L27.9989 91.9838C25.9123 92.6999 23.6787 93.1027 21.3509 93.1302L21.1419 93.1313L20.9319 93.132L20.48 93.1239C19.2778 93.09 18.1006 92.9585 16.9578 92.7331L16.9573 92.7331L16.9559 92.7325L16.6774 92.6726L16.3998 92.6089L15.9307 92.4942C15.1521 92.2951 14.3905 92.0576 13.6504 91.7894L13.3695 91.6861L13.0906 91.5781L13.0968 91.5868H13.0962L12.8401 91.486C5.10061 88.3796 0 81.0508 0 72.2982L0.00365764 71.9257C0.00845684 71.6778 0.0178223 71.4311 0.030822 71.1855L0.0333381 70.8319H0.0578699L0.0809872 70.534C0.720067 63.0017 5.41134 56.6083 11.9992 53.493L12.3357 53.3375C14.9279 52.1673 17.8027 51.5044 20.83 51.4669L20.9631 51.463L21.0961 51.4601L21.4198 51.4625C28.3118 51.5649 34.3985 54.9339 38.1734 60.0683L38.3312 60.2447C38.6913 60.6632 38.9932 61.13 39.2239 61.6378L39.398 61.9321L39.5679 62.2293L39.4729 62.2746L39.5352 62.4843C39.6715 62.9772 39.7447 63.4956 39.7447 64.0317L39.7423 64.1986C39.6529 67.3584 37.0312 69.8925 33.8111 69.8925L33.6114 69.8893C31.6224 69.8242 29.8833 68.7919 28.8563 67.2538L28.7978 67.2811L28.6646 67.0874C27.308 65.1679 25.2224 63.7919 22.8039 63.3445L22.5258 63.2971C22.06 63.2242 21.5831 63.1824 21.0961 63.1824L20.8848 63.1847C16.3901 63.2846 12.6991 66.5631 11.9986 70.8319L11.9545 71.1291C11.9285 71.3282 11.9093 71.5293 11.8967 71.7322L11.891 72.7518L11.9031 72.9494C12.2429 77.6783 16.2228 81.4135 21.0961 81.4135L21.4052 81.4082C22.3282 81.377 23.2137 81.2068 24.0487 80.9289L24.0481 80.9351L24.0821 80.9164L24.123 80.9004C25.7913 80.1941 58.5885 61.9932 60.5464 60.8903L60.5059 60.8723C59.433 60.4134 50.381 57.625 46.6859 55.749L46.1573 55.4773C41.0644 52.8284 36.4694 49.5274 32.4581 45.3712L32.038 44.9316C28.6984 41.4016 25.8707 37.56 23.599 33.2936L23.5293 33.1673C23.011 32.263 22.3232 31.8378 21.1577 31.8496L21.056 31.8506C20.3148 31.857 18.9653 31.8617 17.524 31.865L17.1102 31.8659C17.0409 31.866 16.9716 31.8662 16.9022 31.8663L16.4859 31.8671C15.7928 31.8684 15.1067 31.8694 14.4835 31.8702L14.1176 31.8706C14.058 31.8707 13.9992 31.8708 13.9412 31.8708L13.4418 31.8714C13.389 31.8714 13.3372 31.8715 13.2864 31.8715L12.7296 31.872C12.6879 31.872 12.6474 31.8721 12.6082 31.8721L11.8604 31.8726L11.8545 31.8726V40.612L11.8521 40.779C11.7627 43.8854 9.18567 46.3765 6.01973 46.3771H5.84486L5.6758 46.3748C2.53086 46.287 0.00817727 43.7403 0.00817727 40.612V0H122.98ZM111.133 11.7024H11.8545V20.4734H12.0269V20.4946L20.2589 20.4943L28.4909 20.4958L28.7619 20.4962C30.4809 20.5026 30.4844 20.6068 31.1931 22.4045L31.3626 22.8296C34.5552 30.7426 39.3657 37.4283 46.5343 42.4007L47.0087 42.7247C50.1816 44.8581 53.5606 46.4669 57.1723 47.7782L57.6485 47.9472C62.731 49.7113 67.9369 50.2292 73.2533 49.9677L73.7808 49.9381C77.2937 49.7173 80.7224 49.0281 84.0844 47.8441L84.6746 47.6328C87.4198 46.6336 90.0339 45.4478 92.5472 43.9627L93.0148 43.6812C96.1129 41.7824 98.8283 39.4442 101.314 36.8394L101.657 36.4762C104.154 33.8004 106.298 30.8524 107.897 27.5564L108.22 26.8923C109.186 24.9051 110.136 22.9543 111.102 20.7791L111.101 20.6331L111.133 11.7024ZM70.6051 20.8885H70.9624L72.0338 20.889C83.4509 20.8978 94.4346 21.0116 95.3791 21.237L95.2646 21.6271C94.2448 24.993 92.5144 27.9688 90.2047 30.5834L89.9556 30.8622C85.1978 36.1186 79.1135 39.0693 72.0323 39.5669L71.6475 39.591C58.9591 40.2859 47.5327 31.2459 45.5543 21.2358C46.264 21.0335 55.7514 20.9178 66.266 20.8934L66.9844 20.8918C67.1044 20.8916 67.2244 20.8914 67.3446 20.8912L68.0668 20.8901C68.4284 20.8896 68.7906 20.8892 69.1533 20.889L70.242 20.8885H70.6051Z" fill="#1C1C1E"/>
<defs>
<linearGradient id="paint0_linear" x1="123" y1="56.2619" x2="12.6513" y2="118.26" gradientUnits="userSpaceOnUse">
<stop stop-color="#333333"/>
<stop offset="1" stop-color="#333333"/>
</linearGradient>
</defs>
</svg>
