<svg width="270" height="59" viewBox="0 0 270 59" fill="none" xmlns="http://www.w3.org/2000/svg">
<path d="M203.184 16.3297L203.393 16.331C205.268 16.3535 206.981 16.6804 208.53 17.3111L208.707 17.3847C210.236 18.0299 211.515 18.8651 212.547 19.8914L210.995 22.3873L210.949 22.4603C210.778 22.7209 210.6 22.9069 210.414 23.0181L210.357 23.0499C210.163 23.1505 209.923 23.2006 209.638 23.2006L209.561 23.199C209.251 23.1857 208.921 23.0928 208.571 22.9201L208.456 22.8633C208.104 22.6909 207.704 22.4997 207.256 22.289L207.104 22.2197C206.642 22.0138 206.125 21.8266 205.552 21.6579L205.431 21.624C204.82 21.4599 204.108 21.3776 203.294 21.3776L203.16 21.3786C201.875 21.3973 200.858 21.687 200.108 22.2472L200.032 22.3057C199.307 22.8773 198.945 23.6151 198.945 24.5185L198.946 24.6103C198.965 25.1871 199.163 25.6755 199.54 26.0752L199.621 26.1586C200.008 26.5447 200.508 26.8862 201.119 27.1827L201.285 27.2616C201.899 27.548 202.588 27.8065 203.35 28.0381L203.707 28.1477C204.424 28.3697 205.154 28.6091 205.898 28.8651L206.223 28.9794C206.978 29.2507 207.72 29.5539 208.447 29.889L208.612 29.9671C209.376 30.3376 210.065 30.7976 210.677 31.3474L210.791 31.4525C211.394 32.0196 211.882 32.6907 212.256 33.4646L212.306 33.5729C212.67 34.3737 212.851 35.3288 212.851 36.4373L212.85 36.6097C212.83 37.9272 212.581 39.1458 212.104 40.2651L212.04 40.4103C211.544 41.5176 210.835 42.4787 209.915 43.2937L209.799 43.395C208.859 44.1977 207.712 44.8274 206.355 45.285L206.191 45.339C204.817 45.7797 203.251 46 201.493 46L201.249 45.9981C200.355 45.9846 199.481 45.8964 198.626 45.7336L198.373 45.6834C197.531 45.5103 196.72 45.2799 195.939 44.9908L195.726 44.9102C194.949 44.6104 194.225 44.2635 193.557 43.869L193.39 43.7691C192.729 43.3669 192.143 42.9325 191.632 42.4665L193.211 39.8304L193.267 39.7457C193.458 39.4693 193.679 39.2545 193.931 39.1015L193.991 39.0667C194.258 38.9214 194.589 38.8491 194.983 38.8491L195.068 38.8507C195.462 38.8658 195.835 38.9868 196.189 39.2135L196.317 39.2952C196.665 39.515 197.061 39.7496 197.504 39.9989L197.631 40.0686C198.101 40.3228 198.645 40.5615 199.263 40.7841L199.366 40.8197C200.023 41.0391 200.843 41.1486 201.826 41.1486L201.977 41.1474C202.725 41.1359 203.372 41.0382 203.917 40.8543L204.04 40.8113C204.567 40.6209 205.006 40.3783 205.358 40.0828L205.437 40.014C205.775 39.7121 206.026 39.3657 206.189 38.975L206.231 38.8696C206.378 38.482 206.452 38.0825 206.452 37.6713L206.451 37.576C206.433 36.9459 206.235 36.4263 205.857 36.0166L205.775 35.9313C205.389 35.537 204.889 35.1919 204.278 34.8948L204.125 34.8221C203.506 34.5336 202.809 34.2725 202.034 34.0394L201.672 33.9298C200.947 33.7078 200.209 33.4686 199.457 33.2119L199.166 33.1105C198.389 32.8348 197.628 32.5181 196.881 32.1607L196.714 32.0788C195.941 31.6903 195.249 31.2079 194.637 30.6321L194.529 30.528C193.923 29.9306 193.433 29.2079 193.058 28.3608L193.009 28.2476C192.644 27.3724 192.463 26.3263 192.463 25.1075L192.464 24.9473C192.484 23.8277 192.714 22.7594 193.155 21.7423L193.216 21.6041C193.676 20.596 194.334 19.712 195.191 18.9519L195.304 18.8534C196.18 18.1047 197.26 17.5018 198.543 17.045C199.882 16.568 201.428 16.3297 203.184 16.3297ZM168.888 16.7786V35.0628L168.889 35.2084C168.911 36.8958 169.312 38.2073 170.093 39.1436L170.156 39.2167C170.959 40.1309 172.143 40.5877 173.708 40.5877L173.856 40.5863C174.982 40.565 176.041 40.2991 177.033 39.7883L177.195 39.7026C178.17 39.178 179.094 38.4728 179.969 37.5869V16.7786H186.811V45.5514H182.628L182.551 45.5503C181.708 45.5263 181.152 45.1062 180.883 44.2898L180.412 41.99L180.215 42.1876C179.685 42.7095 179.142 43.1905 178.584 43.6306L178.426 43.7529C177.844 44.1957 177.227 44.5756 176.575 44.8924L176.396 44.9774C175.736 45.2832 175.029 45.5259 174.276 45.7058L174.099 45.7463C173.328 45.9154 172.505 46 171.631 46L171.452 45.9988C169.974 45.9791 168.662 45.7131 167.517 45.2009L167.369 45.1332C166.242 44.6051 165.29 43.8753 164.511 42.9435L164.406 42.8156C163.645 41.8707 163.066 40.7588 162.669 39.4799L162.613 39.2968C162.235 38.0093 162.045 36.598 162.045 35.0628V16.7786H168.888ZM120.631 16.3297L120.85 16.331C122.887 16.354 124.74 16.6997 126.407 17.3673L126.585 17.4399C128.235 18.1271 129.649 19.0848 130.825 20.3119L130.951 20.4444C132.109 21.6909 133.009 23.1982 133.651 24.9671L133.719 25.1575C134.339 26.9411 134.649 28.9248 134.649 31.1089L134.647 31.344C134.625 33.5316 134.293 35.5096 133.651 37.2785L133.581 37.4671C132.921 39.2184 132.002 40.7163 130.825 41.9619L130.698 42.0943C129.505 43.3199 128.074 44.2669 126.407 44.9345L126.228 45.0048C124.547 45.6495 122.682 45.9721 120.631 45.9721L120.412 45.9709C118.374 45.9478 116.517 45.6022 114.841 44.9345L114.663 44.8619C113.003 44.1743 111.581 43.2074 110.395 41.9619L110.269 41.8274C109.102 40.5639 108.193 39.0479 107.542 37.2785L107.475 37.0945C106.846 35.3091 106.531 33.314 106.531 31.1089L106.532 30.8756C106.554 28.7059 106.891 26.7365 107.542 24.9671L107.612 24.7786C108.282 23.0284 109.209 21.5397 110.395 20.3119L110.523 20.1814C111.726 18.9736 113.165 18.0352 114.841 17.3673C116.577 16.6759 118.507 16.3297 120.631 16.3297ZM230.082 16.3297L230.288 16.331C232 16.3525 233.579 16.6421 235.027 17.1993L235.193 17.2648C236.628 17.8418 237.869 18.666 238.919 19.737L239.035 19.8572C240.069 20.9473 240.88 22.2724 241.468 23.8314L241.53 23.9996C242.098 25.5763 242.382 27.3663 242.382 29.37L242.381 29.499C242.378 29.9655 242.355 30.3574 242.313 30.6742L242.299 30.7667C242.251 31.0689 242.172 31.3089 242.063 31.4875L242.026 31.5447C241.91 31.7112 241.761 31.8325 241.578 31.9082L241.516 31.9321C241.323 32.0001 241.085 32.0342 240.803 32.0342H223.24L223.252 32.1975C223.472 35.0686 224.252 37.1828 225.594 38.5406L225.682 38.628C227.038 39.9535 228.818 40.6158 231.024 40.6158L231.197 40.6147C232.232 40.6017 233.13 40.4714 233.891 40.2232L234.075 40.1623C234.802 39.9168 235.442 39.6474 235.996 39.3537L236.158 39.2677C236.691 38.9836 237.164 38.7228 237.575 38.4846L237.666 38.434C238.086 38.206 238.494 38.0918 238.891 38.0918L238.973 38.0935C239.216 38.1036 239.428 38.1592 239.612 38.2601L239.678 38.2992C239.853 38.4082 240.006 38.5542 240.138 38.7368L242.132 41.2608L241.998 41.4177C241.275 42.2461 240.47 42.9467 239.584 43.5183L239.395 43.6382C238.511 44.1904 237.59 44.6364 236.633 44.9766L236.397 45.0588C235.448 45.3799 234.483 45.6094 233.503 45.7478L233.214 45.7867C232.254 45.9103 231.321 45.9721 230.414 45.9721L230.203 45.9709C228.307 45.948 226.54 45.6162 224.901 44.9766L224.727 44.9068C223.101 44.2452 221.682 43.2868 220.469 42.0318L220.344 41.9009C219.147 40.6252 218.201 39.0613 217.505 37.2085L217.438 37.028C216.763 35.1532 216.425 32.9932 216.425 30.548L216.426 30.3303C216.448 28.4482 216.762 26.6747 217.367 25.0092L217.435 24.8248C218.059 23.1729 218.936 21.7293 220.068 20.4943L220.194 20.3582C221.343 19.1417 222.732 18.1728 224.361 17.4515C226.051 16.704 227.958 16.3297 230.082 16.3297ZM259.833 16.3297L260.038 16.3308C262.077 16.3524 263.869 16.6982 265.415 17.3673L265.592 17.4454C267.119 18.1329 268.496 19.0977 269.723 20.34L267.922 22.8638L267.855 22.949C267.675 23.1708 267.499 23.3481 267.327 23.4809L267.284 23.5119C267.092 23.6411 266.825 23.7052 266.482 23.7052L266.401 23.7033C266.078 23.6881 265.764 23.5813 265.457 23.3829L265.355 23.3176C265.044 23.1192 264.681 22.8978 264.266 22.6537L264.149 22.5866C263.712 22.3426 263.201 22.1216 262.617 21.9243L262.51 21.8895C261.892 21.6981 261.139 21.6019 260.249 21.6019L260.093 21.6031C258.957 21.6215 257.956 21.8412 257.091 22.2611L256.968 22.3222C256.118 22.7582 255.406 23.3689 254.833 24.1541L254.748 24.2728C254.191 25.0721 253.771 26.0281 253.49 27.1407L253.446 27.3171C253.18 28.4421 253.046 29.706 253.046 31.1089L253.047 31.3268C253.062 32.7719 253.223 34.0639 253.531 35.2033L253.576 35.3652C253.897 36.4908 254.348 37.4416 254.93 38.218L255.018 38.3328C255.61 39.0896 256.319 39.6685 257.146 40.0689L257.265 40.125C258.103 40.5083 259.042 40.6997 260.083 40.6997L260.23 40.6989C261.252 40.6871 262.085 40.5521 262.728 40.2932L262.871 40.2347C263.483 39.9795 264.003 39.6996 264.432 39.3957L264.568 39.2985C264.973 39.0094 265.329 38.7427 265.637 38.4986L265.706 38.4461C266.03 38.21 266.39 38.0918 266.787 38.0918L266.858 38.093C267.377 38.1109 267.768 38.3255 268.033 38.7368L270 41.2603V41.2611L269.857 41.4276C269.14 42.2518 268.366 42.9489 267.534 43.5183L267.357 43.6382C266.525 44.1904 265.666 44.6364 264.778 44.9766L264.574 45.053C263.686 45.3772 262.771 45.6086 261.828 45.7478L261.551 45.7867C260.629 45.9103 259.715 45.9721 258.808 45.9721L258.621 45.9709C256.936 45.948 255.346 45.6162 253.85 44.9766L253.684 44.9044C252.202 44.2437 250.904 43.3002 249.791 42.0739L249.668 41.9366C248.572 40.6914 247.699 39.1808 247.049 37.4047L246.982 37.2197C246.352 35.4231 246.038 33.3861 246.038 31.1089L246.039 30.8748C246.06 28.8516 246.36 26.9714 246.938 25.2338L247.003 25.0414C247.601 23.3184 248.462 21.8212 249.584 20.5504L249.705 20.415C250.847 19.1613 252.247 18.1737 253.905 17.4515C255.623 16.704 257.598 16.3297 259.833 16.3297ZM74.5072 5V22.4433H93.2892V5H100.797V45.5514H93.2892V27.8278H74.5072V45.5514H67V5H74.5072ZM154.622 16.2456L154.761 16.2467C156.102 16.2678 157.219 16.5947 158.112 17.2272L157.226 22.4152L157.213 22.4858C157.153 22.7853 157.037 23.0003 156.866 23.1302L156.818 23.1638C156.639 23.2818 156.405 23.3408 156.118 23.3408L156.057 23.3398C155.786 23.3311 155.428 23.2661 154.982 23.1444L154.895 23.122C154.426 23.0063 153.817 22.9482 153.07 22.9482L152.933 22.9494C151.57 22.9742 150.396 23.3711 149.414 24.1401L149.309 24.2237C148.339 25.0156 147.515 26.1513 146.838 27.6313V45.5514H139.995V16.7786H144.012L144.102 16.7793C144.756 16.7902 145.215 16.9208 145.48 17.1712L145.523 17.2141C145.776 17.4809 145.946 17.9152 146.034 18.517L146.45 21.9945L146.552 21.8181C147.545 20.1256 148.702 18.7821 150.023 17.7881C151.39 16.76 152.923 16.2456 154.622 16.2456ZM120.631 21.63L120.501 21.6308C118.166 21.6601 116.437 22.478 115.313 24.0839L115.246 24.1809C114.145 25.8126 113.595 28.1404 113.595 31.1651L113.596 31.3423C113.617 34.34 114.189 36.632 115.313 38.218C116.457 39.8353 118.23 40.6437 120.631 40.6437L120.762 40.6429C123.06 40.6137 124.766 39.8104 125.881 38.2319L125.946 38.1383C127.038 36.5333 127.585 34.209 127.585 31.1651L127.584 30.9869C127.563 27.9709 126.995 25.6653 125.881 24.0699L125.818 23.982C124.681 22.414 122.952 21.63 120.631 21.63ZM230.22 21.2935L230.085 21.2943C228.155 21.3197 226.639 21.8898 225.539 23.0042C224.412 24.1448 223.692 25.7621 223.378 27.8556H236.232L236.23 27.6768C236.215 26.8457 236.096 26.0596 235.872 25.3179L235.828 25.1787C235.588 24.4418 235.233 23.7916 234.764 23.2285L234.674 23.1243C234.191 22.5754 233.592 22.1383 232.88 21.8125L232.765 21.7619C232.033 21.4498 231.185 21.2935 230.22 21.2935Z" fill="white"/>
<path d="M45.9255 18.3137C45.5467 18.7256 45.2692 19.0898 45.0569 19.4166C45.0785 22.785 45.1301 29.3453 45.1527 30.28C45.2915 35.9645 43.2116 40.8305 38.7925 45.1562C38.1803 45.7558 37.5453 46.3097 36.891 46.865C37.497 46.3506 35.4829 48.1819 32.1828 50.2871C29.934 51.6623 27.4786 52.8583 24.7845 53.8869C19.3017 51.7875 14.7546 48.9262 10.9042 45.1562C10.2067 44.4733 9.57143 43.7766 8.99035 43.066L8.96543 43.0349C8.17901 42.0703 7.49513 41.0792 6.92022 40.058C6.92382 40.056 6.92768 40.0537 6.93127 40.0517L6.06776 38.7854C3.55302 38.2456 1.39345 36.7507 0 34.7028C0.178101 35.8299 0.430731 36.9302 0.767657 38.0025C1.40296 39.9285 1.61627 40.3136 2.72214 42.4704C3.94134 44.6071 5.52857 46.6339 7.5013 48.565C12.0484 53.0177 17.4292 56.3321 23.9513 58.6981L24.7843 59L25.6167 58.6981C32.2771 56.2819 37.7 52.9673 42.1957 48.5653C47.6145 43.2605 50.1645 37.2415 49.9918 30.1649C49.9759 29.5006 49.9615 20.1552 49.9522 12C49.7037 12.6264 49.44 13.2528 49.138 13.8608C48.3992 15.3498 47.2599 16.8635 45.9255 18.3137Z" fill="url(#paint0_linear)"/>
<path d="M49.9921 0L49.9923 0.310325C49.9923 0.322243 49.9923 0.334489 49.9923 0.347061L49.9926 0.607965C49.9926 0.624352 49.9926 0.641048 49.9926 0.658051L49.9928 0.935834C49.9928 0.955846 49.9929 0.976153 49.9929 0.996751L49.9931 1.25777C49.9931 1.28066 49.9931 1.30383 49.9931 1.32728L49.9933 1.54578C49.9933 1.57088 49.9934 1.59625 49.9934 1.62189L49.9936 1.8598C49.9936 1.88702 49.9936 1.91451 49.9937 1.94225L49.9938 2.11177C49.9938 2.14053 49.9939 2.16955 49.9939 2.19881L49.994 2.37738C49.9941 2.40763 49.9941 2.43813 49.9941 2.46887L49.9944 2.752C49.9944 2.78417 49.9944 2.81657 49.9945 2.84921L49.9946 3.04778C49.9947 3.14843 49.9948 3.25112 49.9949 3.35578L49.9951 3.5677C49.9951 3.60345 49.9952 3.63941 49.9952 3.67558L49.9954 3.89513C49.9956 4.08016 49.9957 4.27033 49.9959 4.46531L49.9961 4.70157C49.9972 5.85446 49.9985 7.16478 50 8.56878L49.9745 8.64776C49.6938 9.51554 49.4255 10.3453 49.3766 10.4754L49.2715 10.7543C48.9199 11.6864 48.5516 12.6386 48.1137 13.5231L48.0262 13.6963C47.3125 15.0817 46.2778 16.4585 45.1238 17.6665L45.1236 17.6671L45.1233 17.6676L44.9915 17.8129C44.9032 17.9096 44.8142 18.0057 44.7239 18.1004L44.5751 18.2552C43.233 19.6449 41.797 20.9235 40.0873 21.8681L39.8019 22.0266C39.1364 22.3977 38.4733 22.7754 37.7857 23.1008L37.7332 23.1256C37.0663 23.4398 37.0142 23.4436 37.0107 24.1465L37.0105 24.2603L37.0104 24.361L37.0102 24.8051C37.0102 24.8448 37.0102 24.8852 37.0102 24.9261L37.01 25.7317C37.01 25.7801 37.01 25.8291 37.0099 25.8786L37.0097 27.0008C37.0097 27.058 37.0097 27.1156 37.0097 27.1738L37.0095 28.8579C37.0094 28.9242 37.0094 28.9909 37.0094 29.0581L37.0092 31.8566C37.0092 31.9325 37.0092 32.0086 37.0092 32.0849L37.0089 45.399L36.9277 45.4687C35.8774 46.3681 34.0376 47.857 32.324 49L32.324 47.5781C32.324 47.5254 32.324 47.4714 32.324 47.4161L32.3238 44.2091C32.3238 44.1243 32.3238 44.0388 32.3237 43.9525L32.3235 41.4767C32.3235 41.3805 32.3235 41.2838 32.3235 41.1868L32.3232 39.4073C32.3232 39.307 32.3232 39.2066 32.3232 39.1059L32.323 37.5903C32.323 37.4891 32.323 37.388 32.3229 37.2869L32.3228 36.0785C32.3227 35.9784 32.3227 35.8784 32.3227 35.7787L32.3225 34.5952C32.3225 34.4979 32.3224 34.4008 32.3224 34.3042L32.3223 33.446C32.3222 33.352 32.3222 33.2585 32.3222 33.1655L32.322 32.3437C32.322 32.2541 32.322 32.1652 32.3219 32.0769L32.3217 31.3011C32.3217 31.217 32.3217 31.1337 32.3217 31.0512L32.3215 30.3309C32.3214 30.2534 32.3214 30.1768 32.3214 30.1011L32.3212 29.6584C32.3212 29.5865 32.3212 29.5157 32.3212 29.4458L32.3209 28.8456C32.3209 28.7821 32.3209 28.7198 32.3209 28.6586L32.3207 28.3057C32.3207 28.2493 32.3206 28.1941 32.3206 28.1401L32.3204 27.8317C32.3204 27.7829 32.3204 27.7354 32.3204 27.6892L32.3202 27.4288C32.3202 27.3882 32.3201 27.349 32.3201 27.3113L32.3199 27.1025L32.3193 27.0257C32.3145 26.7181 32.2836 26.4009 32.2591 25.9578L32.1661 25.9983C31.8328 26.1417 31.5791 26.233 31.3483 26.3639L29.63 27.3445C28.4855 28.0001 27.3423 28.6579 26.1949 29.3084L24.4338 30.3026C22.6712 31.2947 20.9058 32.2822 19.1486 33.2837L19.1319 33.2932C18.6787 33.5514 16.2568 34.9445 13.2562 36.6711L13.2516 36.6531L13.0926 36.7533C12.6121 37.0489 12.0996 37.2975 11.5622 37.4964L11.5456 37.5048L11.54 37.5037L11.3816 37.5601C10.5335 37.8524 9.62548 38.0169 8.67921 38.0282L8.59425 38.0286L8.50891 38.0289L8.32519 38.0256C7.8365 38.0118 7.35798 37.958 6.8934 37.866L6.89321 37.866L6.89264 37.8658L6.77943 37.8413L6.6666 37.8153L6.47588 37.7684C6.15938 37.6872 5.84981 37.5902 5.54894 37.4807L5.43477 37.4385L5.32136 37.3944L5.32392 37.398H5.32366L5.21956 37.3568C2.07342 36.0884 0 33.0957 0 29.5218L0.00148685 29.3696C0.00343774 29.2684 0.00724482 29.1677 0.0125293 29.0674L0.0135521 28.923H0.0235244L0.0329216 28.8014C0.29271 25.7257 2.19973 23.115 4.87772 21.843L5.01451 21.7795C6.06825 21.3017 7.23687 21.031 8.46749 21.0157L8.52157 21.0141L8.57565 21.0129L8.70722 21.0138C11.5089 21.0557 13.9831 22.4313 15.5176 24.5279L15.5818 24.5999C15.7282 24.7708 15.8509 24.9614 15.9447 25.1688L16.0155 25.2889L16.0845 25.4103L16.0459 25.4288L16.0712 25.5144C16.1266 25.7157 16.1564 25.9274 16.1564 26.1463L16.1554 26.2144C16.1191 27.5047 15.0533 28.5394 13.7444 28.5394L13.6632 28.5381C12.8546 28.5116 12.1477 28.09 11.7302 27.462L11.7064 27.4731L11.6523 27.394C11.1008 26.6102 10.253 26.0483 9.26988 25.8657L9.15682 25.8463C8.96748 25.8166 8.77361 25.7995 8.57565 25.7995L8.48977 25.8004C6.66263 25.8412 5.16222 27.1799 4.87747 28.923L4.85957 29.0444C4.849 29.1257 4.84116 29.2078 4.83605 29.2907L4.83374 29.707L4.83864 29.7877C4.9768 31.7186 6.59465 33.2438 8.57565 33.2438L8.70129 33.2417C9.07652 33.2289 9.43646 33.1594 9.7759 33.046L9.77565 33.0485L9.78946 33.0409L9.80611 33.0343C10.4843 32.7459 23.8165 25.3139 24.6124 24.8636L24.5959 24.8562C24.1598 24.6688 20.4801 23.5302 18.978 22.7642L18.7631 22.6532C16.6929 21.5716 14.825 20.2237 13.1944 18.5266L13.0236 18.3471C11.666 16.9057 10.5165 15.337 9.59308 13.5949L9.56476 13.5433C9.35404 13.1741 9.07447 13.0004 8.60071 13.0053L8.55937 13.0057C8.25806 13.0083 7.70945 13.0102 7.12358 13.0115L6.95535 13.0119C6.92721 13.012 6.89902 13.012 6.87082 13.0121L6.70159 13.0124C6.41982 13.0129 6.14094 13.0133 5.88762 13.0137L5.73887 13.0138C5.71465 13.0139 5.69073 13.0139 5.66714 13.0139L5.46414 13.0141C5.44269 13.0142 5.42164 13.0142 5.401 13.0142L5.17463 13.0144C5.15767 13.0144 5.14121 13.0144 5.12527 13.0144L4.82129 13.0147L4.81891 13.0147V16.5832L4.81794 16.6514C4.78158 17.9199 3.73401 18.9371 2.44704 18.9373H2.37596L2.30724 18.9364C1.0288 18.9005 0.00332409 17.8606 0.00332409 16.5832V0H49.9921ZM45.176 4.77848H4.81891V8.35999H4.88898V8.36861L8.23532 8.36849L11.5817 8.36912L11.6918 8.36929C12.3906 8.3719 12.3921 8.41445 12.6801 9.14849L12.749 9.32207C14.0468 12.5532 16.0023 15.2832 18.9164 17.3136L19.1092 17.4459C20.399 18.3171 21.7726 18.974 23.2408 19.5094L23.4343 19.5785C25.5004 20.2988 27.6166 20.5102 29.7777 20.4035L29.9922 20.3914C31.4202 20.3012 32.814 20.0198 34.1806 19.5363L34.4206 19.45C35.5365 19.0421 36.5991 18.5579 37.6208 17.9514L37.8109 17.8365C39.0703 17.0611 40.1741 16.1064 41.1845 15.0428L41.3238 14.8944C42.3391 13.8018 43.2106 12.598 43.8607 11.2522L43.9918 10.981C44.3845 10.1696 44.7708 9.37302 45.1634 8.48481L45.1632 8.42519L45.176 4.77848ZM28.7013 8.52946H28.8465L29.282 8.52968C33.9231 8.53325 38.3881 8.57972 38.772 8.67179L38.7254 8.83108C38.3109 10.2055 37.6075 11.4206 36.6686 12.4882L36.5673 12.6021C34.6332 14.7484 32.16 15.9533 29.2814 16.1565L29.125 16.1663C23.9671 16.4501 19.3223 12.7587 18.518 8.67128C18.8065 8.58867 22.6632 8.54143 26.9374 8.53146L27.2294 8.53083C27.2782 8.53074 27.327 8.53065 27.3759 8.53057L27.6694 8.53012C27.8164 8.52992 27.9637 8.52977 28.1111 8.52966L28.5537 8.52946H28.7013Z" fill="white"/>
<defs>
<linearGradient id="paint0_linear" x1="50" y1="23.1272" x2="5.20071" y2="48.2147" gradientUnits="userSpaceOnUse">
<stop stop-color="white"/>
<stop offset="1" stop-color="white"/>
</linearGradient>
</defs>
</svg>
