<svg xmlns="http://www.w3.org/2000/svg" viewBox="0 0 461.46 92.57"><defs><style>.cls-1{fill:#d3d3d3;}</style></defs><g data-name="Layer 2"><g data-name="Layer 1"><path class="cls-1" d="M13.6,22.86c3.48-7.25,7.92-14,11.83-21C26.31.31,27.67,0,29.31,0q24,0,48,0c1.62,0,3,.25,3.9,1.84,3.89,7,8.41,13.69,11.83,21-.74,2-2.55,1.87-4.14,2a48.38,48.38,0,0,1-11.72-.45,4.06,4.06,0,0,1-4.07-2.15c-4.38-6.55-7.81-6.69-12.43-.55a11.3,11.3,0,0,1-3.56,2.79,16.19,16.19,0,0,1-7.55,0,10.37,10.37,0,0,1-4.41-4c-2.78-4.21-7.18-4.27-10.3-.29-1.43,1.81-2.19,4.49-5.34,4.07-4.15,1-8.34.73-12.52.51C15.63,24.64,14.19,24.48,13.6,22.86Z"/><path class="cls-1" d="M93,69.73C89.56,77.13,85,83.92,81,91c-.8,1.41-2.22,1.59-3.68,1.59H29.35c-1.64,0-3-.39-3.88-1.93C21.65,83.6,17,77,13.7,69.68c.61-1.39,1.89-1.65,3.19-1.7,4.21-.16,8.44-.52,12.61.47,2.45-.31,3.63,1.31,4.83,3,3.75,5.42,7.47,5.39,11.29-.11,1-1.41,2-2.66,3.7-3.1a31.57,31.57,0,0,1,8.73-.38c2,.41,2.2,2.29,3.06,3.61,3.35,5.19,7.56,5.34,11,.31,1.23-1.8,2.33-3.7,5-3.38,4.24-1,8.52-.65,12.78-.45C91.18,68.06,92.41,68.35,93,69.73Z"/><path class="cls-1" d="M93,69.73a120.76,120.76,0,0,0-16.8,0c-2.12-1.52-.94-3.12-.05-4.64,2.83-4.83,5.48-9.75,8.43-14.5,1.83-2.93,1.92-5.58.07-8.51-2.86-4.51-5.38-9.21-8-13.86-.89-1.57-2.31-3.26-.54-5.19l17-.18c5,.06,10,.2,15,.14,2.1,0,3,.63,3,2.81q-.08,20.41,0,40.83c0,2.37-1.22,2.61-3.12,2.68C102.91,69.44,97.92,68.68,93,69.73Z"/><path class="cls-1" d="M433.43,40.68c4.15-4.43,8.81-8.5,12.31-13.4,3.92-5.48,9.13-4.22,14.19-4,2.46.11,1,1.81.29,2.65-3,3.48-6.12,6.87-9.2,10.29-.6.66-1.23,1.3-1.83,2-5.94,6.49-5,5-.63,11.24q5.93,8.47,12,16.85c1.49,2,1.18,2.61-1.39,2.9-6,.65-10.71-.66-13.71-6.42A47.16,47.16,0,0,0,440,55.36c-1-1.23-1.7-3.81-3.35-3.11a6.55,6.55,0,0,0-4.13,5.54,75.1,75.1,0,0,0,0,7.65c.11,2.58-.86,3.87-3.54,3.66-.51,0-1,0-1.54,0-5.59,0-5.61,0-5.61-5.44q0-18,0-36c0-4.51.22-4.47,5.72-4.67,3.45-.12,5.29.63,5,4.59-.3,4.17-.07,8.38-.07,12.57Z"/><path class="cls-1" d="M127.65,40.78c4.33-4.68,8.82-9.24,12.93-14.11,2.27-2.69,4.67-4,8.22-3.6a54.38,54.38,0,0,0,6.75.05c.64,1.59-.48,2.13-1.09,2.82-4.08,4.58-8,9.29-12.39,13.6-2.86,2.83-3.34,4.89-.62,8.27,4.8,6,9,12.42,13.49,18.61,1.43,2,1.43,2.93-1.31,2.81a2.44,2.44,0,0,0-.38,0c-6,1-10.54-.78-13.58-6.46-1.85-3.45-4.67-6.37-7-9.6-1-1.47-1.65-1.54-3.17-.26-3.27,2.74-2.75,6.27-2.88,9.8-.07,2.07,1.18,4.94-.85,6-2.41,1.3-5.52.46-8.33.36-1.43,0-1.39-1.22-1.4-2.26,0-13.78,0-27.56,0-41.34,0-1.88.82-2.52,2.55-2.4.13,0,.26,0,.39,0,9.49.09,7.5-1,7.7,7.24.08,3.4,0,6.79,0,10.19Z"/><path class="cls-1" d="M178.19,69.23c-4.62,0-9.23-.07-13.84,0-2.25,0-3.21-.62-3.19-3q.12-20.08,0-40.17c0-2.41,1-3,3.23-3q13.65.14,27.29,0c2.4,0,3.26.83,3,3.11a13.61,13.61,0,0,0,0,3.06c.27,2.32-.62,3.13-3,3.06-5.38-.15-10.78.15-16.15-.11-3.31-.17-4.4,1.06-4,4.15a10.84,10.84,0,0,1,0,2.67c-.24,2.25.89,2.87,2.94,2.84,4.74-.07,9.5.22,14.22-.1,3.76-.25,3.79,1.76,3.68,4.44-.11,2.41.49,4.83-3.52,4.53-4.72-.35-9.48,0-14.22-.12-2.31-.06-3.38.68-3.09,3a7.18,7.18,0,0,1,0,1.91c-.57,3.62.8,5,4.58,4.73,5.11-.31,10.26.12,15.38-.14,3.31-.18,4.39,1.05,3.94,4.14a9.23,9.23,0,0,0,0,2.29c.2,2-.7,2.7-2.66,2.67C187.93,69.17,183.06,69.23,178.19,69.23Z"/><path class="cls-1" d="M263.14,69.77c-11.58-.06-20.4-6.3-23.38-16.28-3.18-10.65.56-21.5,9.41-27.35s21.58-5.34,29.5,1.29c1.2,1,3.31,2,2.59,3.84A12,12,0,0,1,276,37.13c-1.26.72-2.15-1-3.11-1.77A14.84,14.84,0,0,0,255,34.75c-5,3.61-6.86,10.06-4.67,16.46,3.1,9,14.14,11.75,22.25,5.51,3.21-2.46,3.9-2.17,7.69,2.28,2.56,3-.27,4-1.86,5.36A22,22,0,0,1,263.14,69.77Z"/><path class="cls-1" d="M30.51,69.69a132.8,132.8,0,0,0-16.81,0c-5-7-8.78-14.82-13.26-22.17a2.12,2.12,0,0,1-.08-2.46C4.84,37.69,8.67,30,13.6,22.86l17,.13c1.66,1.33.74,2.73.06,4.08-2.46,4.89-5.37,9.53-8.2,14.2-2.07,3.41-2.31,6.44,0,9.9,3,4.54,5.58,9.4,8.24,14.17C31.54,66.82,32.39,68.33,30.51,69.69Z"/><path class="cls-1" d="M214,58.19c1.06-4.73-1-9.6-4-14.39-3.61-5.71-6.74-11.71-10.17-17.52-1.25-2.11-1.7-3,1.6-3.27,5.72-.49,9.83.75,11.94,6.64,1,2.83,3,5.29,4.5,8,1.06,1.94,1.86,2.13,3,0,1.89-3.47,4.21-6.72,5.88-10.28,1.57-3.35,3.68-4.54,7.42-4.34,6.58.34,6.59.09,3.38,5.67a113.2,113.2,0,0,1-5.8,9.89c-5.74,8-8.53,16.64-7.1,26.45.49,3.37-.77,4.41-4.18,4.27-7.62-.3-6.34.59-6.47-6.64C214,61.52,214,60.38,214,58.19Z"/><path class="cls-1" d="M290,45.75c0-6.36.13-12.74-.05-19.1-.11-4.17,2.68-3.52,5.19-3.55s5.19-.39,5.12,3.66c-.15,9,0,18.09,0,27.13,0,6,0,6,5.82,6,3.59,0,7.18.11,10.76,0s3.28,2.31,3.28,4.64.29,4.68-3.32,4.63c-7.81-.11-15.62-.07-23.42,0-2.5,0-3.38-1.1-3.36-3.48C290.05,59,290,52.38,290,45.75Z"/><path class="cls-1" d="M50.07,69.82C45.83,63,41.68,56.2,37.31,49.5A4.67,4.67,0,0,1,37.16,44C41,37.09,44.6,30.11,48.29,23.16l8.49-.36c4.1,6.59,8.1,13.24,12.35,19.73,1.43,2.19,1.61,3.85.28,6.21-3.68,6.53-7,13.24-10.53,19.88C56.08,70,53,69.05,50.07,69.82Z"/><path class="cls-1" d="M346.39,22.16c-14-.09-24.61,9.87-24.77,23.3-.15,13.84,10.23,24.26,24.19,24.3s24.35-9.9,24.44-23.53C370.34,32.39,360.29,22.25,346.39,22.16Zm-.21,38.43c-7.87,0-13.83-6.36-13.77-14.78,0-8.19,6-14.51,13.67-14.49,7.49,0,13.7,6.61,13.75,14.58S353.64,60.55,346.18,60.59Z"/><path class="cls-1" d="M416.34,63.72c-5.43-12.52-11-25-16.25-37.58-1.23-2.92-3.27-3.19-5.83-3.05s-5.63-.75-7,3c-1.72,4.66-3.9,9.15-5.88,13.71-3.76,8.66-7.45,17.35-11.3,26-1.15,2.56-.6,3.33,2.19,3.4,7.29.18,7.41.32,10.16-6.27,1.15-2.77,2.74-4,5.78-3.78a48.85,48.85,0,0,0,9.21,0c4.47-.54,7.05,1.11,8.14,5.41.9,3.61,3.06,5.52,6.41,4.61C418.67,69.12,418.68,69.11,416.34,63.72ZM396.85,50.27a48.62,48.62,0,0,1-6.5,0c-1.55-.1-1.8-1.18-1.25-2.49q2-4.7,4-9.39l1.11,0c1.34,3.13,2.7,6.25,4,9.39C398.77,49.12,398.35,50.17,396.85,50.27Z"/></g></g></svg>
