<svg xmlns="http://www.w3.org/2000/svg" viewBox="0 0 973.67 178.28"><defs><style>.cls-1{fill:#d3d3d3;}</style></defs><g id="Layer_2" data-name="Layer 2"><g id="Layer_1-2" data-name="Layer 1"><path class="cls-1" d="M969.5,148.72c0-5.32,0-10.63,0-15.95,0-1.25-.35-2.72,1.78-2.8s2.39,1,2.38,2.76q-.06,16.46,0,32.9c0,1.45,0,2.57-2,2.54s-2.14-1-2.12-2.5C969.53,160,969.5,154.37,969.5,148.72Z"/><path class="cls-1" d="M69.53,146l48.53-84.25C133.94,89.29,149.44,116.15,165,143c1.42,2.45.73,3.09-1.92,3.09C132.27,146,101.47,146,69.53,146Z"/><path class="cls-1" d="M0,134.1,48.58,49.92C52.89,57.27,57,64.19,61,71.17,67.84,83,74.51,94.81,81.41,106.53c1.35,2.28,1.57,4,.15,6.28-3.71,6.08-7.16,12.32-10.67,18.53C70,133,69,134.16,66.76,134.15,44.82,134.06,22.87,134.1,0,134.1Z"/><path class="cls-1" d="M867.23,34.73c14.14-18.29,39.37-15,49.28,1.22,9.53-12.5,21.85-16.51,36.8-11.75a24.77,24.77,0,0,1,17.41,23.64c.15,15.32-.06,30.64.15,46,0,3.55-1,4.86-4.43,4.31a12.37,12.37,0,0,0-3.49,0c-3.32.46-4.2-.91-4.16-4.17.18-13.81.1-27.63.07-41.45,0-12.21-4.44-18.09-14.61-19.57A21.7,21.7,0,0,0,920.76,48c-1.21,4.06-1.21,8.19-1.22,12.33,0,11.16-.1,22.31.05,33.47,0,3-.46,4.4-4,4.35-8-.13-8,.08-8-7.74,0-12.49,0-25,0-37.46,0-13.1-5.46-19.71-16.69-20.4-10.62-.65-21,8.43-22.21,19.47-1.54,13.78-.66,27.61-.58,41.41,0,4.93-2.26,4.85-5.67,4.63-3.09-.2-6.35,1.22-6.24-4.56.39-21.64.21-43.29.1-64.94,0-3.12.28-5.17,4.15-4.58,2.88.44,7.18-1.6,6.38,4.35C866.62,30.1,867,31.93,867.23,34.73Z"/><path class="cls-1" d="M336.77,49.19c0-15,.09-29.94-.07-44.9,0-3.12.59-4.3,4-4.22,10.14.26,20.3,0,30.45.14,27.18.26,44.84,17.1,46.37,44.24.58,10.23-.36,20.32-5,29.6C404.33,90.56,389.71,97,372.32,97.91c-10.62.58-21.3,0-31.94.25-3.4.09-3.68-1.29-3.66-4.06C336.83,79.14,336.77,64.16,336.77,49.19Zm12,0h0c0,11.48.06,23,0,34.44,0,2.49.49,3.54,3.26,3.45,6.31-.21,12.65.11,19-.13,14.69-.55,25.94-6.7,31.48-20.88a47.75,47.75,0,0,0,2-26.53c-3.16-16.52-11.8-24.94-28.2-27.76-8.38-1.44-16.94-.29-25.41-.53-2.88-.08-2,2.07-2,3.51C348.73,26.19,348.75,37.67,348.75,49.14Z"/><path class="cls-1" d="M523.69,97.62a3.9,3.9,0,0,1-.75.31c-11.47.78-11.45.77-15.34-9.9-1.08-3-2.28-5.86-3.43-8.79-3.3-8.4-3.3-8.39-12.5-8.39-10.32,0-20.64.11-31-.08-3.1,0-4.74.76-5.78,3.88-2.13,6.42-5.1,12.58-7.06,19-1.17,3.9-3.18,4.85-6.8,4.41a65.73,65.73,0,0,0-7.35,0c7.57-19.53,14.95-38.62,22.37-57.71,4.67-12,9.48-24,14-36,1.13-3,2.46-4.36,6-4.26,9.87.27,9.86.07,13.44,9.31Q505.79,51.22,522,93.07C522.62,94.58,523.14,96.12,523.69,97.62Zm-27-37.7c-6.08-16.23-12-32-18.22-48.63-4.74,16-10.88,30.31-16.26,44.89-.64,1.73-2.29,3.81,1.65,3.78C474.62,59.86,485.41,59.92,496.67,59.92Z"/><path class="cls-1" d="M545.78,49c0-15,0-30,0-45,0-2.47.07-4,3.32-3.91,11.83.22,23.68-.27,35.48.28S606,5.83,610.82,17,614.88,39.19,607,48.9c-7,8.59-16.84,10.67-27.26,10.9-6.17.14-12.34.19-18.5,0-2.93-.11-3.59.93-3.55,3.67.15,10.16-.05,20.32.12,30.48,0,3.09-.52,4.33-4,4.25-8-.18-8.05,0-8.05-8.24Q545.79,69.47,545.78,49Zm12-19.69c0,5.32,0,10.63,0,15.95,0,1.74-.14,3.24,2.44,3.18,8.48-.19,17,.24,25.42-.39,9.37-.69,15-7.16,15.35-16.42.46-11.46-3.81-17.43-14-19.53-8.89-1.83-17.89-.38-26.82-.9-2.63-.15-2.45,1.43-2.43,3.16C557.78,19.31,557.76,24.3,557.76,29.28Z"/><path class="cls-1" d="M205.3,134.12c-12.23,0-24.3,0-36.37,0-1.81,0-2.54-1-3.33-2.4q-13.14-22.86-26.38-45.65a4.35,4.35,0,0,1-.05-5c6-10.14,11.8-20.35,17.72-30.59C160.13,54.1,203.71,129.25,205.3,134.12Z"/><path class="cls-1" d="M830.91,60.44c.25,12-2.28,22.45-11.15,30.33C808.22,101,794.61,101.45,780.9,97c-13.24-4.32-19.47-15-21.11-28.25-1.46-11.73-.75-23.35,6.83-33.3,9.52-12.49,22.68-14.79,37.11-12.26,13.4,2.35,21.69,10.63,25.57,23.57A44.68,44.68,0,0,1,830.91,60.44Zm-11.66-.65c-.21-2.44-.31-4.27-.52-6.08-1.15-10.25-8.08-18.35-17.51-20.53-10.67-2.47-20.38,1-25.63,9.65-5.11,8.38-5.51,17.62-3.68,26.93,2.3,11.69,10.59,19,21.35,19.36,13.17.46,20.84-5.11,24.65-17.65C819.15,67.42,819,63.29,819.25,59.79Z"/><path class="cls-1" d="M673.48,60.71c0-12.65,3.17-24,13.89-32,16.09-12,40.82-7.27,50.7,9.35,1.79,3,1.76,4.71-1.73,5.81a11.66,11.66,0,0,0-2.71,1.24c-3.1,2-4.83,2-6.8-2-5.94-12.12-24.22-14.19-34.09-4.23-10.42,10.52-9.86,34.41.73,44.74,8.59,8.4,31.46,7.89,35.5-7,.62-2.3,1.58-2.56,3.91-1.74,9,3.2,9.13,3.22,3.6,11.16-8.62,12.38-21.06,14.92-34.81,12.81-14.24-2.19-23-11-26.78-24.74A46.79,46.79,0,0,1,673.48,60.71Z"/><path class="cls-1" d="M245.77,48.64c0-14.65.13-29.29-.09-43.93-.06-3.74.93-5.22,4.66-4.56a7.71,7.71,0,0,0,2.49,0c3.81-.59,5,.72,5,4.78-.22,22.8-.16,45.6-.06,68.39,0,4.42-2,10.3.93,12.86,2.5,2.18,8.22.77,12.51.78,12.82.05,25.64.11,38.45,0,3.13,0,4.33.58,4.24,4-.19,7.15,0,7.15-7.07,7.15-19,0-38-.07-56.93.07-3.19,0-4.24-.73-4.2-4.09C245.87,78.92,245.77,63.78,245.77,48.64Z"/><path class="cls-1" d="M82.73,32.43c5,8.54,9.59,16.38,14.11,24.26,2.8,4.89,7.59,9.86,7.59,14.79s-4.82,9.88-7.61,14.77c-3.18,5.57-6.46,11.08-10.07,17.25-7.34-12.81-14.26-25-21.37-37.15-1.35-2.29-.21-3.87.73-5.5C71.42,51.64,76.82,42.5,82.73,32.43Z"/><path class="cls-1" d="M489.82,150.11c0-5,.05-10,0-14.94,0-2,.49-3.06,2.77-3,4.47.11,9-.15,13.35,1.06,8.74,2.41,14.1,10.87,12.84,20.35-1.08,8.2-8.22,14.34-16.93,14.55-12,.3-12,.3-12-11.54Zm5.63,0c0,3.48,0,7,0,10.43,0,1.1-.19,2.14,1.49,2.59,5.66,1.53,13.6-2.25,15.71-7.69A13,13,0,0,0,506,138.76c-7.51-3.21-10.54-1.38-10.54,6.37C495.45,146.78,495.44,148.44,495.45,150.1Z"/><path class="cls-1" d="M816.25,150.13c0-5,0-10,0-15,0-1.5-.08-3.12,2.23-3,3.62.24,7.26-.37,10.89.62,7,1.92,9.9,5.6,9.34,12.46-.48,6-4.76,10.21-11.41,10-5.09-.19-6,1.65-5.86,6.19.07,2.14,2.75,6.69-2.64,6.6-5-.08-2.13-4.25-2.41-6.45C815.9,157.82,816.26,154,816.25,150.13Zm5.24-6.56c.92,2.64-2.1,7.22,4.19,6.69,4.9-.42,7.73-2.4,7.69-6.41s-3.17-6.29-8.36-6.47C819.19,137.17,822.71,141.56,821.49,143.57Z"/><path class="cls-1" d="M675.83,167.7l15.68-36.83c5.38,12.6,10.47,24.54,15.66,36.71-3.6,1.29-5.57.62-6.75-3.1-.69-2.21-.84-5.65-3.43-6.17a30,30,0,0,0-10.89,0c-2.39.42-2.6,3.54-3.31,5.62C681.68,167.2,680.09,169.22,675.83,167.7Zm15.34-24.83c-1,4-4.12,7-3.07,9.91.6,1.68,4.71.83,7.52.33A44.07,44.07,0,0,0,691.17,142.87Z"/><path class="cls-1" d="M299,166.59c-3.1,1.08-5.61,2.66-8.86,2-4.17-.89-7.17-3.23-8.19-7.09-1.13-4.26-.62-8.62,3.27-11.76,3.39-2.74,7.08-3.41,11.11-1.57.74.34,1.71,1.32,2.1,1.11,8.34-4.45,4.72,3,5,5.44.55,4.24.17,8.62.1,12.93s-1.75,7.86-5.88,9.55a12.66,12.66,0,0,1-12.77-1.34c-.82-.6-2.71-1.16-1.33-3,1.2-1.61,2.22-1.1,3.72-.29C293.94,176.1,298.83,173.77,299,166.59Zm-6.33-15.37a6.7,6.7,0,1,0-.35,13.39,6.7,6.7,0,1,0,.35-13.39Z"/><path class="cls-1" d="M431.5,166.25c-6.46,3.49-12.16,2.88-15.47-1.47a11,11,0,0,1,1.34-14.86,9.48,9.48,0,0,1,10.11-2.27c2,.69,3.58,2.39,5.89.31.86-.79,2.47-.19,2.44,1.84-.1,6.65.17,13.31-.16,19.94-.22,4.26-3.15,7-7.14,8a13,13,0,0,1-12.15-2.62,1.61,1.61,0,0,1-.22-2.56c.67-.81,1.43-1.36,2.56-.63a10.79,10.79,0,0,0,4.44,2.1C428.66,174.79,431.38,172.43,431.5,166.25Zm.17-8.15a6.7,6.7,0,0,0-6.37-6.88,7.18,7.18,0,0,0-7.4,6.5,6.87,6.87,0,0,0,6.54,6.76C428.55,164.68,431.55,162,431.67,158.1Z"/><path class="cls-1" d="M637.41,151.57c2.4-1.7,4.09-4,7.58-4,4.54-.07,6.78,1.78,8.14,5.84a86.83,86.83,0,0,0,3.85,8.51c4.31-4.16,2.78-12.66,11.9-14.7-5.12,10.74-9.67,20.35-14.31,29.91-.86,1.78-2.59.83-4,1,0-.5-.17-.86,0-1,8.55-11.26-1.26-19.42-4.85-28.94-.46,3-1.95,4.36-4.65,5.16-4.31,1.27-3.74,5.14-4.13,8.64-.23,2.05,2.16,5.88-1.69,6-4.42.16-1.93-4-2.21-6.1a57.1,57.1,0,0,1-.05-10c.06-1.57-1.1-4,2-4.06S636,150.47,637.41,151.57Z"/><path class="cls-1" d="M642.57,99.34c-5.9.06-9.84-3.73-9.81-9.44s3.86-9.72,9.61-9.72S651.81,84,651.79,90C651.78,95.78,648.32,99.29,642.57,99.34Z"/><path class="cls-1" d="M445.92,151.78c3.05-3.22,5.55-5.05,9-4.68s6.06,2.13,6.28,5.84c.27,4.3,0,8.63.14,12.95,0,1.77-.78,2.29-2.41,2.27s-1.9-.95-1.89-2.26c0-2.82-.08-5.65,0-8.47s-.18-5.67-3.63-6.05c-3.24-.35-5.7,1.16-6.89,4.48-1.05,2.93-.4,5.92-.63,8.88-.12,1.49.68,3.48-2.17,3.42-2.48,0-2-1.72-2-3.11q0-15.95,0-31.89c0-1.34-.61-3.07,1.89-3.19,2.81-.13,2.23,1.78,2.24,3.33C445.93,139.06,445.92,144.83,445.92,151.78Z"/><path class="cls-1" d="M369.2,169.38l-6.38-14c-2.27,5.06-4.13,9.18-6.31,14-2.82-6.65-5.34-12.59-7.84-18.53-.39-.93-1.89-2.09-.1-2.82,1.32-.54,2.86-.55,3.6,1.44,1.29,3.53,2.81,7,4.46,11,1.55-3.87,4.87-6.77,3.51-11.3-.28-.92.08-1.22.84-1.3a2.56,2.56,0,0,1,3,1.81c1.4,3.49,3.08,6.87,4.68,10.36,3.92-3.57,2.43-11.19,10.27-12.58Z"/><path class="cls-1" d="M313.7,151.69c2.51-2.72,4.53-4.31,7.32-4.56,4.78-.44,7.68,1.92,7.84,6.74.14,4,0,8,.06,12,0,1.69-.55,2.37-2.3,2.32s-1.87-.92-1.86-2.24c0-2.83-.09-5.66,0-8.49.13-3.16-.51-6-4.19-6.09s-6.37,1.94-6.8,5.82a66.76,66.76,0,0,0-.08,8.49c0,1.54-.21,2.52-2.12,2.51s-2-1.23-2-2.63q0-16.49,0-33c0-1.43.06-2.59,2-2.59s2.09,1.11,2.08,2.58C313.69,138.56,313.7,144.56,313.7,151.69Z"/><path class="cls-1" d="M245.78,150.06c0-5,.06-10,0-14.93,0-2,.44-3,2.74-3s2.77,1,2.75,3c-.06,8.13.1,16.27-.06,24.4-.06,2.84.82,3.77,3.65,3.6,3.81-.22,7.64,0,11.45-.07,1.7,0,2.75.2,2.79,2.35s-.89,2.78-2.94,2.74c-5.81-.09-11.62-.15-17.43,0-2.55.07-3-1-2.95-3.2C245.88,160,245.78,155,245.78,150.06Z"/><path class="cls-1" d="M897.45,157.52A10.92,10.92,0,0,1,909,147.12a10.52,10.52,0,0,1,10.06,11.27,10.82,10.82,0,1,1-21.62-.87Zm17.4.54a6.62,6.62,0,1,0-13.23-.08,6.62,6.62,0,0,0,13.23.08Z"/><path class="cls-1" d="M879,158.05a10.81,10.81,0,1,1-21.61-.18,10.87,10.87,0,0,1,11.24-10.76C874.72,147.26,879,151.75,879,158.05Zm-10.64-6.86a6.75,6.75,0,0,0-6.78,6.46,6.39,6.39,0,0,0,6.28,6.83,6.47,6.47,0,0,0,7-6.08A6.7,6.7,0,0,0,868.33,151.19Z"/><path class="cls-1" d="M606.71,158.06a10.62,10.62,0,0,1,10.9-11,11.07,11.07,0,0,1,11,10.71c.06,5.8-5.34,11.08-11.28,11S606.78,164.27,606.71,158.06ZM624,158a6.63,6.63,0,0,0-6.52-6.81,6.75,6.75,0,0,0-6.74,6.6,6.54,6.54,0,0,0,6.52,6.74A6.43,6.43,0,0,0,624,158Z"/><path class="cls-1" d="M964.77,158A10.82,10.82,0,0,1,954,168.87a11,11,0,0,1-11.17-11,11.15,11.15,0,0,1,11.38-10.8A10.7,10.7,0,0,1,964.77,158Zm-10.88-6.83a7.11,7.11,0,0,0-6.86,6.55,6.88,6.88,0,0,0,6.56,6.7,6.59,6.59,0,0,0,7.06-6.64A7.05,7.05,0,0,0,953.89,151.21Z"/><path class="cls-1" d="M380.77,157.79a10.88,10.88,0,0,1,7.89-10.26c4.75-1.34,8.39.39,11.28,4.19,1.43,1.88,1.43,3.1-1.06,4-3.58,1.29-7.07,2.81-10.61,4.2-.88.35-2.32.31-2.19,1.52.08.77,1.09,1.62,1.88,2.1a7.54,7.54,0,0,0,7.17.17c2-.93,3,.28,3.6,1.48,1,1.91-1.11,2.08-2.1,2.51C388.88,171,380.67,165.86,380.77,157.79Zm4.16.64c3.92-2.14,7.85-2.56,10.89-5.35C389.87,149.91,386.68,151.35,384.93,158.43Z"/><path class="cls-1" d="M558.83,164.54c.54-.1,1-.16,1.51-.29,2.18-.6,5.28-1.91,5.66,1.22.32,2.66-3.27,2.64-5.37,3.07-5.56,1.12-10.68-2.35-12.45-8.18-1.37-4.49,1.49-10.19,6.15-12.27a9.94,9.94,0,0,1,12.72,3.52c1.41,2.1,1.47,3.36-1.25,4.25a77.73,77.73,0,0,0-9.22,3.63c-1.15.54-3.58.13-3.17,2.26.26,1.39,1.93,2.18,3.5,2.44C557.57,164.3,558.22,164.43,558.83,164.54Zm4.68-11.08c-2.67-2.08-4.69-2.86-7.32-1.56a6,6,0,0,0-3.78,6.38Z"/><path class="cls-1" d="M750.54,158.16a10.4,10.4,0,0,1,7.94-10.67c4.73-1.21,8.37.47,11.19,4.44,1.52,2.14,1,3-1.3,3.85-3.59,1.27-7.08,2.8-10.62,4.18-.75.29-1.78.23-2,1.22-.21,1.19.87,1.72,1.62,2.23a7,7,0,0,0,7.15.35c2-.92,3,.15,3.62,1.39,1,2.16-1.35,2.36-2.43,2.77C758.18,170.8,750.65,165.9,750.54,158.16Zm4.35.07,10.7-4.65C760,149.55,755.83,151.33,754.89,158.23Z"/><path class="cls-1" d="M468.84,159.48c-.84-2.79,2.3-7.37-3.35-8.91-.53-.15-.5-2,.18-2.14,5.07-.82,2.66-4.72,3.13-7.36.23-1.32,0-2.63,2-2.74,2.36-.12,2.21,1.39,2.23,2.93.05,3.28-1.28,7.5,4.7,6.74,1.14-.14,1,1,1,1.84.06,1.4-.86,1.66-1.94,1.52-3.78-.51-3.92,1.84-3.83,4.6.11,3.32,0,6.65,0,10,0,1.32-.25,2.2-1.87,2.23s-2.4-.59-2.32-2.31C468.91,163.87,468.84,161.87,468.84,159.48Z"/><path class="cls-1" d="M582.49,164.45l2.86-.6c1.88-.4,2.28,1.19,2.67,2.29.48,1.34-1.1,1.37-1.8,1.69a11,11,0,0,1-13-3.24,10.39,10.39,0,0,1,0-13.29,10.83,10.83,0,0,1,13-3.29c1,.4,2.52.55,2,2-.4,1.12-1.22,2.49-2.95,2.06-.64-.16-1.24-.51-1.88-.65a6.67,6.67,0,0,0-7,2.63c-1.74,2.21-1.66,4.62-.49,7C577.15,163.78,579.56,164.59,582.49,164.45Z"/><path class="cls-1" d="M720.38,168.87c-5.11-.46-8.71-2.6-10.52-7a10,10,0,0,1,2.42-11.5c3.3-3.25,7.39-4.32,11.92-2.37,1,.42,2.62.52,2.13,2s-1.5,2.69-3.44,1.91a7.76,7.76,0,0,0-1.9-.6,6.65,6.65,0,0,0-7.7,6.55c-.06,4,2.91,6.78,7.07,6.62a5.86,5.86,0,0,0,2-.35c1.93-.78,3.5-.18,3.94,1.69.5,2.16-1.72,1.87-2.92,2.33A22.9,22.9,0,0,1,720.38,168.87Z"/><path class="cls-1" d="M740.91,168.88c-4.86-.58-8.62-2.42-10.48-7.26-1.71-4.46-.62-8.19,2.59-11.33A10.35,10.35,0,0,1,745,148c1,.4,2.56.45,2,2-.43,1.22-1.36,2.34-3,1.92a18.73,18.73,0,0,0-2.36-.71,7.06,7.06,0,0,0-7.82,6.56,6.72,6.72,0,0,0,7.15,6.67,8.21,8.21,0,0,0,2.45-.44c1.83-.65,3,.15,3.41,1.79.41,1.87-1.4,1.86-2.55,2.23S741.94,168.64,740.91,168.88Z"/><path class="cls-1" d="M786.86,161.85c0,3.52-1.39,5.38-4.05,6.27a10.06,10.06,0,0,1-8.59-1.05,1.06,1.06,0,0,1-.35-1.68c.69-.83,1.06-2.19,2.63-1.75a12.83,12.83,0,0,0,2.89.65c1.31.06,2.84.1,3.21-1.59.32-1.43-.92-2-1.94-2.52-1.74-1-3.74-1.62-5.15-2.92-2.81-2.61-2.52-5.64,0-8.33,2.22-2.34,7.88-2.32,9.65-.18a1.28,1.28,0,0,1,.16,1.74c-.66,1-1.31,2-2.75,1.3-1.69-.86-3.7-1-4.3.81-.74,2.2,1.59,2.77,3.17,3.6C784.07,157.57,787.09,158.68,786.86,161.85Z"/><path class="cls-1" d="M803.73,162.23a5.85,5.85,0,0,1-3.83,5.83c-3,1.24-5.86.6-8.59-.85a1.41,1.41,0,0,1-.43-2.15c.51-.82,1.08-1.71,2.35-1.38a22.23,22.23,0,0,0,2.92.6c1.37.16,2.88.06,3.21-1.56.25-1.24-.76-2.06-1.92-2.58a24.82,24.82,0,0,1-4-2,5.93,5.93,0,0,1-1.65-8.66c2.08-2.65,7.58-3.2,10-1,.67.62,1.08,1.2.36,2.06s-1.17,1.78-2.38,1.27c-1.83-.78-4.12-1.27-4.67.9-.62,2.45,2.19,2.81,3.88,3.72C801.31,157.72,803.76,159,803.73,162.23Z"/><path class="cls-1" d="M922.61,157.76a10.56,10.56,0,0,1,14.62-9.85c1.14.45,2.92.56,2.21,2.38-.56,1.43-1.68,2-3.61,1.57-5.05-1.11-8.22.58-9.08,4.31-1.17,5.15,2.46,8.81,8.19,8,1.91-.26,4.1-.78,4.45,1.59.39,2.64-2.35,2.21-3.92,2.56C928.52,169.93,922.56,165,922.61,157.76Z"/><path class="cls-1" d="M885.57,159.51c-1.36-2.46,2.95-7.54-3.51-8.61-.61-.1-.84-2.75.37-2.8,5.16-.21,2.5-4,3.12-6.25.39-1.39-.78-3.56,2.09-3.55s1.86,2.11,2.05,3.57c.34,2.71-1.6,6.86,4,6.11,1-.12,1.34.76,1.35,1.7a1.49,1.49,0,0,1-1.91,1.65c-3.56-.6-3.62,1.54-3.52,4.12.13,3.48,0,7,.05,10.46,0,1.74-.64,2.3-2.33,2.26s-1.84-1-1.82-2.25C885.59,163.93,885.57,161.94,885.57,159.51Z"/><path class="cls-1" d="M596.72,138.33c2.45-.2,2,1.58,2.11,3,.22,3.07-1.59,7.48,4.5,6.68,1-.13,1.29.79,1.22,1.73a1.59,1.59,0,0,1-2,1.57c-3.92-.61-3.79,1.9-3.71,4.55.09,3.15,0,6.3,0,9.45,0,1.57.07,3-2.25,2.86-2.09-.07-1.86-1.39-1.86-2.69,0-3.15.06-6.3,0-9.45-.05-2.09,1-4.77-2.87-4.93-1.37-.06-1.25-2.53-.5-2.64,5.42-.76,2.88-4.85,3.36-7.6C594.92,139.53,594.73,138.11,596.72,138.33Z"/><path class="cls-1" d="M336.65,159.39c-1-2.68,2.62-7.52-3.58-8.64-.61-.1-.42-2.54.2-2.57,5.28-.18,2.83-4.14,3.38-6.6.28-1.28-.69-3.13,1.85-3.27,2.78-.15,2.22,1.76,2.29,3.33.16,3-1.44,7.14,4.36,6.44.86-.11,1,1.14.85,2a1.38,1.38,0,0,1-1.77,1.25c-3.67-.58-3.52,1.77-3.46,4.25.09,3.33,0,6.66,0,10,0,1.4,0,2.57-2,2.6s-2.24-.86-2.19-2.43C336.69,163.75,336.65,161.75,336.65,159.39Z"/><path class="cls-1" d="M847.9,151.4c2.22-1.63,4.1-3.85,7.27-4.09.34,3.14-.46,5-3.93,6-4.06,1.12-3.41,4.92-3.82,8.21-.26,2.19,2.24,6.3-1.82,6.35-4.55.06-1.73-4.25-2.12-6.52a35.33,35.33,0,0,1,0-8.9c.13-1.54-1.41-3.87,1.36-4.56C847.81,147.13,846.35,150.61,847.9,151.4Z"/><path class="cls-1" d="M538.14,152.16c2.24-2.27,4.11-4.43,7.54-4.77.09,2.11.93,4.48-2.23,5.28-4.65,1.19-5.77,4.44-5.5,8.69.11,1.65,0,3.32,0,5s-.92,1.87-2.26,1.81c-1.1-.05-1.93-.26-1.93-1.61q0-8.46,0-16.93c0-1.25.53-1.69,1.75-1.81C538.75,147.49,537.29,150.48,538.14,152.16Z"/><path class="cls-1" d="M409.2,158.3c0,2.47-.05,4.95,0,7.43,0,1.55-.29,2.5-2.15,2.43-1.46-.06-2.09-.6-2.08-2,0-5.45.06-10.9,0-16.35,0-1.63.89-1.93,2.17-1.95s2.11.55,2.07,2.06c-.07,2.81,0,5.62,0,8.43Z"/><path class="cls-1" d="M527.8,158.56c0,2.48,0,4.95,0,7.43,0,1.31-.25,2.12-1.87,2.16-1.78,0-2.25-.67-2.23-2.31.06-5.28,0-10.56,0-15.84,0-1.31.24-2.13,1.86-2.17,1.78-.05,2.28.69,2.24,2.32C527.75,153,527.8,155.76,527.8,158.56Z"/><path class="cls-1" d="M276.84,158.09c0,2.66,0,5.33,0,8,0,1.42-.43,2.1-2,2.1s-2.11-.46-2.1-2c0-5.33.05-10.66,0-16,0-1.61.42-2.43,2.24-2.37,1.66,0,1.84,1,1.84,2.26C276.84,152.76,276.85,155.43,276.84,158.09Z"/><path class="cls-1" d="M528.71,139.93a2.7,2.7,0,0,1-2.81,2.27,2.21,2.21,0,0,1-2.5-2.44,2.45,2.45,0,0,1,2.92-2.62A2.75,2.75,0,0,1,528.71,139.93Z"/><path class="cls-1" d="M277.47,139.92a2.41,2.41,0,0,1-2.78,2.24c-1.58-.1-2.68-1.08-2.61-2.45a2.6,2.6,0,0,1,3.07-2.54A2.63,2.63,0,0,1,277.47,139.92Z"/><path class="cls-1" d="M407.05,142.17a2.53,2.53,0,0,1,.09-5,2.37,2.37,0,0,1,2.58,2.82C409.63,141.56,408.54,142.15,407.05,142.17Z"/></g></g></svg>