<svg id="Capa_1" enable-background="new 0 0 512 512" height="512" viewBox="0 0 512 512" width="512" xmlns="http://www.w3.org/2000/svg"><g><path d="m495.484 90.839h-478.968l-8.699 10.161v294.151c0 9.122 7.395 16.516 16.516 16.516h477.667l10-7.021v-297.29c0-9.123-7.395-16.517-16.516-16.517z" fill="#95cc81"/><path d="m16.516 355.097v-264.258c-9.121 0-16.516 7.394-16.516 16.516v297.29c0 9.122 7.395 16.516 16.516 16.516h478.968c9.121 0 16.516-7.395 16.516-16.516h-445.935c-27.365 0-49.549-22.183-49.549-49.548z" fill="#7dbd80"/><path d="m440.141 252.473-175.553-106.859c-5.275-3.211-11.9-3.211-17.175 0l-175.554 106.859c-2.643 1.609-2.643 5.446 0 7.054l175.553 106.859c5.275 3.211 11.9 3.211 17.175 0l175.553-106.859c2.644-1.609 2.644-5.445.001-7.054z" fill="#ffe07d"/><path d="m256 189.936c-24.565 0-45.998 13.407-57.382 33.302l-6.616 16.302c-1.349 5.262-2.067 10.777-2.067 16.459 0 36.486 29.578 66.064 66.064 66.064 29.834 0 55.05-19.776 63.252-46.935l2.792-17.509c.013-.539.02-1.079.02-1.62.001-36.485-29.577-66.063-66.063-66.063z" fill="#5055a0"/><path d="m192.002 239.541c45.894.372 89.785 12.681 127.25 35.589 1.682-5.565 2.646-11.431 2.792-17.509-36.905-21.207-79.232-33.007-123.427-34.382-2.888 5.049-5.133 10.528-6.615 16.302z" fill="#fff"/></g></svg>