<?xml version="1.0" encoding="UTF-8"?>
<svg width="18px" height="20px" viewBox="0 0 18 20" version="1.1" xmlns="http://www.w3.org/2000/svg" xmlns:xlink="http://www.w3.org/1999/xlink">
    <title>044E593E-6C2A-487E-9B38-E3397A131CB3</title>
    <defs>
        <path d="M14.8333333,17.5 L3.16666667,17.5 C2.7075,17.5 2.33333333,17.1266667 2.33333333,16.6666667 L2.33333333,9.16666667 L15.6666667,9.16666667 L15.6666667,16.6666667 C15.6666667,17.1266667 15.2933333,17.5 14.8333333,17.5 M3.16666667,4.16666667 L4.83333333,4.16666667 L4.83333333,5 C4.83333333,5.46 5.20666667,5.83333333 5.66666667,5.83333333 C6.12666667,5.83333333 6.5,5.46 6.5,5 L6.5,4.16666667 L11.5,4.16666667 L11.5,5 C11.5,5.46 11.8725,5.83333333 12.3333333,5.83333333 C12.7941667,5.83333333 13.1666667,5.46 13.1666667,5 L13.1666667,4.16666667 L14.8333333,4.16666667 C15.2933333,4.16666667 15.6666667,4.54083333 15.6666667,5 L15.6666667,7.5 L2.33333333,7.5 L2.33333333,5 C2.33333333,4.54083333 2.7075,4.16666667 3.16666667,4.16666667 M14.8333333,2.5 L13.1666667,2.5 L13.1666667,1.66666667 C13.1666667,1.20666667 12.7941667,0.833333333 12.3333333,0.833333333 C11.8725,0.833333333 11.5,1.20666667 11.5,1.66666667 L11.5,2.5 L6.5,2.5 L6.5,1.66666667 C6.5,1.20666667 6.12666667,0.833333333 5.66666667,0.833333333 C5.20666667,0.833333333 4.83333333,1.20666667 4.83333333,1.66666667 L4.83333333,2.5 L3.16666667,2.5 C1.78833333,2.5 0.666666667,3.62166667 0.666666667,5 L0.666666667,16.6666667 C0.666666667,18.045 1.78833333,19.1666667 3.16666667,19.1666667 L14.8333333,19.1666667 C16.2116667,19.1666667 17.3333333,18.045 17.3333333,16.6666667 L17.3333333,5 C17.3333333,3.62166667 16.2116667,2.5 14.8333333,2.5" id="path-1"></path>
    </defs>
    <g id="1.0-Dash-" stroke="none" stroke-width="1" fill="none" fill-rule="evenodd">
        <g id="4.0-dash" transform="translate(-633.000000, -109.000000)">
            <g id="Group-7" transform="translate(473.000000, 72.000000)">
                <g id="Group-21" transform="translate(23.000000, 18.000000)">
                    <g id="Icon/Chevron/Down" transform="translate(137.000000, 19.000000)">
                        <mask id="mask-2" fill="white">
                            <use xlink:href="#path-1"></use>
                        </mask>
                        <use id="Icon-Calendar" fill="#98989E" xlink:href="#path-1"></use>
                    </g>
                </g>
            </g>
        </g>
    </g>
</svg>