<?xml version="1.0" encoding="UTF-8"?>
<svg width="13px" height="13px" viewBox="0 0 13 13" version="1.1" xmlns="http://www.w3.org/2000/svg" xmlns:xlink="http://www.w3.org/1999/xlink">
    <title>67B724AA-7F96-40B4-99B0-8CDDF2A3899C</title>
    <defs>
        <path d="M12.125,7.125 C12.470625,7.125 12.75,7.404375 12.75,7.75 L12.75,12.125 C12.75,12.470625 12.470625,12.75 12.125,12.75 L7.75,12.75 C7.404375,12.75 7.125,12.470625 7.125,12.125 L7.125,7.75 C7.125,7.404375 7.404375,7.125 7.75,7.125 L12.125,7.125 Z M5.25,7.125 C5.595,7.125 5.875,7.404375 5.875,7.75 L5.875,12.125 C5.875,12.470625 5.595,12.75 5.25,12.75 L0.875,12.75 C0.53,12.75 0.25,12.470625 0.25,12.125 L0.25,7.75 C0.25,7.404375 0.53,7.125 0.875,7.125 L5.25,7.125 Z M11.5,8.375 L8.375,8.375 L8.375,11.5 L11.5,11.5 L11.5,8.375 Z M4.625,8.375 L1.5,8.375 L1.5,11.5 L4.625,11.5 L4.625,8.375 Z M5.25,0.25 C5.595,0.25 5.875,0.53 5.875,0.875 L5.875,5.25 C5.875,5.595 5.595,5.875 5.25,5.875 L0.875,5.875 C0.53,5.875 0.25,5.595 0.25,5.25 L0.25,0.875 C0.25,0.53 0.53,0.25 0.875,0.25 L5.25,0.25 Z M12.125,0.25 C12.470625,0.25 12.75,0.53 12.75,0.875 L12.75,5.25 C12.75,5.595 12.470625,5.875 12.125,5.875 L7.75,5.875 C7.404375,5.875 7.125,5.595 7.125,5.25 L7.125,0.875 C7.125,0.53 7.404375,0.25 7.75,0.25 L12.125,0.25 Z M4.625,1.5 L1.5,1.5 L1.5,4.625 L4.625,4.625 L4.625,1.5 Z M11.5,1.5 L8.375,1.5 L8.375,4.625 L11.5,4.625 L11.5,1.5 Z" id="path-1"></path>
    </defs>
    <g id="1.0-Dash-" stroke="none" stroke-width="1" fill="none" fill-rule="evenodd">
        <g id="4.0-dash" transform="translate(-24.000000, -185.000000)">
            <g id="Modules" transform="translate(0.000000, 168.000000)">
                <g id="Icon/Layout/Grid-Copy" transform="translate(24.000000, 17.000000)">
                    <mask id="mask-2" fill="white">
                        <use xlink:href="#path-1"></use>
                    </mask>
                    <use id="Icon-Grid" fill="#98989E" xlink:href="#path-1"></use>
                </g>
            </g>
        </g>
    </g>
</svg>