<?xml version="1.0" encoding="UTF-8"?>
<svg width="10px" height="10px" viewBox="0 0 10 10" version="1.1" xmlns="http://www.w3.org/2000/svg" xmlns:xlink="http://www.w3.org/1999/xlink">
    <defs>
        <path d="M2.91708333,1.6675 C2.43708333,1.6675 1.95666667,1.85041667 1.59083333,2.21583333 C0.86,2.9475 0.86,4.13708333 1.59083333,4.86875 L4.97958333,8.2575 L8.36833333,4.86875 C8.72291667,4.51458333 8.9175,4.04375 8.91791667,3.5425 C8.91791667,3.04208333 8.72333333,2.57083333 8.36916667,2.21666667 L8.36833333,2.21583333 C8.01416667,1.86166667 7.54375,1.66666667 7.0425,1.66666667 L7.04208333,1.66666667 C6.54125,1.66666667 6.07041667,1.86125 5.71666667,2.21541667 C5.715,2.21708333 5.71333333,2.21833333 5.71166667,2.22 L5.27416667,2.6575 C5.11791667,2.81375 4.84125,2.81375 4.685,2.6575 L4.24333333,2.21583333 C3.87791667,1.85041667 3.3975,1.6675 2.91708333,1.6675 M4.97958333,9.26333333 C4.86916667,9.26333333 4.76333333,9.21958333 4.685,9.14125 L1.00166667,5.45791667 C0.49,4.94625 0.208333333,4.26583333 0.208333333,3.5425 C0.208333333,2.81875 0.49,2.13833333 1.00166667,1.62666667 C1.51333333,1.115 2.19375,0.833333333 2.91708333,0.833333333 C3.64083333,0.833333333 4.32083333,1.115 4.8325,1.62666667 L4.97958333,1.77375 L5.12666667,1.62666667 C5.12916667,1.62416667 5.13208333,1.62125 5.135,1.61833333 C5.64583333,1.11208333 6.3225,0.833333333 7.04208333,0.833333333 L7.0425,0.833333333 C7.76625,0.833333333 8.44625,1.115 8.9575,1.62666667 L8.95833333,1.6275 C10.0141667,2.68375 10.01375,4.40208333 8.9575,5.45791667 L5.27416667,9.14125 C5.19625,9.21958333 5.09,9.26333333 4.97958333,9.26333333" id="path-heart"></path>
    </defs>
    <g id="Login" stroke="none" stroke-width="1" fill="none" fill-rule="evenodd">
        <g id="Login---0.0" transform="translate(-337.000000, -954.000000)">
            <rect x="0" y="0" width="1920" height="990"></rect>
            <rect id="Rectangle" opacity="0.771949405" x="0" y="0" width="1920" height="1080" rx="4"></rect>
            <g id="Group-5" transform="translate(250.000000, -380.000000)">
                <g id="Developed-with-love-by-Zup" transform="translate(0.000000, 1329.000000)">
                    <text id="Developed-with-by" font-family="Lato-Regular, Lato" font-size="12" font-weight="normal" fill="#F2F2F9">
                    </text>
                    <g id="Icon/Image/Crop" transform="translate(87.000000, 5.000000)">
                        <mask id="mask-heart" fill="white">
                            <use xlink:href="#path-heart"></use>
                        </mask>
                        <use id="Icon-Heart" fill="#F2F2F9" xlink:href="#path-heart"></use>
                    </g>
                </g>
            </g>
        </g>
    </g>
</svg>